<?xml version="1.0" encoding="utf-8"?>
<!-- Generator: Adobe Illustrator 16.0.0, SVG Export Plug-In . SVG Version: 6.00 Build 0)  -->
<!DOCTYPE svg PUBLIC "-//W3C//DTD SVG 1.1//EN" "http://www.w3.org/Graphics/SVG/1.1/DTD/svg11.dtd">
<svg version="1.1" id="Layer_1" xmlns="http://www.w3.org/2000/svg" xmlns:xlink="http://www.w3.org/1999/xlink" x="0px" y="0px"
	 width="788.398px" height="246.654px" viewBox="0 0 788.398 246.654" enable-background="new 0 0 788.398 246.654"
	 xml:space="preserve">
<path fill="#0000FF" d="M370.29,114.26c11.85,0,20.818-8.969,21.8-21.81l0.08-1.076h-6.46l-0.07,0.922
	c-0.72,9.17-6.89,15.332-15.35,15.332c-4.552,0-8.41-1.751-11.472-5.2c-4.948-5.615-5.358-14.603-5.358-22.584
	c0-8.351,0.41-16.966,5.278-22.492c3.102-3.5,6.882-5.202,11.552-5.202c8.46,0,14.63,6.161,15.35,15.332l0.07,0.922h6.46
	l-0.08-1.076c-0.98-12.84-9.95-21.809-21.8-21.809c-5.96,0-12.012,2.735-16.182,7.324c-6.56,7.31-7.108,17.77-7.108,27.001
	c0,9.274,0.55,19.782,7.108,27.098C358.279,111.524,364.33,114.26,370.29,114.26L370.29,114.26z"/>
<polygon fill="#0000FF" points="418.829,46.699 412.46,46.699 412.46,113.079 418.829,113.079 "/>
<polygon fill="#0000FF" points="477.42,46.699 433.89,46.699 433.89,53.239 452.47,53.239 452.47,113.079 458.76,113.079 
	458.76,53.239 477.42,53.239 "/>
<polygon fill="#0000FF" points="529.399,46.699 512.18,79.768 494.949,46.699 488.069,46.699 508.949,86.808 508.949,113.079 
	515.158,113.079 515.158,86.808 536.029,46.699 "/>
<path fill="#0000FF" d="M608.93,52.149c4.38,0,8.34,1.661,11.16,4.677v0.006c5.31,5.588,5.75,14.809,5.75,23.013
	c0,8.247-0.44,17.515-5.75,23.107c-2.82,3.015-6.78,4.677-11.16,4.677s-8.34-1.662-11.16-4.683c-5.31-5.587-5.75-14.854-5.75-23.103
	c0-8.204,0.44-17.426,5.75-23.019C600.59,53.811,604.55,52.149,608.93,52.149L608.93,52.149z M608.93,114.26
	c6.04,0,11.479-2.368,15.75-6.85v-0.003c6.7-7.09,7.62-17.438,7.62-27.563c0-10.079-0.92-20.385-7.62-27.478
	c-4.271-4.479-9.71-6.848-15.75-6.848c-6.03,0-11.479,2.368-15.75,6.851c-6.7,7.091-7.62,17.396-7.62,27.475
	c0,10.126,0.92,20.475,7.62,27.566C597.449,111.892,602.899,114.26,608.93,114.26L608.93,114.26z"/>
<polygon fill="#0000FF" points="687.359,76.12 658.22,76.12 658.22,53.239 690.578,53.239 690.578,46.699 651.93,46.699 
	651.93,113.079 658.22,113.079 658.22,82.66 687.359,82.66 "/>
<path fill="#0000FF" d="M379.45,177.706h-22.371l11.069-32.353L379.45,177.706L379.45,177.706z M365.37,134.755l-22.9,66.381h6.58
	l5.77-16.98h26.892l5.949,16.98h6.489L371,134.755H365.37L365.37,134.755z"/>
<path fill="#0000FF" d="M431.619,194.505H417.51v-53.119h14.109c4.181,0,8.159,1.642,10.92,4.504
	c5.149,5.412,5.58,14.199,5.58,22.011c0,7.811-0.431,16.605-5.58,22.099C439.779,192.862,435.8,194.505,431.619,194.505
	L431.619,194.505z M431.619,134.755H411.22v66.381h20.399c5.989,0,11.5-2.369,15.5-6.672c6.479-6.854,7.381-16.817,7.381-26.563
	c0-9.701-0.9-19.623-7.37-26.471C443.119,137.125,437.609,134.755,431.619,134.755L431.619,134.755z"/>
<polygon fill="#0000FF" points="476.1,201.135 515.579,201.135 515.579,194.595 482.479,194.595 482.479,169.444 511.619,169.444 
	511.619,162.904 482.479,162.904 482.479,141.295 515.579,141.295 515.579,134.755 476.1,134.755 "/>
<polygon fill="#0000FF" points="541.149,134.755 534.859,134.755 534.859,201.135 571.529,201.135 571.529,194.686 541.149,194.686 
	"/>
<path fill="#0000FF" d="M620.149,177.706h-22.37l11.08-32.353L620.149,177.706L620.149,177.706z M606.069,134.755l-22.898,66.381
	h6.58l5.778-16.98h26.892l5.938,16.98h6.5l-23.16-66.381H606.069L606.069,134.755z"/>
<polygon fill="#0000FF" points="651.93,201.135 658.3,201.135 658.3,134.755 651.93,134.755 "/>
<path fill="#0000FF" d="M704.439,194.505h-14.109v-53.119h14.109c4.18,0,8.16,1.642,10.91,4.504
	c5.149,5.412,5.59,14.199,5.59,22.011c0,7.811-0.438,16.605-5.59,22.099C712.6,192.862,708.618,194.505,704.439,194.505
	L704.439,194.505z M704.439,134.755h-20.399v66.381h20.399c5.99,0,11.49-2.369,15.5-6.672c6.479-6.854,7.37-16.817,7.37-26.563
	c0-9.701-0.891-19.623-7.37-26.471C715.939,137.125,710.43,134.755,704.439,134.755L704.439,134.755z"/>
<polygon fill="#0000FF" points="788.399,141.295 788.399,134.755 748.92,134.755 748.92,201.135 788.399,201.135 788.399,194.595 
	755.289,194.595 755.289,169.444 784.43,169.444 784.43,162.904 755.289,162.904 755.289,141.295 "/>
<polygon fill="#0000FF" points="292.149,246.654 286.149,246.654 286.149,0 292.149,0 "/>
<path fill="#0000FF" d="M55.74,48.97c4.35,0,7.868-3.523,7.868-7.874c0-4.354-3.52-7.878-7.868-7.878
	c-4.352,0-7.87,3.523-7.87,7.878C47.87,45.446,51.39,48.97,55.74,48.97"/>
<path fill="#0000FF" d="M29.18,70.228c5.08,0,9.19-4.113,9.19-9.189s-4.11-9.182-9.19-9.182c-5.069,0-9.18,4.105-9.18,9.182
	S24.11,70.228,29.18,70.228"/>
<path fill="#0000FF" d="M10.939,106.496c6.03,0,10.932-4.893,10.932-10.935c0-6.046-4.9-10.939-10.932-10.939
	C4.89,84.622,0,89.515,0,95.561C0,101.603,4.89,106.496,10.939,106.496"/>
<path fill="#0000FF" d="M15.31,153.316c7.011,0,12.69-5.685,12.69-12.689c0-7.009-5.681-12.686-12.69-12.686
	s-12.688,5.677-12.688,12.686C2.62,147.632,8.3,153.316,15.31,153.316"/>
<path fill="#0000FF" d="M56.08,194.474c-7.53,0-13.642-6.106-13.642-13.631c0-7.528,6.11-13.627,13.642-13.627
	c7.52,0,13.62,6.099,13.62,13.627C69.7,188.368,63.6,194.474,56.08,194.474L56.08,194.474z M93.59,0L6.12,246.654h53.59L145.7,0
	H93.59L93.59,0z"/>
<path fill="#0000FF" d="M120.7,211.286c9.18,0,16.619-7.447,16.619-16.621c0-9.182-7.439-16.629-16.619-16.629
	c-9.19,0-16.631,7.447-16.631,16.629C104.07,203.839,111.51,211.286,120.7,211.286"/>
<path fill="#0000FF" d="M225.21,153.316c7.01,0,12.688-5.685,12.688-12.689c0-7.009-5.68-12.686-12.688-12.686
	s-12.69,5.677-12.69,12.686C212.52,147.632,218.2,153.316,225.21,153.316"/>
<path fill="#0000FF" d="M183.68,194.474c-7.53,0-13.64-6.106-13.64-13.631c0-7.528,6.108-13.627,13.64-13.627
	c7.521,0,13.62,6.099,13.62,13.627C197.3,188.368,191.2,194.474,183.68,194.474L183.68,194.474z M145.7,0H93.59l86.729,246.654
	h53.592L145.7,0L145.7,0z"/>
<polygon fill="#0000FF" points="145.7,0 93.59,0 119.75,74.402 "/>
</svg>
