<?xml version="1.0" encoding="utf-8"?>
<!-- Generator: Adobe Illustrator 16.0.0, SVG Export Plug-In . SVG Version: 6.00 Build 0)  -->
<!DOCTYPE svg PUBLIC "-//W3C//DTD SVG 1.1//EN" "http://www.w3.org/Graphics/SVG/1.1/DTD/svg11.dtd">
<svg version="1.1" id="Layer_1" xmlns="http://www.w3.org/2000/svg" xmlns:xlink="http://www.w3.org/1999/xlink" x="0px" y="0px"
	 width="645.587px" height="216.424px" viewBox="94.858 189.428 645.587 216.424"
	 enable-background="new 94.858 189.428 645.587 216.424" xml:space="preserve">
<g>
	<polygon fill="#0000FF" points="151.979,271.296 151.979,281.124 128.52,281.124 128.52,336.398 118.229,336.398 118.229,281.124 
		94.865,281.124 94.858,280.67 94.858,271.296 	"/>
	<polygon fill="#0000FF" points="166.792,375.369 166.792,371.617 193.569,371.617 193.569,375.369 182.408,375.369 
		182.408,405.102 177.954,405.102 177.954,375.369 	"/>
	<polygon fill="#0000FF" points="201.447,371.617 201.447,386.015 219.079,386.015 219.079,371.617 223.535,371.617 
		223.535,405.102 219.079,405.102 219.079,389.767 201.447,389.767 201.447,405.102 196.992,405.102 196.992,371.617 	"/>
	<polygon fill="#0000FF" points="253.594,371.617 253.594,375.369 234.93,375.369 234.93,386.015 252.327,386.015 252.327,389.767 
		234.93,389.767 234.93,401.351 253.734,401.351 253.734,405.102 230.474,405.102 230.474,371.617 	"/>
	<path fill="#0000FF" d="M288.929,376.19c-1.485-1.078-3.386-1.618-5.697-1.618c-0.938,0-1.86,0.094-2.769,0.282
		c-0.906,0.188-1.712,0.5-2.415,0.938c-0.702,0.438-1.266,1.023-1.688,1.758s-0.633,1.648-0.633,2.744
		c0,1.03,0.305,1.868,0.915,2.509c0.608,0.642,1.422,1.166,2.438,1.57c1.016,0.406,2.164,0.743,3.446,1.009s2.587,0.555,3.916,0.866
		c1.329,0.313,2.633,0.682,3.915,1.104c1.282,0.421,2.431,0.993,3.447,1.712c1.016,0.72,1.828,1.625,2.438,2.72
		c0.609,1.096,0.915,2.471,0.915,4.126c0,1.783-0.399,3.308-1.196,4.573s-1.82,2.298-3.07,3.095
		c-1.251,0.797-2.65,1.376-4.197,1.735c-1.548,0.359-3.088,0.539-4.619,0.539c-1.876,0-3.651-0.234-5.323-0.703
		c-1.673-0.469-3.141-1.18-4.406-2.134c-1.268-0.953-2.269-2.173-3.003-3.658c-0.734-1.484-1.102-3.243-1.102-5.275h4.221
		c0,1.407,0.273,2.619,0.82,3.636c0.547,1.016,1.267,1.852,2.157,2.508c0.892,0.657,1.93,1.142,3.118,1.455
		c1.188,0.312,2.406,0.469,3.657,0.469c1,0,2.01-0.094,3.024-0.281c1.015-0.187,1.931-0.509,2.743-0.962
		c0.812-0.452,1.47-1.07,1.971-1.853c0.499-0.781,0.75-1.782,0.75-3.001c0-1.156-0.305-2.096-0.915-2.813
		c-0.608-0.72-1.423-1.305-2.438-1.759c-1.018-0.453-2.165-0.82-3.446-1.103c-1.282-0.28-2.588-0.569-3.916-0.868
		c-1.329-0.296-2.634-0.641-3.916-1.03s-2.431-0.907-3.446-1.548c-1.017-0.643-1.829-1.47-2.438-2.485s-0.914-2.29-0.914-3.822
		c0-1.688,0.344-3.147,1.032-4.384c0.687-1.234,1.602-2.252,2.742-3.049c1.142-0.797,2.438-1.391,3.893-1.782
		c1.454-0.391,2.947-0.587,4.479-0.587c1.721,0,3.313,0.204,4.783,0.61c1.47,0.407,2.759,1.049,3.869,1.923
		c1.11,0.875,1.985,1.978,2.626,3.306c0.641,1.329,0.993,2.916,1.056,4.762h-4.221C291.281,379.013,290.413,377.27,288.929,376.19
		L288.929,376.19z"/>
	<path fill="#0000FF" d="M325.39,402.639c-2.282,2.143-5.534,3.213-9.755,3.213c-4.313,0-7.685-1.024-10.105-3.071
		c-2.423-2.047-3.634-5.307-3.634-9.776v-21.386h4.454v21.386c0,3.001,0.798,5.274,2.393,6.822c1.594,1.547,3.893,2.321,6.894,2.321
		c2.845,0,5.011-0.773,6.495-2.321s2.228-3.821,2.228-6.822v-21.386h4.456v21.386C328.813,397.285,327.671,400.497,325.39,402.639
		L325.39,402.639z"/>
	<polygon fill="#0000FF" points="341.755,371.617 352.307,399.755 362.904,371.617 369.001,371.617 369.001,405.102 
		364.781,405.102 364.781,377.245 364.687,377.245 354.229,405.102 350.43,405.102 339.973,377.245 339.879,377.245 
		339.879,405.102 335.658,405.102 335.658,371.617 	"/>
	<path fill="#0000FF" d="M392.682,393.354c0.438,1.642,1.126,3.118,2.062,4.431c0.938,1.313,2.143,2.369,3.611,3.166
		s3.221,1.196,5.252,1.196c2.032,0,3.783-0.399,5.253-1.196s2.673-1.853,3.61-3.166c0.938-1.312,1.626-2.789,2.062-4.431
		c0.438-1.642,0.656-3.307,0.656-4.994s-0.219-3.354-0.656-4.994c-0.438-1.643-1.125-3.119-2.062-4.433
		c-0.938-1.313-2.142-2.367-3.61-3.165c-1.47-0.797-3.221-1.196-5.253-1.196c-2.031,0-3.783,0.399-5.252,1.196
		c-1.47,0.798-2.673,1.852-3.611,3.165c-0.938,1.312-1.625,2.79-2.062,4.433c-0.438,1.642-0.656,3.307-0.656,4.994
		C392.025,390.048,392.244,391.713,392.682,393.354L392.682,393.354z M388.579,381.771c0.672-2.11,1.682-3.979,3.025-5.604
		c1.343-1.625,3.016-2.923,5.018-3.893c2-0.969,4.329-1.455,6.986-1.455s4.987,0.486,6.988,1.455c2,0.97,3.673,2.268,5.018,3.893
		c1.344,1.626,2.353,3.493,3.023,5.604c0.673,2.109,1.009,4.307,1.009,6.589s-0.336,4.479-1.009,6.589
		c-0.672,2.109-1.68,3.979-3.023,5.604c-1.345,1.627-3.018,2.916-5.018,3.87c-2.001,0.952-4.331,1.43-6.988,1.43
		s-4.986-0.478-6.986-1.43c-2.002-0.954-3.675-2.243-5.018-3.87c-1.346-1.624-2.354-3.493-3.025-5.604
		c-0.673-2.109-1.009-4.307-1.009-6.589S387.906,383.881,388.579,381.771L388.579,381.771z"/>
	<polygon fill="#0000FF" points="446.8,371.617 446.8,375.369 429.26,375.369 429.26,386.015 444.642,386.015 444.642,389.767 
		429.26,389.767 429.26,405.102 424.805,405.102 424.805,371.617 	"/>
	<path fill="#0000FF" d="M481.877,391.267l-5.581-15.615h-0.095l-5.674,15.615H481.877L481.877,391.267z M478.781,371.617
		l13.083,33.483h-4.924l-3.657-10.083H469.12l-3.752,10.083h-4.548l13.036-33.483H478.781L478.781,371.617z"/>
	<polygon fill="#0000FF" points="499.51,371.617 499.51,401.351 517.233,401.351 517.233,405.102 495.054,405.102 495.054,371.617 	
		"/>
	<polygon fill="#0000FF" points="525.158,371.617 525.158,401.351 542.886,401.351 542.886,405.102 520.702,405.102 
		520.702,371.617 	"/>
	<path fill="#0000FF" d="M576.935,391.267l-5.581-15.615h-0.094l-5.675,15.615H576.935L576.935,391.267z M573.838,371.617
		l13.084,33.483h-4.928l-3.656-10.083h-14.16l-3.751,10.083h-4.55l13.033-33.483H573.838L573.838,371.617z"/>
	<path fill="#0000FF" d="M606.805,386.812c0.937-0.156,1.759-0.461,2.463-0.915c0.704-0.452,1.264-1.062,1.685-1.828
		c0.423-0.767,0.636-1.759,0.636-2.979c0-1.688-0.472-3.063-1.407-4.126c-0.937-1.063-2.454-1.596-4.55-1.596h-11.067v11.678h9.288
		C604.883,387.047,605.867,386.969,606.805,386.812L606.805,386.812z M605.867,371.617c3.188,0,5.681,0.782,7.479,2.347
		c1.794,1.562,2.695,3.704,2.695,6.424c0,2.033-0.461,3.813-1.383,5.347c-0.922,1.531-2.397,2.578-4.437,3.143v0.093
		c0.972,0.188,1.76,0.501,2.37,0.938c0.608,0.438,1.095,0.961,1.457,1.571c0.355,0.609,0.624,1.289,0.798,2.04
		c0.168,0.75,0.302,1.532,0.396,2.345c0.065,0.813,0.109,1.643,0.14,2.485c0.034,0.844,0.108,1.673,0.237,2.485
		c0.124,0.812,0.303,1.587,0.535,2.32c0.238,0.734,0.59,1.383,1.057,1.946h-4.971c-0.312-0.344-0.521-0.813-0.63-1.407
		s-0.184-1.258-0.214-1.993c-0.029-0.733-0.064-1.522-0.094-2.367s-0.124-1.673-0.282-2.485c-0.124-0.812-0.277-1.586-0.467-2.321
		c-0.188-0.732-0.485-1.375-0.893-1.923c-0.405-0.546-0.937-0.984-1.596-1.312c-0.654-0.328-1.531-0.492-2.627-0.492H594.56v14.303
		h-4.455v-33.483h15.762V371.617z"/>
	<polygon fill="#0000FF" points="619.373,375.369 619.373,371.617 646.151,371.617 646.151,375.369 634.99,375.369 634.99,405.102 
		630.534,405.102 630.534,375.369 	"/>
	<path fill="#0000FF" d="M667.135,376.19c-1.486-1.078-3.385-1.618-5.699-1.618c-0.938,0-1.858,0.094-2.766,0.282
		s-1.716,0.5-2.419,0.938c-0.703,0.438-1.265,1.023-1.686,1.758c-0.422,0.734-0.635,1.648-0.635,2.744
		c0,1.03,0.308,1.868,0.917,2.509c0.609,0.642,1.423,1.166,2.438,1.57c1.018,0.406,2.161,0.743,3.444,1.009
		c1.284,0.266,2.587,0.555,3.915,0.866c1.329,0.313,2.637,0.682,3.916,1.104c1.283,0.421,2.433,0.993,3.449,1.712
		c1.017,0.72,1.829,1.625,2.438,2.72c0.61,1.096,0.913,2.471,0.913,4.126c0,1.783-0.396,3.308-1.194,4.573s-1.823,2.298-3.072,3.095
		s-2.646,1.376-4.197,1.735c-1.546,0.359-3.088,0.539-4.619,0.539c-1.874,0-3.647-0.234-5.323-0.703
		c-1.671-0.469-3.142-1.18-4.405-2.134c-1.27-0.953-2.266-2.173-3.003-3.658c-0.733-1.484-1.102-3.243-1.102-5.275h4.224
		c0,1.407,0.272,2.619,0.817,3.636c0.55,1.016,1.27,1.852,2.155,2.508c0.893,0.657,1.934,1.142,3.123,1.455
		c1.184,0.312,2.402,0.469,3.657,0.469c1.001,0,2.007-0.094,3.021-0.281c1.019-0.188,1.929-0.509,2.746-0.962
		c0.812-0.452,1.467-1.07,1.968-1.853s0.749-1.782,0.749-3.001c0-1.156-0.304-2.096-0.913-2.813
		c-0.608-0.72-1.422-1.305-2.438-1.759c-1.018-0.453-2.166-0.82-3.449-1.103c-1.279-0.28-2.588-0.569-3.916-0.868
		c-1.328-0.296-2.631-0.641-3.915-1.03s-2.429-0.907-3.444-1.548c-1.017-0.643-1.828-1.47-2.438-2.485
		c-0.61-1.016-0.917-2.29-0.917-3.822c0-1.688,0.347-3.147,1.031-4.384c0.688-1.234,1.604-2.252,2.745-3.049
		c1.14-0.797,2.438-1.391,3.891-1.782c1.457-0.391,2.948-0.587,4.479-0.587c1.721,0,3.312,0.204,4.782,0.61
		c1.467,0.407,2.761,1.049,3.871,1.923c1.11,0.875,1.982,1.978,2.622,3.306c0.646,1.329,0.996,2.916,1.055,4.762h-4.218
		C669.484,379.013,668.617,377.27,667.135,376.19L667.135,376.19z"/>
	<polygon fill="#0000FF" points="253.651,281.124 253.651,299.997 279.374,299.997 279.374,309.646 253.651,309.646 
		253.651,327.502 290.392,327.502 290.392,336.398 243.364,336.398 243.36,271.296 290.392,271.296 290.392,280.938 	"/>
	<polygon fill="#0000FF" points="222.107,271.296 222.107,336.398 211.82,336.398 211.82,309.824 178.778,309.824 178.778,336.398 
		168.491,336.398 168.491,271.296 178.778,271.296 178.778,300.088 211.82,300.088 211.82,271.296 	"/>
	<path fill="#0000FF" d="M480.571,189.429l-71.936,36.985l-71.88-36.985v0.029l-0.052-0.029l0.052,146.508h18.318V264.17
		l53.558,27.538l0.004-0.011l0.007,0.011l53.636-27.578v71.807h18.317V189.48v-0.052L480.571,189.429L480.571,189.429z
		 M462.278,219.201v24.56l-53.643,27.582l-53.562-27.538v-24.562l53.558,27.543l0.004-0.013l0.007,0.013L462.278,219.201
		L462.278,219.201z"/>
	<polygon fill="#0000FF" points="686.83,327.264 686.83,336.249 642.966,336.249 642.966,271.15 653.259,271.15 653.259,327.264 	
		"/>
	<polygon fill="#0000FF" points="588.115,267.694 588.115,336.249 578.401,336.249 578.401,291.816 554.979,316.86 531.417,293.61 
		531.417,336.257 521.743,336.257 521.743,268.671 554.96,303.733 	"/>
	<polygon fill="#0000FF" points="747.031,327.264 747.031,336.257 703.161,336.257 703.161,271.15 713.449,271.15 713.449,327.264 	
		"/>
	<polygon fill="#0000FF" points="620.009,271.147 620.009,336.251 610.626,336.251 610.616,271.147 	"/>
</g>
</svg>
