<?xml version="1.0" encoding="utf-8"?>
<!-- Generator: Adobe Illustrator 16.0.0, SVG Export Plug-In . SVG Version: 6.00 Build 0)  -->
<!DOCTYPE svg PUBLIC "-//W3C//DTD SVG 1.1//EN" "http://www.w3.org/Graphics/SVG/1.1/DTD/svg11.dtd">
<svg version="1.1" id="Layer_1" xmlns="http://www.w3.org/2000/svg" xmlns:xlink="http://www.w3.org/1999/xlink" x="0px" y="0px"
	 width="642px" height="490px" viewBox="0 0 642 490" enable-background="new 0 0 642 490" xml:space="preserve">
<g>
	
		<image overflow="visible" enable-background="new    " width="630" height="475" xlink:href="F67361AD652F24C5.png"  transform="matrix(1 0 0 1 1.0002 10.9998)">
	</image>
</g>
<rect x="47" y="40" fill="#FFFFFF" stroke="#000000" stroke-width="2" stroke-miterlimit="10" width="558" height="403"/>
<rect x="77.334" y="74.814" fill="none" width="501.666" height="281.92"/>
<g enable-background="new    ">
	<path d="M89.001,107.034v-28.41H78.388v-3.802h25.532v3.802H93.264v28.41H89.001z"/>
	<path d="M107.788,107.034V74.822h3.955V86.38c1.846-2.139,4.175-3.208,6.987-3.208c1.729,0,3.23,0.341,4.504,1.021
		c1.274,0.682,2.187,1.623,2.735,2.823c0.55,1.202,0.824,2.945,0.824,5.23v14.787h-3.955V92.247c0-1.979-0.429-3.417-1.285-4.318
		c-0.857-0.9-2.069-1.352-3.637-1.352c-1.172,0-2.274,0.305-3.307,0.912c-1.033,0.608-1.769,1.433-2.208,2.473
		s-0.659,2.476-0.659,4.307v12.766H107.788z"/>
	<path d="M148.789,99.519l4.087,0.505c-0.645,2.389-1.838,4.241-3.582,5.56s-3.97,1.978-6.68,1.978c-3.413,0-6.12-1.051-8.119-3.153
		c-2-2.102-3-5.05-3-8.844c0-3.926,1.011-6.973,3.032-9.141s4.644-3.252,7.866-3.252c3.12,0,5.669,1.062,7.646,3.187
		s2.966,5.112,2.966,8.965c0,0.234-0.007,0.586-0.022,1.055h-17.402c0.146,2.563,0.872,4.525,2.175,5.889
		c1.304,1.361,2.93,2.043,4.878,2.043c1.45,0,2.688-0.381,3.713-1.143S148.188,101.189,148.789,99.519z M135.803,93.126h13.03
		c-0.176-1.963-0.674-3.436-1.494-4.417c-1.26-1.523-2.893-2.285-4.9-2.285c-1.816,0-3.344,0.608-4.582,1.823
		C136.619,89.464,135.935,91.09,135.803,93.126z"/>
	<path d="M170.718,107.034V74.822h6.416l7.625,22.808c0.703,2.124,1.216,3.713,1.538,4.768c0.366-1.171,0.938-2.893,1.714-5.163
		l7.712-22.412h5.735v32.212h-4.109V80.073l-9.36,26.961h-3.845l-9.316-27.422v27.422H170.718z"/>
	<path d="M207.851,79.37v-4.548h3.955v4.548H207.851z M207.851,107.034V83.699h3.955v23.335H207.851z"/>
	<path d="M217.739,107.034V74.822h3.955v32.212H217.739z"/>
	<path d="M227.737,107.034V74.822h3.955v32.212H227.737z"/>
	<path d="M250.346,79.37v-4.548h3.955v4.548H250.346z M250.346,107.034V83.699h3.955v23.335H250.346z"/>
	<path d="M260.322,107.034V83.699h3.56v3.317c1.714-2.562,4.189-3.845,7.427-3.845c1.406,0,2.699,0.253,3.878,0.758
		c1.179,0.506,2.062,1.169,2.647,1.989s0.996,1.794,1.23,2.922c0.146,0.732,0.22,2.015,0.22,3.846v14.348h-3.955V92.84
		c0-1.611-0.154-2.816-0.461-3.614c-0.308-0.799-0.854-1.436-1.637-1.912c-0.784-0.476-1.703-0.714-2.757-0.714
		c-1.685,0-3.139,0.535-4.362,1.604s-1.834,3.098-1.834,6.086v12.744H260.322z"/>
	<path d="M321.34,95.74l4.263,1.077c-0.894,3.501-2.501,6.17-4.823,8.009c-2.322,1.838-5.16,2.757-8.514,2.757
		c-3.472,0-6.295-0.706-8.47-2.12c-2.176-1.413-3.831-3.46-4.966-6.142c-1.136-2.68-1.703-5.559-1.703-8.635
		c0-3.354,0.641-6.28,1.923-8.778c1.281-2.497,3.105-4.395,5.471-5.69c2.366-1.297,4.97-1.945,7.812-1.945
		c3.223,0,5.933,0.821,8.13,2.461c2.197,1.642,3.729,3.948,4.592,6.922l-4.196,0.988c-0.747-2.343-1.831-4.05-3.252-5.119
		s-3.208-1.604-5.361-1.604c-2.476,0-4.545,0.593-6.207,1.779c-1.663,1.187-2.831,2.779-3.505,4.779
		c-0.674,1.999-1.011,4.062-1.011,6.186c0,2.739,0.399,5.13,1.197,7.174c0.798,2.043,2.04,3.57,3.725,4.581s3.508,1.517,5.471,1.517
		c2.388,0,4.409-0.688,6.064-2.066C319.634,100.494,320.754,98.45,321.34,95.74z"/>
	<path d="M328.877,95.366c0-4.32,1.201-7.521,3.604-9.602c2.006-1.729,4.453-2.593,7.338-2.593c3.209,0,5.83,1.051,7.867,3.153
		c2.035,2.102,3.054,5.006,3.054,8.712c0,3.003-0.45,5.365-1.351,7.086c-0.902,1.722-2.213,3.059-3.934,4.011
		c-1.722,0.951-3.6,1.428-5.637,1.428c-3.266,0-5.906-1.047-7.92-3.143C329.883,102.325,328.877,99.307,328.877,95.366z
		 M332.942,95.366c0,2.988,0.652,5.227,1.955,6.713c1.305,1.487,2.945,2.23,4.922,2.23c1.963,0,3.597-0.747,4.9-2.241
		s1.955-3.771,1.955-6.833c0-2.886-0.655-5.072-1.967-6.56c-1.311-1.486-2.939-2.229-4.889-2.229c-1.977,0-3.617,0.739-4.922,2.219
		C333.594,90.144,332.942,92.378,332.942,95.366z"/>
	<path d="M355.375,107.034V83.699h3.561v3.317c1.713-2.562,4.189-3.845,7.426-3.845c1.406,0,2.699,0.253,3.879,0.758
		c1.179,0.506,2.062,1.169,2.647,1.989s0.996,1.794,1.23,2.922c0.146,0.732,0.22,2.015,0.22,3.846v14.348h-3.955V92.84
		c0-1.611-0.154-2.816-0.461-3.614c-0.309-0.799-0.854-1.436-1.638-1.912c-0.784-0.476-1.702-0.714-2.757-0.714
		c-1.686,0-3.139,0.535-4.362,1.604s-1.835,3.098-1.835,6.086v12.744H355.375z"/>
	<path d="M386.885,107.034l-8.877-23.335h4.174l5.01,13.975c0.543,1.509,1.041,3.076,1.494,4.702c0.352-1.23,0.843-2.71,1.473-4.438
		l5.186-14.238h4.064l-8.832,23.335H386.885z"/>
	<path d="M418.877,99.519l4.086,0.505c-0.645,2.389-1.838,4.241-3.581,5.56s-3.97,1.978-6.68,1.978c-3.413,0-6.12-1.051-8.118-3.153
		c-2-2.102-3-5.05-3-8.844c0-3.926,1.011-6.973,3.032-9.141s4.644-3.252,7.866-3.252c3.12,0,5.669,1.062,7.646,3.187
		s2.967,5.112,2.967,8.965c0,0.234-0.008,0.586-0.022,1.055h-17.402c0.146,2.563,0.872,4.525,2.175,5.889
		c1.305,1.361,2.93,2.043,4.879,2.043c1.449,0,2.688-0.381,3.713-1.143S418.276,101.189,418.877,99.519z M405.891,93.126h13.029
		c-0.176-1.963-0.674-3.436-1.494-4.417c-1.26-1.523-2.893-2.285-4.899-2.285c-1.816,0-3.344,0.608-4.581,1.823
		C406.707,89.464,406.023,91.09,405.891,93.126z"/>
	<path d="M427.885,107.034V83.699h3.561v3.538c0.908-1.655,1.746-2.747,2.516-3.274c0.769-0.527,1.615-0.791,2.537-0.791
		c1.334,0,2.688,0.425,4.065,1.274l-1.362,3.67c-0.967-0.572-1.934-0.857-2.9-0.857c-0.864,0-1.641,0.26-2.329,0.78
		c-0.688,0.52-1.179,1.241-1.472,2.164c-0.439,1.406-0.66,2.944-0.66,4.614v12.217H427.885z"/>
	<path d="M441.332,100.069l3.912-0.615c0.219,1.567,0.83,2.768,1.834,3.604c1.004,0.834,2.406,1.252,4.208,1.252
		c1.816,0,3.164-0.37,4.043-1.109c0.879-0.74,1.318-1.607,1.318-2.604c0-0.894-0.388-1.597-1.165-2.109
		c-0.541-0.352-1.889-0.799-4.043-1.341c-2.9-0.732-4.91-1.366-6.031-1.9c-1.12-0.535-1.971-1.274-2.549-2.22
		c-0.578-0.944-0.867-1.988-0.867-3.131c0-1.04,0.237-2.003,0.714-2.89c0.476-0.886,1.124-1.622,1.944-2.208
		c0.615-0.454,1.453-0.839,2.516-1.153c1.062-0.315,2.201-0.473,3.417-0.473c1.831,0,3.438,0.264,4.823,0.791
		c1.384,0.527,2.406,1.241,3.064,2.143c0.66,0.9,1.113,2.105,1.363,3.614l-3.867,0.527c-0.176-1.201-0.686-2.139-1.527-2.812
		c-0.843-0.674-2.033-1.011-3.57-1.011c-1.816,0-3.113,0.301-3.89,0.901s-1.165,1.304-1.165,2.109c0,0.513,0.162,0.974,0.484,1.384
		c0.322,0.425,0.827,0.776,1.516,1.055c0.396,0.146,1.561,0.483,3.494,1.011c2.797,0.747,4.749,1.358,5.855,1.835
		c1.105,0.476,1.974,1.168,2.604,2.076s0.945,2.036,0.945,3.384c0,1.318-0.385,2.56-1.154,3.725
		c-0.769,1.164-1.879,2.065-3.328,2.702c-1.451,0.638-3.092,0.956-4.922,0.956c-3.033,0-5.344-0.63-6.933-1.89
		C442.786,104.412,441.772,102.545,441.332,100.069z"/>
	<path d="M480.642,104.155c-1.465,1.246-2.875,2.125-4.229,2.637c-1.355,0.513-2.809,0.77-4.361,0.77
		c-2.564,0-4.534-0.626-5.911-1.879c-1.377-1.252-2.065-2.853-2.065-4.801c0-1.143,0.26-2.187,0.78-3.131
		c0.52-0.945,1.2-1.703,2.043-2.274s1.791-1.003,2.846-1.296c0.776-0.205,1.948-0.403,3.516-0.594
		c3.193-0.381,5.544-0.835,7.054-1.362c0.014-0.542,0.021-0.886,0.021-1.032c0-1.611-0.373-2.747-1.121-3.406
		c-1.01-0.894-2.512-1.34-4.504-1.34c-1.86,0-3.234,0.325-4.12,0.978c-0.886,0.651-1.542,1.806-1.966,3.46l-3.867-0.527
		c0.352-1.654,0.93-2.991,1.735-4.01c0.806-1.018,1.97-1.802,3.493-2.351c1.523-0.55,3.289-0.824,5.296-0.824
		c1.992,0,3.61,0.234,4.856,0.703c1.244,0.469,2.16,1.059,2.746,1.769c0.586,0.711,0.996,1.608,1.23,2.691
		c0.132,0.675,0.197,1.891,0.197,3.648v5.273c0,3.677,0.084,6.002,0.253,6.976c0.169,0.975,0.502,1.908,1,2.802h-4.131
		C481.023,106.214,480.759,105.255,480.642,104.155z M480.313,95.323c-1.436,0.586-3.59,1.084-6.461,1.494
		c-1.625,0.234-2.775,0.498-3.449,0.791s-1.193,0.721-1.561,1.285c-0.365,0.563-0.549,1.19-0.549,1.879
		c0,1.055,0.398,1.934,1.197,2.637s1.967,1.055,3.505,1.055c1.523,0,2.878-0.334,4.065-1c1.186-0.667,2.058-1.578,2.614-2.736
		c0.425-0.893,0.638-2.211,0.638-3.955V95.323z"/>
	<path d="M499.076,103.497l0.572,3.493c-1.113,0.234-2.109,0.352-2.988,0.352c-1.436,0-2.549-0.228-3.34-0.681
		c-0.791-0.454-1.348-1.052-1.67-1.791c-0.322-0.74-0.484-2.297-0.484-4.67V86.775h-2.9v-3.076h2.9v-5.778l3.934-2.373v8.151h3.977
		v3.076H495.1v13.646c0,1.128,0.069,1.853,0.209,2.175c0.139,0.322,0.365,0.579,0.682,0.769c0.314,0.191,0.765,0.286,1.351,0.286
		C497.781,103.65,498.36,103.599,499.076,103.497z"/>
	<path d="M502.967,79.37v-4.548h3.955v4.548H502.967z M502.967,107.034V83.699h3.955v23.335H502.967z"/>
	<path d="M511.469,95.366c0-4.32,1.201-7.521,3.604-9.602c2.008-1.729,4.453-2.593,7.34-2.593c3.207,0,5.83,1.051,7.865,3.153
		c2.037,2.102,3.055,5.006,3.055,8.712c0,3.003-0.451,5.365-1.352,7.086c-0.9,1.722-2.211,3.059-3.934,4.011
		c-1.721,0.951-3.6,1.428-5.635,1.428c-3.268,0-5.908-1.047-7.922-3.143C512.477,102.325,511.469,99.307,511.469,95.366z
		 M515.533,95.366c0,2.988,0.652,5.227,1.957,6.713c1.303,1.487,2.943,2.23,4.922,2.23c1.963,0,3.596-0.747,4.898-2.241
		c1.305-1.494,1.957-3.771,1.957-6.833c0-2.886-0.656-5.072-1.967-6.56c-1.311-1.486-2.941-2.229-4.889-2.229
		c-1.979,0-3.619,0.739-4.922,2.219C516.186,90.144,515.533,92.378,515.533,95.366z"/>
	<path d="M537.969,107.034V83.699h3.559v3.317c1.715-2.562,4.189-3.845,7.428-3.845c1.406,0,2.697,0.253,3.877,0.758
		c1.18,0.506,2.062,1.169,2.648,1.989s0.996,1.794,1.23,2.922c0.146,0.732,0.219,2.015,0.219,3.846v14.348h-3.955V92.84
		c0-1.611-0.152-2.816-0.461-3.614c-0.307-0.799-0.854-1.436-1.637-1.912c-0.783-0.476-1.703-0.714-2.758-0.714
		c-1.686,0-3.139,0.535-4.361,1.604s-1.834,3.098-1.834,6.086v12.744H537.969z"/>
	<path d="M564.094,88.204v-4.505h4.504v4.505H564.094z M564.094,107.034v-4.504h4.504v4.504H564.094z"/>
</g>
<g enable-background="new    ">
	<path d="M89.001,161.034v-28.41H78.388v-3.802h25.532v3.802H93.264v28.41H89.001z"/>
	<path d="M107.788,161.034v-32.212h3.955v11.558c1.846-2.139,4.175-3.208,6.987-3.208c1.729,0,3.23,0.341,4.504,1.021
		c1.274,0.682,2.187,1.623,2.735,2.823c0.55,1.202,0.824,2.945,0.824,5.23v14.787h-3.955v-14.787c0-1.979-0.429-3.417-1.285-4.318
		c-0.857-0.9-2.069-1.352-3.637-1.352c-1.172,0-2.274,0.305-3.307,0.912c-1.033,0.608-1.769,1.433-2.208,2.473
		s-0.659,2.476-0.659,4.307v12.766H107.788z"/>
	<path d="M148.789,153.519l4.087,0.505c-0.645,2.389-1.838,4.241-3.582,5.56s-3.97,1.978-6.68,1.978
		c-3.413,0-6.12-1.051-8.119-3.153c-2-2.102-3-5.05-3-8.844c0-3.926,1.011-6.973,3.032-9.141s4.644-3.252,7.866-3.252
		c3.12,0,5.669,1.062,7.646,3.187s2.966,5.112,2.966,8.965c0,0.234-0.007,0.586-0.022,1.055h-17.402
		c0.146,2.563,0.872,4.525,2.175,5.889c1.304,1.361,2.93,2.043,4.878,2.043c1.45,0,2.688-0.381,3.713-1.143
		S148.188,155.189,148.789,153.519z M135.803,147.126h13.03c-0.176-1.963-0.674-3.436-1.494-4.417
		c-1.26-1.523-2.893-2.285-4.9-2.285c-1.816,0-3.344,0.608-4.582,1.823C136.619,143.464,135.935,145.09,135.803,147.126z"/>
	<path d="M170.674,161.034v-32.212h12.085c2.461,0,4.435,0.326,5.922,0.978c1.486,0.652,2.651,1.655,3.493,3.011
		c0.842,1.354,1.264,2.772,1.264,4.251c0,1.378-0.374,2.674-1.121,3.89s-1.875,2.197-3.384,2.944
		c1.948,0.571,3.446,1.546,4.494,2.922c1.047,1.378,1.571,3.004,1.571,4.879c0,1.509-0.319,2.911-0.956,4.207
		c-0.638,1.297-1.425,2.297-2.362,3s-2.113,1.233-3.526,1.593c-1.414,0.358-3.146,0.538-5.197,0.538H170.674z M174.936,142.357
		h6.965c1.89,0,3.245-0.124,4.065-0.374c1.084-0.321,1.9-0.856,2.45-1.604c0.549-0.747,0.824-1.685,0.824-2.812
		c0-1.069-0.256-2.011-0.769-2.823c-0.513-0.813-1.245-1.37-2.197-1.67c-0.952-0.301-2.585-0.45-4.9-0.45h-6.438V142.357z
		 M174.936,157.233h8.02c1.377,0,2.344-0.052,2.9-0.154c0.981-0.176,1.802-0.469,2.461-0.879s1.201-1.007,1.626-1.791
		c0.425-0.783,0.637-1.688,0.637-2.713c0-1.201-0.308-2.245-0.923-3.132c-0.615-0.886-1.469-1.509-2.56-1.867
		c-1.092-0.359-2.663-0.538-4.713-0.538h-7.449V157.233z"/>
	<path d="M215.586,158.155c-1.465,1.246-2.875,2.125-4.229,2.637c-1.355,0.513-2.809,0.77-4.362,0.77
		c-2.563,0-4.534-0.626-5.911-1.879c-1.377-1.252-2.065-2.853-2.065-4.801c0-1.143,0.26-2.187,0.78-3.131
		c0.52-0.945,1.201-1.703,2.043-2.274s1.791-1.003,2.846-1.296c0.776-0.205,1.948-0.403,3.516-0.594
		c3.193-0.381,5.544-0.835,7.053-1.362c0.015-0.542,0.022-0.886,0.022-1.032c0-1.611-0.374-2.747-1.121-3.406
		c-1.011-0.894-2.512-1.34-4.504-1.34c-1.86,0-3.234,0.325-4.12,0.978c-0.886,0.651-1.542,1.806-1.966,3.46l-3.867-0.527
		c0.352-1.654,0.93-2.991,1.736-4.01c0.806-1.018,1.97-1.802,3.494-2.351c1.523-0.55,3.289-0.824,5.295-0.824
		c1.992,0,3.611,0.234,4.856,0.703s2.161,1.059,2.747,1.769c0.586,0.711,0.996,1.608,1.23,2.691
		c0.132,0.675,0.198,1.891,0.198,3.648v5.273c0,3.677,0.084,6.002,0.252,6.976c0.168,0.975,0.502,1.908,1,2.802h-4.131
		C215.967,160.214,215.703,159.255,215.586,158.155z M215.256,149.323c-1.436,0.586-3.589,1.084-6.46,1.494
		c-1.626,0.234-2.776,0.498-3.45,0.791s-1.194,0.721-1.56,1.285c-0.366,0.563-0.549,1.19-0.549,1.879
		c0,1.055,0.399,1.934,1.197,2.637s1.967,1.055,3.505,1.055c1.523,0,2.878-0.334,4.065-1c1.187-0.667,2.058-1.578,2.615-2.736
		c0.425-0.893,0.637-2.211,0.637-3.955V149.323z"/>
	<path d="M225.407,133.37v-4.548h3.955v4.548H225.407z M225.407,161.034v-23.335h3.955v23.335H225.407z"/>
	<path d="M244.018,157.497l0.571,3.493c-1.113,0.234-2.109,0.352-2.988,0.352c-1.436,0-2.549-0.228-3.34-0.681
		c-0.791-0.454-1.348-1.052-1.67-1.791c-0.322-0.74-0.483-2.297-0.483-4.67v-13.425h-2.9v-3.076h2.9v-5.778l3.933-2.373v8.151h3.977
		v3.076h-3.977v13.646c0,1.128,0.069,1.853,0.208,2.175s0.366,0.579,0.682,0.769c0.314,0.191,0.765,0.286,1.351,0.286
		C242.722,157.65,243.301,157.599,244.018,157.497z"/>
	<path d="M261.113,161.034v-32.212h21.731v3.802h-17.468v9.975h15.117v3.802h-15.117v14.634H261.113z"/>
	<path d="M287.832,161.034v-23.335h3.56v3.538c0.908-1.655,1.747-2.747,2.516-3.274c0.769-0.527,1.615-0.791,2.538-0.791
		c1.333,0,2.688,0.425,4.065,1.274l-1.362,3.67c-0.967-0.572-1.934-0.857-2.9-0.857c-0.864,0-1.641,0.26-2.329,0.78
		c-0.688,0.52-1.179,1.241-1.472,2.164c-0.439,1.406-0.659,2.944-0.659,4.614v12.217H287.832z"/>
	<path d="M302.883,133.37v-4.548h3.955v4.548H302.883z M302.883,161.034v-23.335h3.955v23.335H302.883z"/>
	<path d="M327.998,161.034v-2.944c-1.48,2.314-3.655,3.472-6.526,3.472c-1.86,0-3.571-0.513-5.13-1.538
		c-1.561-1.025-2.769-2.457-3.626-4.296c-0.856-1.838-1.285-3.951-1.285-6.339c0-2.329,0.388-4.442,1.165-6.339
		c0.776-1.897,1.941-3.352,3.494-4.361c1.553-1.012,3.289-1.517,5.208-1.517c1.406,0,2.659,0.297,3.757,0.89
		c1.1,0.594,1.992,1.366,2.682,2.318v-11.558h3.933v32.212H327.998z M315.495,149.388c0,2.988,0.63,5.223,1.89,6.702
		s2.747,2.219,4.461,2.219c1.729,0,3.197-0.707,4.404-2.12c1.209-1.414,1.813-3.571,1.813-6.472c0-3.192-0.615-5.537-1.846-7.031
		s-2.747-2.24-4.548-2.24c-1.758,0-3.227,0.718-4.406,2.152C316.085,144.035,315.495,146.298,315.495,149.388z"/>
	<path d="M337.16,162.968l3.846,0.571c0.16,1.187,0.607,2.051,1.34,2.593c0.981,0.732,2.322,1.099,4.021,1.099
		c1.83,0,3.244-0.366,4.24-1.099s1.67-1.758,2.021-3.076c0.205-0.806,0.301-2.497,0.285-5.076c-1.729,2.037-3.881,3.055-6.459,3.055
		c-3.209,0-5.691-1.157-7.449-3.472s-2.637-5.09-2.637-8.327c0-2.227,0.402-4.281,1.209-6.164c0.805-1.882,1.973-3.336,3.504-4.361
		s3.329-1.538,5.395-1.538c2.754,0,5.024,1.113,6.812,3.34v-2.812h3.647v20.171c0,3.633-0.37,6.207-1.109,7.724
		c-0.74,1.516-1.912,2.714-3.516,3.593c-1.604,0.879-3.578,1.318-5.922,1.318c-2.783,0-5.031-0.627-6.746-1.879
		C337.93,167.373,337.102,165.487,337.16,162.968z M340.434,148.949c0,3.062,0.608,5.296,1.824,6.702s2.739,2.109,4.57,2.109
		c1.816,0,3.34-0.7,4.57-2.099c1.23-1.399,1.846-3.593,1.846-6.581c0-2.856-0.634-5.01-1.9-6.46
		c-1.268-1.45-2.795-2.175-4.582-2.175c-1.758,0-3.252,0.714-4.482,2.142C341.049,144.016,340.434,146.136,340.434,148.949z"/>
	<path d="M378.887,153.519l4.086,0.505c-0.645,2.389-1.838,4.241-3.581,5.56s-3.97,1.978-6.68,1.978
		c-3.413,0-6.12-1.051-8.118-3.153c-2-2.102-3-5.05-3-8.844c0-3.926,1.011-6.973,3.032-9.141s4.644-3.252,7.866-3.252
		c3.12,0,5.669,1.062,7.646,3.187s2.967,5.112,2.967,8.965c0,0.234-0.008,0.586-0.022,1.055h-17.402
		c0.146,2.563,0.872,4.525,2.175,5.889c1.305,1.361,2.93,2.043,4.879,2.043c1.449,0,2.688-0.381,3.713-1.143
		S378.285,155.189,378.887,153.519z M365.901,147.126h13.029c-0.176-1.963-0.674-3.436-1.494-4.417
		c-1.26-1.523-2.893-2.285-4.899-2.285c-1.816,0-3.344,0.608-4.581,1.823C366.717,143.464,366.032,145.09,365.901,147.126z"/>
	<path d="M397.475,150.97v-3.187h45v3.187H397.475z"/>
	<path d="M442.475,150.97v-3.187h45v3.187H442.475z"/>
	<path d="M487.475,150.97v-3.187h45v3.187H487.475z"/>
	<path d="M532.475,150.97v-3.187h45v3.187H532.475z"/>
</g>
<g>
	<path fill="#FF0000" d="M78.263,197.034l4.184-20.043h2.475l-1.6,7.697c0.92-0.894,1.777-1.533,2.57-1.921s1.608-0.581,2.447-0.581
		c1.203,0,2.137,0.316,2.803,0.95c0.665,0.634,0.998,1.47,0.998,2.509c0,0.511-0.146,1.449-0.438,2.816l-1.791,8.572h-2.475
		l1.846-8.791c0.264-1.276,0.396-2.078,0.396-2.406c0-0.474-0.164-0.861-0.492-1.162s-0.802-0.451-1.422-0.451
		c-0.894,0-1.746,0.234-2.557,0.704c-0.812,0.47-1.447,1.112-1.907,1.928c-0.46,0.815-0.882,2.131-1.265,3.944l-1.299,6.234H78.263z
		"/>
	<path fill="#FF0000" d="M99.619,195.024l-0.41,2.023c-0.593,0.155-1.167,0.232-1.723,0.232c-0.984,0-1.769-0.241-2.352-0.725
		c-0.438-0.364-0.656-0.861-0.656-1.49c0-0.319,0.118-1.053,0.355-2.201l1.764-8.436h-1.955l0.396-1.914h1.955l0.752-3.568
		l2.83-1.709l-1.107,5.277h2.434l-0.41,1.914h-2.42l-1.682,8.025c-0.21,1.021-0.314,1.632-0.314,1.832
		c0,0.292,0.084,0.515,0.253,0.67c0.168,0.155,0.444,0.232,0.827,0.232C98.703,195.188,99.19,195.134,99.619,195.024z"/>
	<path fill="#FF0000" d="M107.398,195.024l-0.41,2.023c-0.593,0.155-1.167,0.232-1.723,0.232c-0.984,0-1.769-0.241-2.352-0.725
		c-0.438-0.364-0.656-0.861-0.656-1.49c0-0.319,0.118-1.053,0.355-2.201l1.764-8.436h-1.955l0.396-1.914h1.955l0.752-3.568
		l2.83-1.709l-1.107,5.277h2.434l-0.41,1.914h-2.42l-1.682,8.025c-0.21,1.021-0.314,1.632-0.314,1.832
		c0,0.292,0.084,0.515,0.253,0.67c0.168,0.155,0.444,0.232,0.827,0.232C106.482,195.188,106.969,195.134,107.398,195.024z"/>
	<path fill="#FF0000" d="M108.177,202.598l4.197-20.084h2.283l-0.424,2.023c0.848-0.884,1.606-1.497,2.276-1.839
		s1.378-0.513,2.126-0.513c1.385,0,2.534,0.504,3.445,1.511c0.911,1.007,1.367,2.449,1.367,4.327c0,1.513-0.251,2.892-0.752,4.136
		c-0.501,1.244-1.117,2.244-1.846,3.001c-0.729,0.757-1.468,1.312-2.215,1.668c-0.748,0.355-1.513,0.533-2.297,0.533
		c-1.741,0-3.09-0.884-4.047-2.652l-1.641,7.889H108.177z M113.072,191.1c0,1.085,0.077,1.837,0.232,2.256
		c0.228,0.593,0.602,1.071,1.121,1.436s1.121,0.547,1.805,0.547c1.422,0,2.57-0.8,3.445-2.399s1.312-3.233,1.312-4.901
		c0-1.23-0.294-2.181-0.882-2.851s-1.319-1.005-2.194-1.005c-0.629,0-1.212,0.166-1.75,0.499c-0.538,0.333-1.037,0.829-1.497,1.49
		c-0.46,0.661-0.841,1.47-1.142,2.427S113.072,190.389,113.072,191.1z"/>
	<path fill="#FF0000" d="M125.199,192.071l2.475-0.15c0,0.711,0.109,1.317,0.328,1.818s0.622,0.911,1.21,1.23
		s1.273,0.479,2.058,0.479c1.094,0,1.914-0.219,2.461-0.656s0.82-0.952,0.82-1.545c0-0.429-0.164-0.834-0.492-1.217
		c-0.337-0.383-1.16-0.854-2.468-1.415c-1.308-0.561-2.145-0.955-2.509-1.183c-0.611-0.374-1.071-0.813-1.381-1.319
		c-0.31-0.506-0.465-1.087-0.465-1.743c0-1.148,0.456-2.133,1.367-2.953c0.911-0.82,2.188-1.23,3.828-1.23
		c1.823,0,3.21,0.422,4.163,1.265c0.952,0.843,1.447,1.953,1.483,3.329l-2.42,0.164c-0.037-0.875-0.347-1.567-0.93-2.078
		c-0.583-0.511-1.408-0.766-2.475-0.766c-0.857,0-1.522,0.196-1.996,0.588c-0.474,0.392-0.711,0.815-0.711,1.271
		s0.205,0.856,0.615,1.203c0.273,0.237,0.979,0.602,2.119,1.094c1.896,0.82,3.09,1.468,3.582,1.941
		c0.784,0.757,1.176,1.677,1.176,2.762c0,0.72-0.221,1.427-0.663,2.119c-0.442,0.692-1.117,1.246-2.023,1.661
		c-0.907,0.415-1.976,0.622-3.206,0.622c-1.677,0-3.104-0.415-4.279-1.244S125.135,193.939,125.199,192.071z"/>
	<path fill="#FF0000" d="M139.636,197.034l0.588-2.803h2.803l-0.602,2.803H139.636z M142.084,185.317l0.588-2.803h2.789
		l-0.574,2.803H142.084z"/>
	<path fill="#FF0000" d="M144.394,197.362l10.773-20.713h2.146l-10.773,20.713H144.394z"/>
	<path fill="#FF0000" d="M152.174,197.362l10.773-20.713h2.146l-10.773,20.713H152.174z"/>
	<path fill="#FF0000" d="M162.537,192.071l2.475-0.15c0,0.711,0.109,1.317,0.328,1.818s0.622,0.911,1.21,1.23
		s1.273,0.479,2.058,0.479c1.094,0,1.914-0.219,2.461-0.656s0.82-0.952,0.82-1.545c0-0.429-0.164-0.834-0.492-1.217
		c-0.337-0.383-1.16-0.854-2.468-1.415c-1.308-0.561-2.145-0.955-2.509-1.183c-0.611-0.374-1.071-0.813-1.381-1.319
		c-0.31-0.506-0.465-1.087-0.465-1.743c0-1.148,0.456-2.133,1.367-2.953c0.911-0.82,2.188-1.23,3.828-1.23
		c1.823,0,3.21,0.422,4.163,1.265c0.952,0.843,1.447,1.953,1.483,3.329l-2.42,0.164c-0.037-0.875-0.347-1.567-0.93-2.078
		c-0.583-0.511-1.408-0.766-2.475-0.766c-0.857,0-1.522,0.196-1.996,0.588c-0.474,0.392-0.711,0.815-0.711,1.271
		s0.205,0.856,0.615,1.203c0.273,0.237,0.979,0.602,2.119,1.094c1.896,0.82,3.09,1.468,3.582,1.941
		c0.784,0.757,1.176,1.677,1.176,2.762c0,0.72-0.221,1.427-0.663,2.119c-0.442,0.692-1.117,1.246-2.023,1.661
		c-0.907,0.415-1.976,0.622-3.206,0.622c-1.677,0-3.104-0.415-4.279-1.244S162.473,193.939,162.537,192.071z"/>
	<path fill="#FF0000" d="M176.742,191.524c0-2.835,0.834-5.182,2.502-7.041c1.376-1.531,3.181-2.297,5.414-2.297
		c1.75,0,3.16,0.547,4.231,1.641c1.071,1.094,1.606,2.57,1.606,4.43c0,1.668-0.337,3.22-1.012,4.655
		c-0.675,1.436-1.634,2.536-2.878,3.302s-2.555,1.148-3.931,1.148c-1.13,0-2.158-0.241-3.083-0.725
		c-0.925-0.483-1.632-1.167-2.119-2.051C176.986,193.703,176.742,192.681,176.742,191.524z M179.217,191.278
		c0,1.367,0.328,2.404,0.984,3.11s1.49,1.06,2.502,1.06c0.528,0,1.053-0.107,1.572-0.321s1.002-0.54,1.449-0.978
		c0.446-0.438,0.827-0.937,1.142-1.497s0.567-1.164,0.759-1.812c0.282-0.902,0.424-1.769,0.424-2.598
		c0-1.312-0.331-2.331-0.991-3.056c-0.661-0.725-1.493-1.087-2.495-1.087c-0.775,0-1.481,0.185-2.119,0.554
		c-0.638,0.369-1.215,0.909-1.729,1.62c-0.515,0.711-0.894,1.538-1.135,2.481C179.337,189.699,179.217,190.54,179.217,191.278z"/>
	<path fill="#FF0000" d="M201.789,194.409c-1.741,1.969-3.523,2.953-5.346,2.953c-1.121,0-2.026-0.321-2.714-0.964
		c-0.688-0.643-1.032-1.429-1.032-2.358c0-0.61,0.155-1.659,0.465-3.145l1.75-8.381h2.475l-1.941,9.283
		c-0.164,0.774-0.246,1.376-0.246,1.805c0,0.547,0.166,0.973,0.499,1.278c0.333,0.306,0.822,0.458,1.47,0.458
		c0.692,0,1.369-0.169,2.03-0.506c0.661-0.337,1.23-0.793,1.709-1.367s0.868-1.253,1.169-2.037c0.2-0.501,0.433-1.381,0.697-2.639
		l1.312-6.275h2.475l-3.035,14.52h-2.283L201.789,194.409z"/>
	<path fill="#FF0000" d="M207.449,197.034l3.035-14.52h2.242l-0.533,2.529c0.975-0.993,1.887-1.718,2.734-2.174
		s1.713-0.684,2.598-0.684c1.176,0,2.099,0.319,2.769,0.957s1.005,1.49,1.005,2.557c0,0.538-0.119,1.386-0.355,2.543l-1.846,8.791
		h-2.475l1.928-9.201c0.191-0.894,0.287-1.554,0.287-1.982c0-0.483-0.167-0.875-0.499-1.176c-0.333-0.301-0.813-0.451-1.442-0.451
		c-1.267,0-2.395,0.456-3.384,1.367c-0.989,0.911-1.716,2.475-2.181,4.689l-1.408,6.754H207.449z"/>
	<path fill="#FF0000" d="M232.81,194.928c-1.413,1.622-2.89,2.434-4.43,2.434c-1.376,0-2.522-0.508-3.438-1.524
		s-1.374-2.49-1.374-4.423c0-1.769,0.362-3.384,1.087-4.847s1.631-2.559,2.721-3.288c1.089-0.729,2.181-1.094,3.274-1.094
		c1.805,0,3.167,0.87,4.088,2.611l1.641-7.807h2.461l-4.184,20.043h-2.283L232.81,194.928z M226.029,190.95
		c0,1.012,0.1,1.81,0.301,2.393c0.2,0.583,0.542,1.068,1.025,1.456c0.483,0.388,1.062,0.581,1.736,0.581
		c1.121,0,2.137-0.583,3.049-1.75c1.221-1.55,1.832-3.464,1.832-5.742c0-1.148-0.301-2.046-0.902-2.693s-1.358-0.971-2.27-0.971
		c-0.593,0-1.133,0.132-1.62,0.396c-0.488,0.265-0.971,0.713-1.449,1.347s-0.882,1.438-1.21,2.413S226.029,190.212,226.029,190.95z"
		/>
	<path fill="#FF0000" d="M248.615,191.743l2.475,0.26c-0.62,1.813-1.502,3.16-2.646,4.04c-1.144,0.88-2.445,1.319-3.903,1.319
		c-1.577,0-2.855-0.511-3.835-1.531c-0.98-1.021-1.47-2.447-1.47-4.279c0-1.586,0.314-3.145,0.943-4.676s1.529-2.695,2.7-3.493
		c1.171-0.798,2.509-1.196,4.013-1.196c1.559,0,2.793,0.439,3.705,1.319c0.911,0.88,1.367,2.044,1.367,3.493l-2.434,0.164
		c-0.009-0.921-0.276-1.641-0.8-2.16c-0.524-0.52-1.215-0.779-2.071-0.779c-0.994,0-1.855,0.314-2.584,0.943
		c-0.729,0.629-1.301,1.584-1.716,2.864c-0.415,1.28-0.622,2.514-0.622,3.698c0,1.239,0.273,2.169,0.82,2.789s1.221,0.93,2.023,0.93
		c0.802,0,1.57-0.306,2.304-0.916C247.619,193.922,248.196,192.992,248.615,191.743z"/>
	<path fill="#FF0000" d="M252.402,197.034l4.184-20.043h2.475l-4.184,20.043H252.402z"/>
	<path fill="#FF0000" d="M259.252,191.524c0-2.835,0.834-5.182,2.502-7.041c1.376-1.531,3.181-2.297,5.414-2.297
		c1.75,0,3.16,0.547,4.231,1.641c1.071,1.094,1.606,2.57,1.606,4.43c0,1.668-0.337,3.22-1.012,4.655
		c-0.675,1.436-1.634,2.536-2.878,3.302s-2.555,1.148-3.931,1.148c-1.13,0-2.158-0.241-3.083-0.725
		c-0.925-0.483-1.632-1.167-2.119-2.051C259.495,193.703,259.252,192.681,259.252,191.524z M261.726,191.278
		c0,1.367,0.328,2.404,0.984,3.11s1.49,1.06,2.502,1.06c0.528,0,1.053-0.107,1.572-0.321s1.002-0.54,1.449-0.978
		c0.446-0.438,0.827-0.937,1.142-1.497s0.567-1.164,0.759-1.812c0.282-0.902,0.424-1.769,0.424-2.598
		c0-1.312-0.331-2.331-0.991-3.056c-0.661-0.725-1.493-1.087-2.495-1.087c-0.775,0-1.481,0.185-2.119,0.554
		c-0.638,0.369-1.215,0.909-1.729,1.62c-0.515,0.711-0.894,1.538-1.135,2.481C261.847,189.699,261.726,190.54,261.726,191.278z"/>
	<path fill="#FF0000" d="M284.299,194.409c-1.741,1.969-3.523,2.953-5.346,2.953c-1.121,0-2.026-0.321-2.714-0.964
		c-0.688-0.643-1.032-1.429-1.032-2.358c0-0.61,0.155-1.659,0.465-3.145l1.75-8.381h2.475l-1.941,9.283
		c-0.164,0.774-0.246,1.376-0.246,1.805c0,0.547,0.166,0.973,0.499,1.278c0.333,0.306,0.822,0.458,1.47,0.458
		c0.692,0,1.369-0.169,2.03-0.506c0.661-0.337,1.23-0.793,1.709-1.367s0.868-1.253,1.169-2.037c0.2-0.501,0.433-1.381,0.697-2.639
		l1.312-6.275h2.475l-3.035,14.52h-2.283L284.299,194.409z"/>
	<path fill="#FF0000" d="M299.748,194.928c-1.413,1.622-2.89,2.434-4.43,2.434c-1.376,0-2.522-0.508-3.438-1.524
		s-1.374-2.49-1.374-4.423c0-1.769,0.362-3.384,1.087-4.847s1.631-2.559,2.721-3.288c1.089-0.729,2.181-1.094,3.274-1.094
		c1.805,0,3.167,0.87,4.088,2.611l1.641-7.807h2.461l-4.184,20.043h-2.283L299.748,194.928z M292.967,190.95
		c0,1.012,0.1,1.81,0.301,2.393c0.2,0.583,0.542,1.068,1.025,1.456c0.483,0.388,1.062,0.581,1.736,0.581
		c1.121,0,2.137-0.583,3.049-1.75c1.221-1.55,1.832-3.464,1.832-5.742c0-1.148-0.301-2.046-0.902-2.693s-1.358-0.971-2.27-0.971
		c-0.593,0-1.133,0.132-1.62,0.396c-0.488,0.265-0.971,0.713-1.449,1.347s-0.882,1.438-1.21,2.413S292.967,190.212,292.967,190.95z"
		/>
	<path fill="#FF0000" d="M306.215,197.034l0.588-2.803h2.803l-0.602,2.803H306.215z"/>
	<path fill="#FF0000" d="M323.332,191.743l2.475,0.26c-0.621,1.813-1.502,3.16-2.646,4.04c-1.144,0.88-2.445,1.319-3.903,1.319
		c-1.577,0-2.855-0.511-3.835-1.531c-0.98-1.021-1.47-2.447-1.47-4.279c0-1.586,0.314-3.145,0.943-4.676s1.529-2.695,2.7-3.493
		c1.171-0.798,2.509-1.196,4.013-1.196c1.559,0,2.793,0.439,3.705,1.319c0.91,0.88,1.367,2.044,1.367,3.493l-2.434,0.164
		c-0.01-0.921-0.276-1.641-0.801-2.16c-0.523-0.52-1.215-0.779-2.071-0.779c-0.994,0-1.855,0.314-2.584,0.943
		c-0.729,0.629-1.301,1.584-1.716,2.864c-0.415,1.28-0.622,2.514-0.622,3.698c0,1.239,0.273,2.169,0.82,2.789s1.221,0.93,2.023,0.93
		c0.802,0,1.57-0.306,2.303-0.916C322.336,193.922,322.912,192.992,323.332,191.743z"/>
	<path fill="#FF0000" d="M327.748,191.524c0-2.835,0.834-5.182,2.502-7.041c1.375-1.531,3.18-2.297,5.414-2.297
		c1.75,0,3.16,0.547,4.23,1.641c1.071,1.094,1.607,2.57,1.607,4.43c0,1.668-0.338,3.22-1.012,4.655
		c-0.676,1.436-1.635,2.536-2.879,3.302s-2.555,1.148-3.93,1.148c-1.131,0-2.158-0.241-3.084-0.725
		c-0.925-0.483-1.631-1.167-2.119-2.051C327.991,193.703,327.748,192.681,327.748,191.524z M330.223,191.278
		c0,1.367,0.328,2.404,0.984,3.11s1.49,1.06,2.502,1.06c0.527,0,1.053-0.107,1.572-0.321s1.002-0.54,1.449-0.978
		c0.445-0.438,0.826-0.937,1.141-1.497s0.568-1.164,0.76-1.812c0.281-0.902,0.424-1.769,0.424-2.598
		c0-1.312-0.331-2.331-0.992-3.056c-0.66-0.725-1.492-1.087-2.494-1.087c-0.775,0-1.482,0.185-2.119,0.554
		c-0.639,0.369-1.215,0.909-1.73,1.62c-0.515,0.711-0.893,1.538-1.135,2.481C330.343,189.699,330.223,190.54,330.223,191.278z"/>
	<path fill="#FF0000" d="M342.869,197.034l3.035-14.52h2.475l-0.506,2.393c0.92-1.03,1.742-1.741,2.467-2.133
		s1.512-0.588,2.359-0.588c0.902,0,1.656,0.239,2.262,0.718c0.606,0.479,1.006,1.146,1.197,2.003
		c0.738-0.911,1.515-1.593,2.33-2.044c0.816-0.451,1.676-0.677,2.578-0.677c1.211,0,2.121,0.287,2.727,0.861
		c0.606,0.574,0.91,1.381,0.91,2.42c0,0.446-0.105,1.185-0.314,2.215l-1.955,9.352h-2.475l1.996-9.598
		c0.172-0.784,0.26-1.345,0.26-1.682c0-0.474-0.15-0.848-0.451-1.121s-0.725-0.41-1.271-0.41c-0.738,0-1.49,0.224-2.256,0.67
		s-1.361,1.032-1.785,1.757s-0.795,1.839-1.113,3.343l-1.477,7.041h-2.475l2.051-9.803c0.145-0.665,0.219-1.14,0.219-1.422
		c0-0.474-0.148-0.856-0.445-1.148c-0.296-0.292-0.682-0.438-1.154-0.438c-0.703,0-1.438,0.224-2.209,0.67
		c-0.77,0.446-1.396,1.068-1.879,1.866c-0.484,0.798-0.881,1.935-1.189,3.411l-1.436,6.863H342.869z"/>
	<path fill="#FF0000" d="M363.856,197.362l10.773-20.713h2.146l-10.773,20.713H363.856z"/>
	<path fill="#FF0000" d="M383.899,194.409c-1.742,1.969-3.523,2.953-5.346,2.953c-1.121,0-2.026-0.321-2.715-0.964
		c-0.688-0.643-1.031-1.429-1.031-2.358c0-0.61,0.154-1.659,0.465-3.145l1.75-8.381h2.475l-1.941,9.283
		c-0.164,0.774-0.246,1.376-0.246,1.805c0,0.547,0.166,0.973,0.498,1.278c0.333,0.306,0.822,0.458,1.471,0.458
		c0.691,0,1.369-0.169,2.029-0.506c0.661-0.337,1.23-0.793,1.709-1.367s0.869-1.253,1.17-2.037c0.199-0.501,0.432-1.381,0.697-2.639
		l1.312-6.275h2.475l-3.035,14.52h-2.283L383.899,194.409z"/>
	<path fill="#FF0000" d="M389.791,192.071l2.475-0.15c0,0.711,0.109,1.317,0.328,1.818s0.621,0.911,1.209,1.23
		s1.273,0.479,2.059,0.479c1.094,0,1.914-0.219,2.461-0.656s0.82-0.952,0.82-1.545c0-0.429-0.164-0.834-0.492-1.217
		c-0.338-0.383-1.16-0.854-2.469-1.415c-1.308-0.561-2.145-0.955-2.508-1.183c-0.611-0.374-1.072-0.813-1.381-1.319
		c-0.311-0.506-0.465-1.087-0.465-1.743c0-1.148,0.455-2.133,1.367-2.953c0.91-0.82,2.188-1.23,3.828-1.23
		c1.822,0,3.21,0.422,4.162,1.265c0.953,0.843,1.447,1.953,1.484,3.329l-2.42,0.164c-0.037-0.875-0.348-1.567-0.93-2.078
		c-0.584-0.511-1.408-0.766-2.475-0.766c-0.857,0-1.523,0.196-1.996,0.588c-0.475,0.392-0.711,0.815-0.711,1.271
		s0.205,0.856,0.615,1.203c0.273,0.237,0.979,0.602,2.119,1.094c1.895,0.82,3.09,1.468,3.582,1.941
		c0.783,0.757,1.176,1.677,1.176,2.762c0,0.72-0.222,1.427-0.664,2.119c-0.441,0.692-1.116,1.246-2.023,1.661
		c-0.906,0.415-1.975,0.622-3.205,0.622c-1.678,0-3.104-0.415-4.279-1.244S389.727,193.939,389.791,192.071z"/>
	<path fill="#FF0000" d="M414.223,192.098l2.406,0.246c-0.348,1.194-1.143,2.329-2.387,3.404s-2.727,1.613-4.449,1.613
		c-1.076,0-2.062-0.248-2.961-0.745c-0.897-0.497-1.581-1.219-2.051-2.167c-0.469-0.948-0.703-2.028-0.703-3.24
		c0-1.586,0.366-3.124,1.1-4.614c0.734-1.49,1.684-2.598,2.852-3.322c1.166-0.725,2.428-1.087,3.787-1.087
		c1.73,0,3.114,0.538,4.148,1.613c1.035,1.075,1.553,2.543,1.553,4.402c0,0.711-0.064,1.44-0.191,2.188h-10.691
		c-0.037,0.282-0.055,0.538-0.055,0.766c0,1.358,0.312,2.395,0.936,3.11c0.625,0.716,1.389,1.073,2.291,1.073
		c0.848,0,1.682-0.278,2.502-0.834S413.766,193.146,414.223,192.098z M407.031,188.503h8.148c0.008-0.255,0.014-0.438,0.014-0.547
		c0-1.239-0.311-2.189-0.93-2.851c-0.621-0.661-1.418-0.991-2.393-0.991c-1.059,0-2.021,0.364-2.893,1.094
		C408.109,185.937,407.459,187.035,407.031,188.503z"/>
	<path fill="#FF0000" d="M419.131,197.034l3.035-14.52h2.188l-0.615,2.967c0.746-1.121,1.479-1.95,2.193-2.488
		c0.716-0.538,1.447-0.807,2.195-0.807c0.492,0,1.098,0.178,1.818,0.533l-1.012,2.297c-0.43-0.31-0.898-0.465-1.408-0.465
		c-0.867,0-1.756,0.483-2.666,1.449c-0.912,0.966-1.627,2.702-2.146,5.209l-1.23,5.824H419.131z"/>
	<path fill="#FF0000" d="M428.319,191.018l0.52-2.475h7.547l-0.506,2.475H428.319z"/>
	<path fill="#FF0000" d="M437.875,191.784l2.406-0.301c0.182,1.403,0.585,2.408,1.209,3.015c0.625,0.606,1.443,0.909,2.455,0.909
		c1.221,0,2.275-0.438,3.164-1.312s1.334-1.878,1.334-3.008c0-0.984-0.334-1.798-0.998-2.44c-0.666-0.643-1.559-0.964-2.68-0.964
		c-0.129,0-0.393,0.019-0.793,0.055l0.424-2.064c0.236,0.036,0.465,0.055,0.684,0.055c1.412,0,2.499-0.344,3.26-1.032
		c0.762-0.688,1.143-1.533,1.143-2.536c0-0.921-0.312-1.695-0.938-2.324c-0.624-0.629-1.387-0.943-2.289-0.943
		c-0.885,0-1.68,0.321-2.387,0.964c-0.706,0.643-1.16,1.552-1.359,2.728l-2.434-0.492c0.4-1.649,1.17-2.926,2.311-3.828
		c1.139-0.902,2.488-1.354,4.047-1.354c1.641,0,2.969,0.497,3.984,1.49c1.017,0.993,1.525,2.215,1.525,3.664
		c0,1.058-0.276,1.98-0.828,2.769c-0.551,0.788-1.379,1.442-2.48,1.962c0.783,0.465,1.369,1.025,1.756,1.682
		c0.388,0.656,0.582,1.408,0.582,2.256c0,1.796-0.673,3.352-2.018,4.669c-1.344,1.317-2.951,1.976-4.818,1.976
		c-1.814,0-3.279-0.508-4.396-1.524C438.624,194.835,438.002,193.479,437.875,191.784z"/>
	<path fill="#FF0000" d="M453.899,190.458c0-1.695,0.252-3.418,0.758-5.168s1.068-3.149,1.689-4.197
		c0.619-1.048,1.262-1.868,1.928-2.461c0.664-0.593,1.318-1.027,1.961-1.306s1.355-0.417,2.141-0.417
		c1.531,0,2.809,0.569,3.834,1.709s1.539,2.784,1.539,4.936c0,2.215-0.355,4.407-1.066,6.576c-0.84,2.57-2.006,4.498-3.5,5.783
		c-1.148,0.976-2.457,1.463-3.924,1.463c-1.504,0-2.773-0.59-3.809-1.771C454.415,194.425,453.899,192.709,453.899,190.458z
		 M456.291,191.087c0,1.23,0.205,2.192,0.615,2.885c0.555,0.957,1.381,1.436,2.475,1.436c0.957,0,1.826-0.433,2.611-1.299
		c1.129-1.222,1.979-3.01,2.549-5.366c0.57-2.356,0.855-4.281,0.855-5.776c0-1.44-0.276-2.479-0.828-3.117
		c-0.551-0.638-1.277-0.957-2.18-0.957c-0.656,0-1.27,0.169-1.84,0.506c-0.569,0.337-1.113,0.916-1.633,1.736
		c-0.738,1.157-1.381,2.89-1.928,5.195C456.524,188.298,456.291,189.884,456.291,191.087z"/>
	<path fill="#FF0000" d="M469.02,191.784l2.406-0.301c0.182,1.403,0.585,2.408,1.209,3.015c0.625,0.606,1.443,0.909,2.455,0.909
		c1.221,0,2.275-0.438,3.164-1.312s1.334-1.878,1.334-3.008c0-0.984-0.334-1.798-0.998-2.44c-0.666-0.643-1.559-0.964-2.68-0.964
		c-0.129,0-0.393,0.019-0.793,0.055l0.424-2.064c0.236,0.036,0.465,0.055,0.684,0.055c1.412,0,2.499-0.344,3.26-1.032
		c0.762-0.688,1.143-1.533,1.143-2.536c0-0.921-0.312-1.695-0.938-2.324c-0.624-0.629-1.387-0.943-2.289-0.943
		c-0.885,0-1.68,0.321-2.387,0.964c-0.706,0.643-1.16,1.552-1.359,2.728l-2.434-0.492c0.4-1.649,1.17-2.926,2.311-3.828
		c1.139-0.902,2.488-1.354,4.047-1.354c1.641,0,2.969,0.497,3.984,1.49c1.017,0.993,1.525,2.215,1.525,3.664
		c0,1.058-0.276,1.98-0.828,2.769c-0.551,0.788-1.379,1.442-2.48,1.962c0.783,0.465,1.369,1.025,1.756,1.682
		c0.388,0.656,0.582,1.408,0.582,2.256c0,1.796-0.673,3.352-2.018,4.669c-1.344,1.317-2.951,1.976-4.818,1.976
		c-1.814,0-3.279-0.508-4.396-1.524C469.769,194.835,469.147,193.479,469.02,191.784z"/>
	<path fill="#FF0000" d="M484.592,191.784l2.406-0.301c0.182,1.403,0.585,2.408,1.209,3.015c0.625,0.606,1.443,0.909,2.455,0.909
		c1.221,0,2.275-0.438,3.164-1.312s1.334-1.878,1.334-3.008c0-0.984-0.334-1.798-0.998-2.44c-0.666-0.643-1.559-0.964-2.68-0.964
		c-0.129,0-0.393,0.019-0.793,0.055l0.424-2.064c0.236,0.036,0.465,0.055,0.684,0.055c1.412,0,2.499-0.344,3.26-1.032
		c0.762-0.688,1.143-1.533,1.143-2.536c0-0.921-0.312-1.695-0.938-2.324c-0.624-0.629-1.387-0.943-2.289-0.943
		c-0.885,0-1.68,0.321-2.387,0.964c-0.706,0.643-1.16,1.552-1.359,2.728l-2.434-0.492c0.4-1.649,1.17-2.926,2.311-3.828
		c1.139-0.902,2.488-1.354,4.047-1.354c1.641,0,2.969,0.497,3.984,1.49c1.017,0.993,1.525,2.215,1.525,3.664
		c0,1.058-0.275,1.98-0.828,2.769c-0.551,0.788-1.379,1.442-2.48,1.962c0.783,0.465,1.369,1.025,1.756,1.682
		c0.388,0.656,0.582,1.408,0.582,2.256c0,1.796-0.673,3.352-2.018,4.669c-1.344,1.317-2.951,1.976-4.818,1.976
		c-1.814,0-3.279-0.508-4.396-1.524C485.341,194.835,484.719,193.479,484.592,191.784z"/>
	<path fill="#FF0000" d="M502.694,197.034c0.219-1.349,0.684-2.972,1.395-4.867c0.848-2.288,1.959-4.56,3.336-6.815
		c1.375-2.256,2.906-4.195,4.594-5.817h-9.994l0.479-2.27h12.797l-0.465,2.27c-2.17,1.905-4.066,4.361-5.688,7.369
		c-1.887,3.473-3.178,6.85-3.869,10.131H502.694z"/>
	<path fill="#FF0000" d="M516.188,190.458c0-1.695,0.252-3.418,0.758-5.168s1.068-3.149,1.689-4.197
		c0.619-1.048,1.262-1.868,1.928-2.461c0.664-0.593,1.318-1.027,1.961-1.306s1.355-0.417,2.141-0.417
		c1.531,0,2.809,0.569,3.834,1.709s1.539,2.784,1.539,4.936c0,2.215-0.355,4.407-1.066,6.576c-0.84,2.57-2.006,4.498-3.5,5.783
		c-1.148,0.976-2.457,1.463-3.924,1.463c-1.504,0-2.773-0.59-3.809-1.771C516.705,194.425,516.188,192.709,516.188,190.458z
		 M518.58,191.087c0,1.23,0.205,2.192,0.615,2.885c0.555,0.957,1.381,1.436,2.475,1.436c0.957,0,1.826-0.433,2.611-1.299
		c1.129-1.222,1.98-3.01,2.549-5.366c0.57-2.356,0.855-4.281,0.855-5.776c0-1.44-0.275-2.479-0.828-3.117
		c-0.551-0.638-1.277-0.957-2.18-0.957c-0.656,0-1.27,0.169-1.84,0.506c-0.568,0.337-1.113,0.916-1.633,1.736
		c-0.738,1.157-1.381,2.89-1.928,5.195C518.813,188.298,518.58,189.884,518.58,191.087z"/>
	<path fill="#FF0000" d="M531.418,197.034c0.254-1.194,0.607-2.194,1.059-3.001s1.051-1.572,1.799-2.297
		c0.746-0.725,2.188-1.939,4.32-3.644c1.293-1.03,2.178-1.791,2.652-2.283c0.684-0.711,1.18-1.408,1.49-2.092
		c0.209-0.465,0.314-0.971,0.314-1.518c0-0.921-0.326-1.702-0.979-2.345c-0.65-0.643-1.451-0.964-2.398-0.964
		c-0.939,0-1.76,0.326-2.461,0.978c-0.703,0.651-1.203,1.697-1.504,3.138l-2.42-0.355c0.236-1.777,0.928-3.179,2.07-4.204
		c1.145-1.025,2.568-1.538,4.273-1.538c1.139,0,2.172,0.237,3.096,0.711c0.926,0.474,1.621,1.14,2.086,1.996
		s0.697,1.741,0.697,2.652c0,1.331-0.475,2.611-1.422,3.842c-0.584,0.766-2.297,2.274-5.141,4.525
		c-1.223,0.966-2.131,1.759-2.729,2.379c-0.596,0.62-1.045,1.203-1.346,1.75h8.969l-0.479,2.27H531.418z"/>
	<path fill="#FF0000" d="M547.332,190.458c0-1.695,0.252-3.418,0.758-5.168s1.068-3.149,1.689-4.197
		c0.619-1.048,1.262-1.868,1.928-2.461c0.664-0.593,1.318-1.027,1.961-1.306s1.355-0.417,2.141-0.417
		c1.531,0,2.809,0.569,3.834,1.709s1.539,2.784,1.539,4.936c0,2.215-0.355,4.407-1.066,6.576c-0.84,2.57-2.006,4.498-3.5,5.783
		c-1.148,0.976-2.457,1.463-3.924,1.463c-1.504,0-2.773-0.59-3.809-1.771C547.85,194.425,547.332,192.709,547.332,190.458z
		 M549.725,191.087c0,1.23,0.205,2.192,0.615,2.885c0.555,0.957,1.381,1.436,2.475,1.436c0.957,0,1.826-0.433,2.611-1.299
		c1.129-1.222,1.98-3.01,2.549-5.366c0.57-2.356,0.855-4.281,0.855-5.776c0-1.44-0.275-2.479-0.828-3.117
		c-0.551-0.638-1.277-0.957-2.18-0.957c-0.656,0-1.27,0.169-1.84,0.506c-0.568,0.337-1.113,0.916-1.633,1.736
		c-0.738,1.157-1.381,2.89-1.928,5.195C549.957,188.298,549.725,189.884,549.725,191.087z"/>
	<path fill="#FF0000" d="M569.289,197.034l1.08-5.113h-8.176l0.52-2.447l11.225-12.482h2.023l-2.666,12.742h2.816l-0.451,2.188
		h-2.816l-1.08,5.113H569.289z M570.821,189.733l1.75-8.367l-7.465,8.367H570.821z"/>
	<path fill="#FF0000" d="M77.334,201.026v-2.051h499.161v2.051H77.334z"/>
</g>
<g>
	<path fill="#FF0000" d="M75.912,233.362l10.773-20.713h2.146l-10.773,20.713H75.912z"/>
	<path fill="#FF0000" d="M91.826,231.024l-0.41,2.023c-0.593,0.155-1.167,0.232-1.723,0.232c-0.984,0-1.769-0.241-2.352-0.725
		c-0.438-0.364-0.656-0.861-0.656-1.49c0-0.319,0.118-1.053,0.355-2.201l1.764-8.436h-1.955l0.396-1.914h1.955l0.752-3.568
		l2.83-1.709l-1.107,5.277h2.434l-0.41,1.914h-2.42l-1.682,8.025c-0.21,1.021-0.314,1.632-0.314,1.832
		c0,0.292,0.084,0.515,0.253,0.67c0.168,0.155,0.444,0.232,0.827,0.232C90.91,231.188,91.397,231.134,91.826,231.024z"/>
	<path fill="#FF0000" d="M93.822,233.034l4.184-20.043h2.475l-1.6,7.697c0.92-0.894,1.777-1.533,2.57-1.921s1.608-0.581,2.447-0.581
		c1.203,0,2.137,0.316,2.803,0.95c0.665,0.634,0.998,1.47,0.998,2.509c0,0.511-0.146,1.449-0.438,2.816l-1.791,8.572h-2.475
		l1.846-8.791c0.264-1.276,0.396-2.078,0.396-2.406c0-0.474-0.164-0.861-0.492-1.162s-0.802-0.451-1.422-0.451
		c-0.894,0-1.746,0.234-2.557,0.704c-0.812,0.47-1.447,1.112-1.907,1.928c-0.46,0.815-0.882,2.131-1.265,3.944l-1.299,6.234H93.822z
		"/>
	<path fill="#FF0000" d="M120.058,228.098l2.406,0.246c-0.347,1.194-1.142,2.329-2.386,3.404s-2.728,1.613-4.45,1.613
		c-1.076,0-2.062-0.248-2.96-0.745c-0.898-0.497-1.582-1.219-2.051-2.167c-0.47-0.948-0.704-2.028-0.704-3.24
		c0-1.586,0.367-3.124,1.101-4.614c0.733-1.49,1.684-2.598,2.851-3.322c1.167-0.725,2.429-1.087,3.787-1.087
		c1.731,0,3.115,0.538,4.149,1.613c1.034,1.075,1.552,2.543,1.552,4.402c0,0.711-0.064,1.44-0.191,2.188H112.47
		c-0.037,0.282-0.055,0.538-0.055,0.766c0,1.358,0.312,2.395,0.937,3.11c0.624,0.716,1.388,1.073,2.29,1.073
		c0.848,0,1.682-0.278,2.502-0.834S119.602,229.146,120.058,228.098z M112.867,224.503h8.148c0.009-0.255,0.014-0.438,0.014-0.547
		c0-1.239-0.31-2.189-0.93-2.851c-0.62-0.661-1.417-0.991-2.393-0.991c-1.058,0-2.021,0.364-2.892,1.094
		C113.945,221.937,113.295,223.035,112.867,224.503z"/>
	<path fill="#FF0000" d="M125.336,227.018l0.52-2.475h7.547l-0.506,2.475H125.336z"/>
	<path fill="#FF0000" d="M134.277,233.034l3.035-14.52h2.475l-0.506,2.393c0.92-1.03,1.743-1.741,2.468-2.133
		s1.511-0.588,2.358-0.588c0.902,0,1.656,0.239,2.263,0.718c0.606,0.479,1.005,1.146,1.196,2.003
		c0.738-0.911,1.515-1.593,2.331-2.044c0.815-0.451,1.675-0.677,2.577-0.677c1.212,0,2.121,0.287,2.728,0.861
		c0.606,0.574,0.909,1.381,0.909,2.42c0,0.446-0.105,1.185-0.314,2.215l-1.955,9.352h-2.475l1.996-9.598
		c0.173-0.784,0.26-1.345,0.26-1.682c0-0.474-0.15-0.848-0.451-1.121s-0.725-0.41-1.271-0.41c-0.738,0-1.49,0.224-2.256,0.67
		s-1.36,1.032-1.784,1.757s-0.795,1.839-1.114,3.343l-1.477,7.041h-2.475l2.051-9.803c0.146-0.665,0.219-1.14,0.219-1.422
		c0-0.474-0.148-0.856-0.444-1.148c-0.296-0.292-0.682-0.438-1.155-0.438c-0.702,0-1.438,0.224-2.208,0.67
		c-0.771,0.446-1.397,1.068-1.88,1.866c-0.483,0.798-0.88,1.935-1.189,3.411l-1.436,6.863H134.277z"/>
	<path fill="#FF0000" d="M157.519,233.034l3.035-14.52h2.475l-3.035,14.52H157.519z M161.129,215.794l0.588-2.803h2.461
		l-0.588,2.803H161.129z"/>
	<path fill="#FF0000" d="M163.644,233.034l4.184-20.043h2.475l-4.184,20.043H163.644z"/>
	<path fill="#FF0000" d="M169.865,233.034l4.184-20.043h2.475l-4.184,20.043H169.865z"/>
	<path fill="#FF0000" d="M176.646,227.018l0.52-2.475h7.547l-0.506,2.475H176.646z"/>
	<path fill="#FF0000" d="M185.506,233.034l3.035-14.52h2.475l-3.035,14.52H185.506z M189.115,215.794l0.588-2.803h2.461
		l-0.588,2.803H189.115z"/>
	<path fill="#FF0000" d="M191.822,233.034l3.035-14.52h2.242l-0.533,2.529c0.975-0.993,1.887-1.718,2.734-2.174
		s1.713-0.684,2.598-0.684c1.176,0,2.099,0.319,2.769,0.957s1.005,1.49,1.005,2.557c0,0.538-0.119,1.386-0.355,2.543l-1.846,8.791
		h-2.475l1.928-9.201c0.191-0.894,0.287-1.554,0.287-1.982c0-0.483-0.167-0.875-0.499-1.176c-0.333-0.301-0.813-0.451-1.442-0.451
		c-1.267,0-2.395,0.456-3.384,1.367c-0.989,0.911-1.716,2.475-2.181,4.689l-1.408,6.754H191.822z"/>
	<path fill="#FF0000" d="M207.763,227.018l0.52-2.475h7.547l-0.506,2.475H207.763z"/>
	<path fill="#FF0000" d="M226.74,227.743l2.475,0.26c-0.62,1.813-1.502,3.16-2.646,4.04c-1.144,0.88-2.445,1.319-3.903,1.319
		c-1.577,0-2.855-0.511-3.835-1.531c-0.98-1.021-1.47-2.447-1.47-4.279c0-1.586,0.314-3.145,0.943-4.676s1.529-2.695,2.7-3.493
		c1.171-0.798,2.509-1.196,4.013-1.196c1.559,0,2.793,0.439,3.705,1.319c0.911,0.88,1.367,2.044,1.367,3.493l-2.434,0.164
		c-0.009-0.921-0.276-1.641-0.8-2.16c-0.524-0.52-1.215-0.779-2.071-0.779c-0.994,0-1.855,0.314-2.584,0.943
		c-0.729,0.629-1.301,1.584-1.716,2.864c-0.415,1.28-0.622,2.514-0.622,3.698c0,1.239,0.273,2.169,0.82,2.789s1.221,0.93,2.023,0.93
		c0.802,0,1.57-0.306,2.304-0.916C225.744,229.922,226.321,228.992,226.74,227.743z"/>
	<path fill="#FF0000" d="M231.156,227.524c0-2.835,0.834-5.182,2.502-7.041c1.376-1.531,3.181-2.297,5.414-2.297
		c1.75,0,3.16,0.547,4.231,1.641c1.071,1.094,1.606,2.57,1.606,4.43c0,1.668-0.337,3.22-1.012,4.655
		c-0.675,1.436-1.634,2.536-2.878,3.302s-2.555,1.148-3.931,1.148c-1.13,0-2.158-0.241-3.083-0.725
		c-0.925-0.483-1.632-1.167-2.119-2.051C231.4,229.703,231.156,228.681,231.156,227.524z M233.631,227.278
		c0,1.367,0.328,2.404,0.984,3.11s1.49,1.06,2.502,1.06c0.528,0,1.053-0.107,1.572-0.321s1.002-0.54,1.449-0.978
		c0.446-0.438,0.827-0.937,1.142-1.497s0.567-1.164,0.759-1.812c0.282-0.902,0.424-1.769,0.424-2.598
		c0-1.312-0.331-2.331-0.991-3.056c-0.661-0.725-1.493-1.087-2.495-1.087c-0.775,0-1.481,0.185-2.119,0.554
		c-0.638,0.369-1.215,0.909-1.729,1.62c-0.515,0.711-0.894,1.538-1.135,2.481C233.751,225.699,233.631,226.54,233.631,227.278z"/>
	<path fill="#FF0000" d="M246.291,233.034l3.035-14.52h2.242l-0.533,2.529c0.975-0.993,1.887-1.718,2.734-2.174
		s1.713-0.684,2.598-0.684c1.176,0,2.099,0.319,2.769,0.957s1.005,1.49,1.005,2.557c0,0.538-0.119,1.386-0.355,2.543l-1.846,8.791
		h-2.475l1.928-9.201c0.191-0.894,0.287-1.554,0.287-1.982c0-0.483-0.167-0.875-0.499-1.176c-0.333-0.301-0.813-0.451-1.442-0.451
		c-1.267,0-2.395,0.456-3.384,1.367c-0.989,0.911-1.716,2.475-2.181,4.689l-1.408,6.754H246.291z"/>
	<path fill="#FF0000" d="M265.527,233.034l-2.379-14.52h2.406l1.244,7.998c0.137,0.875,0.305,2.302,0.506,4.279
		c0.474-1.03,1.08-2.21,1.818-3.541l4.854-8.736h2.611l-8.312,14.52H265.527z"/>
	<path fill="#FF0000" d="M286.527,228.098l2.406,0.246c-0.347,1.194-1.142,2.329-2.386,3.404s-2.728,1.613-4.45,1.613
		c-1.076,0-2.062-0.248-2.96-0.745c-0.898-0.497-1.582-1.219-2.051-2.167c-0.47-0.948-0.704-2.028-0.704-3.24
		c0-1.586,0.367-3.124,1.101-4.614c0.733-1.49,1.684-2.598,2.851-3.322c1.167-0.725,2.429-1.087,3.787-1.087
		c1.731,0,3.115,0.538,4.149,1.613c1.034,1.075,1.552,2.543,1.552,4.402c0,0.711-0.064,1.44-0.191,2.188h-10.691
		c-0.037,0.282-0.055,0.538-0.055,0.766c0,1.358,0.312,2.395,0.937,3.11c0.624,0.716,1.388,1.073,2.29,1.073
		c0.848,0,1.682-0.278,2.502-0.834S286.071,229.146,286.527,228.098z M279.336,224.503h8.148c0.009-0.255,0.014-0.438,0.014-0.547
		c0-1.239-0.31-2.189-0.93-2.851c-0.62-0.661-1.417-0.991-2.393-0.991c-1.058,0-2.021,0.364-2.892,1.094
		C280.413,221.937,279.764,223.035,279.336,224.503z"/>
	<path fill="#FF0000" d="M291.435,233.034l3.035-14.52h2.188l-0.615,2.967c0.747-1.121,1.479-1.95,2.194-2.488
		c0.715-0.538,1.447-0.807,2.194-0.807c0.492,0,1.098,0.178,1.818,0.533l-1.012,2.297c-0.429-0.31-0.898-0.465-1.408-0.465
		c-0.866,0-1.755,0.483-2.666,1.449c-0.912,0.966-1.627,2.702-2.146,5.209l-1.23,5.824H291.435z"/>
	<path fill="#FF0000" d="M300.992,228.071l2.475-0.15c0,0.711,0.109,1.317,0.328,1.818s0.622,0.911,1.21,1.23
		s1.273,0.479,2.058,0.479c1.094,0,1.914-0.219,2.461-0.656s0.82-0.952,0.82-1.545c0-0.429-0.164-0.834-0.492-1.217
		c-0.337-0.383-1.16-0.854-2.468-1.415c-1.308-0.561-2.145-0.955-2.509-1.183c-0.611-0.374-1.071-0.813-1.381-1.319
		c-0.31-0.506-0.465-1.087-0.465-1.743c0-1.148,0.456-2.133,1.367-2.953c0.911-0.82,2.188-1.23,3.828-1.23
		c1.823,0,3.21,0.422,4.163,1.265c0.952,0.843,1.447,1.953,1.483,3.329l-2.42,0.164c-0.037-0.875-0.347-1.567-0.93-2.078
		c-0.583-0.511-1.408-0.766-2.475-0.766c-0.857,0-1.522,0.196-1.996,0.588c-0.474,0.392-0.711,0.815-0.711,1.271
		s0.205,0.856,0.615,1.203c0.273,0.237,0.979,0.602,2.119,1.094c1.896,0.82,3.09,1.468,3.582,1.941
		c0.784,0.757,1.176,1.677,1.176,2.762c0,0.72-0.221,1.427-0.663,2.119c-0.442,0.692-1.117,1.246-2.023,1.661
		c-0.907,0.415-1.976,0.622-3.206,0.622c-1.677,0-3.104-0.415-4.279-1.244S300.928,229.939,300.992,228.071z"/>
	<path fill="#FF0000" d="M324.549,231.229c-0.857,0.738-1.682,1.278-2.475,1.62c-0.793,0.342-1.641,0.513-2.543,0.513
		c-1.34,0-2.42-0.395-3.24-1.183s-1.23-1.798-1.23-3.028c0-0.812,0.185-1.529,0.554-2.153s0.859-1.126,1.47-1.504
		c0.61-0.378,1.358-0.649,2.242-0.813c0.556-0.109,1.611-0.196,3.165-0.26c1.555-0.063,2.668-0.228,3.344-0.492
		c0.191-0.675,0.287-1.235,0.287-1.682c0-0.574-0.211-1.025-0.629-1.354c-0.574-0.456-1.414-0.684-2.516-0.684
		c-1.039,0-1.89,0.23-2.55,0.69c-0.661,0.46-1.142,1.114-1.442,1.962l-2.502-0.219c0.51-1.44,1.319-2.543,2.427-3.309
		s2.504-1.148,4.191-1.148c1.795,0,3.217,0.429,4.266,1.285c0.801,0.638,1.203,1.468,1.203,2.488c0,0.774-0.115,1.673-0.342,2.693
		l-0.807,3.609c-0.256,1.148-0.383,2.083-0.383,2.803c0,0.456,0.1,1.112,0.301,1.969h-2.502
		C324.699,232.56,324.604,231.959,324.549,231.229z M325.465,225.678c-0.348,0.137-0.719,0.241-1.115,0.314s-1.059,0.15-1.988,0.232
		c-1.441,0.128-2.457,0.289-3.049,0.485c-0.593,0.196-1.039,0.508-1.34,0.937s-0.451,0.902-0.451,1.422
		c0,0.692,0.239,1.263,0.718,1.709s1.16,0.67,2.044,0.67c0.82,0,1.608-0.217,2.366-0.649c0.756-0.433,1.354-1.037,1.791-1.812
		S325.219,227.109,325.465,225.678z"/>
	<path fill="#FF0000" d="M336.115,231.024l-0.41,2.023c-0.594,0.155-1.168,0.232-1.723,0.232c-0.984,0-1.77-0.241-2.352-0.725
		c-0.438-0.364-0.656-0.861-0.656-1.49c0-0.319,0.117-1.053,0.355-2.201l1.764-8.436h-1.955l0.396-1.914h1.955l0.752-3.568
		l2.83-1.709l-1.107,5.277h2.434l-0.41,1.914h-2.42l-1.682,8.025c-0.211,1.021-0.314,1.632-0.314,1.832
		c0,0.292,0.084,0.515,0.252,0.67c0.169,0.155,0.445,0.232,0.828,0.232C335.199,231.188,335.686,231.134,336.115,231.024z"/>
	<path fill="#FF0000" d="M338.016,233.034l3.035-14.52h2.475l-3.035,14.52H338.016z M341.625,215.794l0.588-2.803h2.461
		l-0.588,2.803H341.625z"/>
	<path fill="#FF0000" d="M344.77,227.524c0-2.835,0.834-5.182,2.502-7.041c1.375-1.531,3.18-2.297,5.414-2.297
		c1.75,0,3.16,0.547,4.23,1.641c1.071,1.094,1.607,2.57,1.607,4.43c0,1.668-0.338,3.22-1.012,4.655
		c-0.676,1.436-1.635,2.536-2.879,3.302s-2.555,1.148-3.93,1.148c-1.131,0-2.158-0.241-3.084-0.725
		c-0.925-0.483-1.631-1.167-2.119-2.051C345.013,229.703,344.77,228.681,344.77,227.524z M347.244,227.278
		c0,1.367,0.328,2.404,0.984,3.11s1.49,1.06,2.502,1.06c0.527,0,1.053-0.107,1.572-0.321s1.002-0.54,1.449-0.978
		c0.445-0.438,0.826-0.937,1.141-1.497s0.568-1.164,0.76-1.812c0.281-0.902,0.424-1.769,0.424-2.598
		c0-1.312-0.331-2.331-0.992-3.056c-0.66-0.725-1.492-1.087-2.494-1.087c-0.775,0-1.482,0.185-2.119,0.554
		c-0.639,0.369-1.215,0.909-1.73,1.62c-0.515,0.711-0.893,1.538-1.135,2.481C347.365,225.699,347.244,226.54,347.244,227.278z"/>
	<path fill="#FF0000" d="M359.905,233.034l3.035-14.52h2.242l-0.533,2.529c0.975-0.993,1.887-1.718,2.734-2.174
		s1.713-0.684,2.598-0.684c1.176,0,2.098,0.319,2.768,0.957s1.006,1.49,1.006,2.557c0,0.538-0.119,1.386-0.355,2.543l-1.846,8.791
		h-2.475l1.928-9.201c0.191-0.894,0.287-1.554,0.287-1.982c0-0.483-0.167-0.875-0.5-1.176c-0.332-0.301-0.812-0.451-1.441-0.451
		c-1.268,0-2.396,0.456-3.385,1.367c-0.988,0.911-1.715,2.475-2.18,4.689l-1.408,6.754H359.905z"/>
	<path fill="#FF0000" d="M375.846,227.018l0.52-2.475h7.547l-0.506,2.475H375.846z"/>
	<path fill="#FF0000" d="M390.584,231.024l-0.41,2.023c-0.594,0.155-1.168,0.232-1.723,0.232c-0.984,0-1.77-0.241-2.352-0.725
		c-0.438-0.364-0.656-0.861-0.656-1.49c0-0.319,0.117-1.053,0.355-2.201l1.764-8.436h-1.955l0.396-1.914h1.955l0.752-3.568
		l2.83-1.709l-1.107,5.277h2.434l-0.41,1.914h-2.42l-1.682,8.025c-0.211,1.021-0.314,1.632-0.314,1.832
		c0,0.292,0.084,0.515,0.252,0.67c0.169,0.155,0.445,0.232,0.828,0.232C389.668,231.188,390.155,231.134,390.584,231.024z"/>
	<path fill="#FF0000" d="M392.58,233.034l4.184-20.043h2.475l-1.6,7.697c0.92-0.894,1.777-1.533,2.57-1.921s1.607-0.581,2.447-0.581
		c1.203,0,2.137,0.316,2.803,0.95c0.664,0.634,0.998,1.47,0.998,2.509c0,0.511-0.146,1.449-0.438,2.816l-1.791,8.572h-2.475
		l1.846-8.791c0.264-1.276,0.396-2.078,0.396-2.406c0-0.474-0.164-0.861-0.492-1.162s-0.803-0.451-1.422-0.451
		c-0.895,0-1.746,0.234-2.557,0.704c-0.812,0.47-1.447,1.112-1.908,1.928c-0.46,0.815-0.881,2.131-1.264,3.944l-1.299,6.234H392.58z
		"/>
	<path fill="#FF0000" d="M418.817,228.098l2.406,0.246c-0.348,1.194-1.143,2.329-2.387,3.404s-2.727,1.613-4.449,1.613
		c-1.076,0-2.062-0.248-2.961-0.745c-0.897-0.497-1.581-1.219-2.051-2.167c-0.469-0.948-0.703-2.028-0.703-3.24
		c0-1.586,0.366-3.124,1.1-4.614c0.734-1.49,1.684-2.598,2.852-3.322c1.166-0.725,2.428-1.087,3.787-1.087
		c1.73,0,3.114,0.538,4.148,1.613c1.035,1.075,1.553,2.543,1.553,4.402c0,0.711-0.064,1.44-0.191,2.188h-10.691
		c-0.037,0.282-0.055,0.538-0.055,0.766c0,1.358,0.312,2.395,0.936,3.11c0.625,0.716,1.389,1.073,2.291,1.073
		c0.848,0,1.682-0.278,2.502-0.834S418.36,229.146,418.817,228.098z M411.625,224.503h8.148c0.008-0.255,0.014-0.438,0.014-0.547
		c0-1.239-0.311-2.189-0.93-2.851c-0.621-0.661-1.418-0.991-2.393-0.991c-1.059,0-2.021,0.364-2.893,1.094
		C412.702,221.937,412.053,223.035,411.625,224.503z"/>
	<path fill="#FF0000" d="M424.094,227.018l0.52-2.475h7.547l-0.506,2.475H424.094z"/>
	<path fill="#FF0000" d="M433.049,233.034l4.184-20.043h2.475l-1.49,7.164c0.783-0.72,1.494-1.229,2.133-1.524
		c0.637-0.296,1.303-0.444,1.996-0.444c1.357,0,2.49,0.506,3.396,1.518c0.907,1.012,1.361,2.483,1.361,4.416
		c0,1.285-0.184,2.461-0.547,3.527c-0.365,1.066-0.816,1.962-1.354,2.687c-0.539,0.725-1.094,1.304-1.668,1.736
		s-1.162,0.757-1.764,0.971s-1.182,0.321-1.736,0.321c-0.957,0-1.801-0.253-2.529-0.759c-0.73-0.506-1.299-1.278-1.709-2.317
		l-0.574,2.748H433.049z M436.713,227.073l-0.014,0.465c0,1.239,0.295,2.183,0.889,2.83c0.592,0.647,1.33,0.971,2.215,0.971
		c0.865,0,1.66-0.303,2.385-0.909s1.32-1.552,1.785-2.837s0.697-2.47,0.697-3.555c0-1.222-0.295-2.169-0.883-2.844
		s-1.314-1.012-2.18-1.012c-0.895,0-1.715,0.344-2.461,1.032c-0.748,0.688-1.373,1.748-1.873,3.179
		C436.899,225.46,436.713,226.353,436.713,227.073z"/>
	<path fill="#FF0000" d="M458.41,231.229c-0.857,0.738-1.682,1.278-2.475,1.62s-1.641,0.513-2.543,0.513
		c-1.34,0-2.42-0.395-3.24-1.183s-1.23-1.798-1.23-3.028c0-0.812,0.184-1.529,0.553-2.153s0.859-1.126,1.471-1.504
		c0.609-0.378,1.357-0.649,2.242-0.813c0.555-0.109,1.61-0.196,3.164-0.26c1.555-0.063,2.668-0.228,3.344-0.492
		c0.191-0.675,0.287-1.235,0.287-1.682c0-0.574-0.211-1.025-0.629-1.354c-0.574-0.456-1.414-0.684-2.516-0.684
		c-1.039,0-1.89,0.23-2.551,0.69c-0.66,0.46-1.141,1.114-1.441,1.962l-2.502-0.219c0.51-1.44,1.318-2.543,2.426-3.309
		s2.504-1.148,4.191-1.148c1.795,0,3.217,0.429,4.266,1.285c0.801,0.638,1.203,1.468,1.203,2.488c0,0.774-0.115,1.673-0.342,2.693
		l-0.807,3.609c-0.256,1.148-0.383,2.083-0.383,2.803c0,0.456,0.1,1.112,0.301,1.969h-2.502
		C458.561,232.56,458.465,231.959,458.41,231.229z M459.326,225.678c-0.348,0.137-0.719,0.241-1.115,0.314s-1.059,0.15-1.988,0.232
		c-1.441,0.128-2.457,0.289-3.049,0.485c-0.594,0.196-1.039,0.508-1.34,0.937s-0.451,0.902-0.451,1.422
		c0,0.692,0.238,1.263,0.717,1.709s1.16,0.67,2.045,0.67c0.82,0,1.607-0.217,2.365-0.649c0.756-0.433,1.354-1.037,1.791-1.812
		S459.08,227.109,459.326,225.678z"/>
	<path fill="#FF0000" d="M464.098,233.034l3.035-14.52h2.475l-3.035,14.52H464.098z M467.707,215.794l0.588-2.803h2.461
		l-0.588,2.803H467.707z"/>
	<path fill="#FF0000" d="M476.198,231.024l-0.41,2.023c-0.594,0.155-1.168,0.232-1.723,0.232c-0.984,0-1.77-0.241-2.352-0.725
		c-0.438-0.364-0.656-0.861-0.656-1.49c0-0.319,0.117-1.053,0.355-2.201l1.764-8.436h-1.955l0.396-1.914h1.955l0.752-3.568
		l2.83-1.709l-1.107,5.277h2.434l-0.41,1.914h-2.42l-1.682,8.025c-0.211,1.021-0.314,1.632-0.314,1.832
		c0,0.292,0.084,0.515,0.252,0.67c0.169,0.155,0.445,0.232,0.828,0.232C475.281,231.188,475.768,231.134,476.198,231.024z"/>
	<path fill="#FF0000" d="M478.563,227.018l0.52-2.475h7.547l-0.506,2.475H478.563z"/>
	<path fill="#FF0000" d="M487.86,233.034l2.639-12.605h-2.215l0.396-1.914h2.215l0.424-2.064c0.219-1.03,0.443-1.772,0.676-2.229
		s0.611-0.832,1.135-1.128c0.524-0.296,1.238-0.444,2.141-0.444c0.629,0,1.539,0.132,2.734,0.396l-0.451,2.16
		c-0.84-0.219-1.541-0.328-2.105-0.328c-0.484,0-0.851,0.121-1.102,0.362c-0.25,0.241-0.467,0.813-0.648,1.716l-0.328,1.559h2.762
		l-0.396,1.914h-2.762l-2.639,12.605H487.86z"/>
	<path fill="#FF0000" d="M495.297,233.034l3.035-14.52h2.188l-0.615,2.967c0.746-1.121,1.479-1.95,2.193-2.488
		c0.717-0.538,1.447-0.807,2.195-0.807c0.492,0,1.098,0.178,1.818,0.533l-1.012,2.297c-0.43-0.31-0.898-0.465-1.408-0.465
		c-0.867,0-1.756,0.483-2.666,1.449c-0.912,0.966-1.627,2.702-2.146,5.209l-1.23,5.824H495.297z"/>
	<path fill="#FF0000" d="M504.526,233.034l3.035-14.52h2.475L507,233.034H504.526z M508.135,215.794l0.588-2.803h2.461l-0.588,2.803
		H508.135z"/>
	<path fill="#FF0000" d="M520.631,230.928c-1.414,1.622-2.891,2.434-4.43,2.434c-1.377,0-2.523-0.508-3.439-1.524
		s-1.373-2.49-1.373-4.423c0-1.769,0.361-3.384,1.086-4.847s1.633-2.559,2.721-3.288c1.09-0.729,2.182-1.094,3.275-1.094
		c1.805,0,3.166,0.87,4.088,2.611l1.641-7.807h2.461l-4.184,20.043h-2.283L520.631,230.928z M513.85,226.95
		c0,1.012,0.1,1.81,0.301,2.393c0.199,0.583,0.541,1.068,1.025,1.456c0.482,0.388,1.061,0.581,1.736,0.581
		c1.121,0,2.137-0.583,3.049-1.75c1.221-1.55,1.832-3.464,1.832-5.742c0-1.148-0.301-2.046-0.902-2.693s-1.359-0.971-2.27-0.971
		c-0.594,0-1.133,0.132-1.621,0.396c-0.486,0.265-0.971,0.713-1.449,1.347s-0.881,1.438-1.209,2.413S513.85,226.212,513.85,226.95z"
		/>
	<path fill="#FF0000" d="M526.278,234.346l2.502,0.232c-0.02,0.565,0.049,0.989,0.205,1.271c0.154,0.282,0.4,0.501,0.738,0.656
		c0.445,0.2,1.025,0.301,1.736,0.301c1.494,0,2.57-0.388,3.227-1.162c0.428-0.52,0.824-1.649,1.189-3.391l0.246-1.176
		c-1.285,1.304-2.652,1.955-4.102,1.955c-1.469,0-2.695-0.54-3.686-1.62c-0.988-1.08-1.482-2.609-1.482-4.587
		c0-1.632,0.389-3.131,1.168-4.498s1.707-2.399,2.783-3.097c1.074-0.697,2.182-1.046,3.322-1.046c1.904,0,3.371,0.902,4.402,2.707
		l0.492-2.379h2.27l-2.926,14.014c-0.32,1.54-0.738,2.741-1.258,3.603s-1.242,1.529-2.168,2.003
		c-0.924,0.474-1.994,0.711-3.205,0.711c-1.168,0-2.172-0.15-3.016-0.451c-0.842-0.301-1.471-0.74-1.887-1.319
		c-0.414-0.579-0.621-1.242-0.621-1.989C526.209,234.857,526.231,234.611,526.278,234.346z M529.367,226.608
		c0,0.993,0.096,1.741,0.287,2.242c0.273,0.702,0.662,1.237,1.168,1.606s1.068,0.554,1.689,0.554c0.811,0,1.617-0.285,2.42-0.854
		c0.801-0.569,1.451-1.451,1.947-2.646c0.498-1.194,0.746-2.333,0.746-3.418c0-1.194-0.33-2.145-0.992-2.851
		c-0.66-0.706-1.479-1.06-2.453-1.06c-0.602,0-1.186,0.162-1.75,0.485c-0.566,0.323-1.092,0.815-1.58,1.477
		c-0.486,0.661-0.855,1.451-1.107,2.372C529.492,225.437,529.367,226.135,529.367,226.608z"/>
	<path fill="#FF0000" d="M552.651,228.098l2.406,0.246c-0.348,1.194-1.143,2.329-2.387,3.404s-2.727,1.613-4.449,1.613
		c-1.076,0-2.062-0.248-2.961-0.745c-0.896-0.497-1.58-1.219-2.051-2.167c-0.469-0.948-0.703-2.028-0.703-3.24
		c0-1.586,0.367-3.124,1.1-4.614c0.734-1.49,1.684-2.598,2.852-3.322c1.166-0.725,2.428-1.087,3.787-1.087
		c1.73,0,3.115,0.538,4.148,1.613c1.035,1.075,1.553,2.543,1.553,4.402c0,0.711-0.064,1.44-0.191,2.188h-10.691
		c-0.037,0.282-0.055,0.538-0.055,0.766c0,1.358,0.312,2.395,0.936,3.11c0.625,0.716,1.389,1.073,2.291,1.073
		c0.848,0,1.682-0.278,2.502-0.834S552.194,229.146,552.651,228.098z M545.459,224.503h8.148c0.008-0.255,0.014-0.438,0.014-0.547
		c0-1.239-0.311-2.189-0.93-2.851c-0.621-0.661-1.418-0.991-2.393-0.991c-1.059,0-2.021,0.364-2.893,1.094
		C546.537,221.937,545.887,223.035,545.459,224.503z"/>
	<path fill="#FF0000" d="M77.334,237.026v-2.051h479.295v2.051H77.334z"/>
</g>
<g>
	<g>
		<path fill="#231F20" d="M187.503,293.332c-0.065-19.593,21.482-28.254,37.575-31.916c16.355-3.722,43.161-6.08,48.98,14.526
			c3.454,12.229-6.223,22.997-8.272,34.603c-2.157,12.208,0.931,25.536,6.003,36.64c2.453,5.373,5.498,10.434,7.059,16.174
			c2.013,7.407-0.982,14.469-4.889,20.652c-7.304,11.561-19.114,21.714-31.748,26.943c-12.723,5.267-30.121,2.977-42.773-1.229
			c-6.347-2.109-12.793-5.595-16.469-11.374c-4.218-6.63-1.828-14.587,1.662-20.929c0.934-1.694-1.657-3.209-2.59-1.514
			c-18.929,34.379,31.561,43.854,55.342,39.549c10.715-1.938,20.321-9.389,28.049-16.671c8.105-7.639,16.118-17.809,17.037-29.278
			c0.922-11.512-8.312-22.194-11.422-32.772c-2.02-6.858-3.093-13.92-2.816-21.071c0.314-8.093,3.619-14.746,6.864-21.962
			c5.135-11.421,2.602-24.476-7.556-32.047c-9.24-6.887-22.664-6.153-33.482-4.82c-19.896,2.451-49.636,11.92-49.554,36.498
			C184.51,295.267,187.51,295.267,187.503,293.332L187.503,293.332z"/>
	</g>
</g>
<g>
	<g>
		<path fill="#231F20" d="M200.093,355.96c6.659-4.865,13.884-12.955,14.456-21.622c0.295-4.446-1.024-7.83-3.976-11.113
			c-4.102-4.567-8.172-6.827-10.03-13.113c-3.585-12.115,3.28-23.141,12.951-29.907c7.758-5.429,19.235-9.736,28.809-7.792
			c14.586,2.961,11.16,25.323,10.119,35.779c-1.25,12.55-5.394,28.575,0.285,40.564c0.828,1.748,3.414,0.226,2.592-1.514
			c-2.911-6.146-2.257-13.747-1.785-20.326c0.59-8.235,1.797-16.415,2.439-24.646c0.873-11.206,1.533-27.774-11.401-32.354
			c-7.665-2.713-17.439,0.136-24.483,3.282c-9.182,4.104-17.446,10.584-21.467,20.032c-3.504,8.235-2.596,19.426,3.496,26.209
			c3.988,4.439,9.373,6.87,9.535,13.627c0.162,6.701-5.215,13.173-9.715,17.543c-1.037,1.008-2.174,1.907-3.339,2.76
			C197.034,354.499,198.528,357.104,200.093,355.96L200.093,355.96z"/>
	</g>
</g>
<g>
	<g>
		<path fill="#231F20" d="M203.734,318.778c4.33-1.062,8.863-2.189,13.328-1.362c5.257,0.976,8.172,7.372,7.252,12.283
			c-0.663,3.541-2.567,6.89-4.493,9.883c-1.477,2.296-5.567,8.11-6.371,2.686c-0.283-1.908-3.174-1.096-2.894,0.797
			c0.591,3.989,3.285,6.174,6.926,3.632c4.584-3.202,7.594-9.445,9.298-14.588c1.702-5.137,0.073-12.176-4.415-15.479
			c-5.631-4.143-13.196-2.271-19.428-0.742C201.059,316.347,201.855,319.239,203.734,318.778L203.734,318.778z"/>
	</g>
</g>
<g>
	<g>
		<path fill="#231F20" d="M199.427,301.294c7.654-3.571,20.065-5.014,26.849,1.1c1.434,1.291,3.562-0.823,2.121-2.121
			c-7.895-7.114-21.522-5.75-30.482-1.567C196.161,299.521,197.686,302.107,199.427,301.294L199.427,301.294z"/>
	</g>
</g>
<g>
	<g>
		<path fill="#231F20" d="M241.89,354.267c-2.032,6.692-6.511,12.771-11.745,17.325c-6.16,5.358-20.494,5.437-18.694-5.861
			c0.301-1.893-2.59-2.703-2.894-0.797c-1.59,9.979,6.985,14.713,15.97,12.861c9.749-2.009,17.566-13.87,20.257-22.731
			C245.346,353.208,242.449,352.42,241.89,354.267L241.89,354.267z"/>
	</g>
</g>
<g>
	<g>
		<path fill="#231F20" d="M108.67,291.498c1.935,0,1.935-3,0-3C106.735,288.498,106.735,291.498,108.67,291.498L108.67,291.498z"/>
	</g>
</g>
<g>
	<g>
		<path fill="#231F20" d="M109.336,291.498c11.682,1.502,24.634,3.045,36.262,0.516c11.667-2.537,21.022-11.062,33.072-12.516
			c-0.482-0.367-0.965-0.733-1.446-1.102c0.573,3.408,0.608,6.822,0.612,10.268c0.002,1.936,3.002,1.936,3,0
			c-0.005-3.721-0.103-7.391-0.721-11.063c-0.1-0.596-0.841-1.175-1.445-1.103c-10.838,1.308-19.569,7.537-29.57,11.32
			c-12.039,4.554-27.301,2.282-39.764,0.68C107.421,288.252,107.445,291.255,109.336,291.498L109.336,291.498z"/>
	</g>
</g>
<g>
	<g>
		<path fill="#231F20" d="M103.503,276.664c0.009-2.916-0.061-5.89,0.554-8.755c0.867-4.058,6.053,0.651,7.553,1.815
			c0.935,0.726,2.069,0.465,2.508-0.662c1.355-3.489,2.521-7.008,3.333-10.666c-0.734,0.299-1.47,0.598-2.203,0.896
			c3.381,1.451,6.321,3.24,9.028,5.767c0.65,0.606,1.935,0.608,2.355-0.305c1.53-3.309,3.806-6.153,4.818-9.691
			c-0.615,0.35-1.23,0.699-1.847,1.048c4.738,1.721,8.092,5.871,12.311,8.516c0.604,0.38,1.31,0.195,1.816-0.233
			c2.801-2.367,4.756-5.362,6.9-8.305c-0.685,0.181-1.367,0.359-2.052,0.538c3.291,2.062,6.738,5.16,10.781,5.415
			c3.633,0.229,6.25-4.09,7.938-6.62c-0.864,0-1.729,0-2.592,0c2.336,3.814,4.815,7.312,8.539,9.872
			c0.532,0.367,1.389,0.232,1.816-0.233c3.333-3.629,5.405-7.918,7.567-12.305c-0.863,0-1.728,0-2.59,0
			c1.851,3.304,3.215,6.854,5.334,10c0.341,0.508,1.057,0.956,1.692,0.689c4.272-1.787,6.865-5.108,9.995-8.386
			c-0.835-0.222-1.671-0.441-2.507-0.662c1.142,4.26,1.855,8.521,1.946,12.935c0.04,1.933,3.04,1.937,3,0
			c-0.097-4.688-0.841-9.207-2.055-13.73c-0.286-1.074-1.727-1.479-2.507-0.662c-2.672,2.797-4.986,6.072-8.671,7.614
			c0.564,0.229,1.129,0.459,1.693,0.688c-2.118-3.146-3.482-6.698-5.334-10c-0.524-0.937-2.088-1.018-2.59,0
			c-2.041,4.138-3.943,8.261-7.1,11.696c0.606-0.078,1.212-0.156,1.817-0.234c-3.277-2.255-5.418-5.458-7.461-8.796
			c-0.611-0.999-1.967-0.937-2.592,0c-1.82,2.729-3.828,6.195-7.507,4.536c-2.508-1.131-4.784-2.953-7.107-4.407
			c-0.745-0.467-1.583-0.104-2.052,0.538c-1.99,2.729-3.831,5.498-6.433,7.696c0.605-0.078,1.212-0.156,1.817-0.234
			c-4.508-2.828-7.938-6.971-13.024-8.817c-0.774-0.281-1.635,0.31-1.846,1.048c-0.938,3.276-3.1,5.912-4.516,8.976
			c0.784-0.102,1.569-0.202,2.354-0.304c-2.877-2.686-6.016-4.682-9.637-6.234c-0.836-0.358-1.974-0.142-2.203,0.896
			c-0.812,3.656-1.979,7.177-3.333,10.666c0.835-0.222,1.671-0.441,2.507-0.662c-2.619-2.034-7.193-6.153-10.709-3.678
			c-3.342,2.354-2.508,9.37-2.519,12.737C100.497,278.599,103.497,278.599,103.503,276.664L103.503,276.664z"/>
	</g>
</g>
<g>
	<g>
		<path fill="#231F20" d="M101.965,318.088c1.904-3.753,4.658-8.7,9.584-7.249c3.971,1.172,7.265,5.273,10.029,8.133
			c5.096,5.267,11.069,12.555,19.092,12.526c1.934-0.007,1.936-3.007,0-3c-9.646,0.032-16.573-12.233-23.344-17.672
			c-7.664-6.155-13.932-2.175-17.951,5.748C98.502,318.295,101.09,319.813,101.965,318.088L101.965,318.088z"/>
	</g>
</g>
<g>
	<g>
		<path fill="#231F20" d="M149.73,327.059c4.979-5.141,8.891-13.25,16.939-13.562c1.928-0.074,1.936-3.074,0-3
			c-9.213,0.355-13.332,8.524-19.062,14.439C146.264,326.327,148.383,328.45,149.73,327.059L149.73,327.059z"/>
	</g>
</g>
<g>
	<g>
		<path fill="#231F20" d="M120.707,319.574c-1.235,2.886-1.769,6.629,0.323,9.264c0.836,1.052,2.311,1.284,3.479,0.725
			c1.58-0.758,2.362-2.63,2.939-4.165c0.683-1.813-2.219-2.59-2.894-0.797c-0.281,0.747-0.822,1.904-1.311,2.237
			c-0.193,0.133,0.059,0.055-0.041,0.022c0.229,0.071,0.02-0.054-0.076-0.205c-0.922-1.45-0.52-3.962,0.17-5.567
			c0.321-0.751,0.229-1.602-0.539-2.052C122.121,318.662,121.029,318.822,120.707,319.574L120.707,319.574z"/>
	</g>
</g>
<g>
	<g>
		<path fill="#231F20" d="M155.826,320.088c0.692,1.617,1.017,3.936,0.25,5.43c-0.158,0.306-0.2,0.333-0.298,0.394
			c0.289-0.183-0.18,0.01,0.197-0.031c-0.125,0.015-0.037,0.001,0.027,0.032c-0.147-0.071-0.405-0.325-0.604-0.614
			c-0.354-0.521-0.609-1.108-0.832-1.696c-0.675-1.793-3.574-1.018-2.893,0.797c0.58,1.544,1.32,3.239,2.813,4.104
			c1.183,0.687,2.572,0.368,3.511-0.559c2.379-2.35,1.568-6.679,0.418-9.368c-0.322-0.752-1.414-0.912-2.054-0.538
			C155.596,318.486,155.505,319.337,155.826,320.088L155.826,320.088z"/>
	</g>
</g>
<g>
	<g>
		<path fill="#231F20" d="M136.557,339.062c1.002,6.898-0.822,12.71-3.85,18.845c-0.411,0.834-0.101,1.968,0.896,2.203
			c5.355,1.266,10.528,0.059,15.156-2.817c1.639-1.019,0.135-3.613-1.514-2.59c-3.941,2.448-8.252,3.601-12.845,2.516
			c0.3,0.733,0.599,1.469,0.896,2.202c3.416-6.925,5.277-13.397,4.149-21.154C139.172,336.356,136.281,337.171,136.557,339.062
			L136.557,339.062z"/>
	</g>
</g>
<g>
	<g>
		<path fill="#231F20" d="M118.271,372.11c12.058,4.012,27.013,3.793,37.821-3.484c-0.685-0.179-1.368-0.357-2.052-0.538
			c2.643,3.753,3.83,8,1.662,12.283c-1.912,3.775-7.354,4.68-11.138,4.925c-7.288,0.474-12.619-3.775-11.729-11.298
			c0.227-1.919-2.775-1.896-3,0c-1.237,10.468,7.553,15.184,16.957,14.099c11.535-1.332,16.674-11.812,9.838-21.521
			c-0.446-0.635-1.332-1.023-2.052-0.538c-10.192,6.86-24.159,6.958-35.512,3.183C117.228,368.605,116.445,371.503,118.271,372.11
			L118.271,372.11z"/>
	</g>
</g>
<g>
	<g>
		<path fill="#231F20" d="M149.402,412.11c13.244-2.437,23.458-11.867,31.994-21.719c1.26-1.454-0.852-3.586-2.121-2.121
			c-8.225,9.491-17.896,18.598-30.672,20.947C146.703,409.567,147.511,412.459,149.402,412.11L149.402,412.11z"/>
	</g>
</g>
<g>
	<g>
		<path fill="#231F20" d="M146.734,409.219c-13.432-2.701-26.19-8.783-33.77-20.645c-1.037-1.625-3.635-0.122-2.59,1.514
			c7.989,12.508,21.346,19.164,35.562,22.022C147.826,412.49,148.631,409.599,146.734,409.219L146.734,409.219z"/>
	</g>
</g>
<g>
	<g>
		<path fill="#231F20" d="M100.503,279.331c1.148,8.663,0.089,17.311,0,26c-0.021,1.937,2.979,1.935,3,0
			c0.089-8.689,1.148-17.337,0-26C103.252,277.442,100.249,277.418,100.503,279.331L100.503,279.331z"/>
	</g>
</g>
<g>
	<g>
		<path fill="#231F20" d="M100.938,304.552c-5.844,1.428-9.49,4.991-8.764,11.241c0.728,6.243,4.947,11.279,6.383,17.27
			c0.451,1.881,3.344,1.083,2.894-0.797c-1.913-7.982-13.249-21.515,0.284-24.821C103.613,306.985,102.816,304.094,100.938,304.552
			L100.938,304.552z"/>
	</g>
</g>
<g>
	<g>
		<path fill="#231F20" d="M99.427,330.703c-3.821-1.943-7.475-3.904-11.692-4.817c-0.817-0.179-1.592,0.233-1.845,1.048
			c-1.853,5.956,0.862,11.147,3.655,16.322c1.832,3.396,4.021,7.119,3.463,11.11c-0.369,2.625-1.417,5.501-0.938,8.182
			c0.562,3.141,4.315,6.551,7.649,4.683c3.805-2.133,5.562-7.081,5.784-11.231c0.104-1.934-2.897-1.924-3,0
			c-0.139,2.573-2.436,11.286-6.772,7.605c-2.35-1.994,0.654-9.281,0.272-12.234c-1.068-8.273-9.94-14.892-7.222-23.64
			c-0.613,0.35-1.229,0.699-1.845,1.048c3.949,0.856,7.402,2.698,10.977,4.516C99.633,334.168,101.152,331.58,99.427,330.703
			L99.427,330.703z"/>
	</g>
</g>
<g>
	<g>
		<path fill="#231F20" d="M103.224,359.729c2.003,9.162,4.479,18.228,5.279,27.602c0.163,1.913,3.165,1.93,3,0
			c-0.823-9.646-3.325-18.971-5.387-28.397C105.703,357.043,102.811,357.844,103.224,359.729L103.224,359.729z"/>
	</g>
</g>
<rect x="366.003" y="274.664" fill="none" width="209.333" height="144.667"/>
<g enable-background="new    ">
	<path fill="#58755F" d="M368.012,294.713V274.67h3.842v20.043H368.012z"/>
	<path fill="#58755F" d="M375.791,278.224v-3.555h3.842v3.555H375.791z M375.791,294.713v-14.52h3.842v14.52H375.791z"/>
	<path fill="#58755F" d="M382.217,290.57l3.855-0.588c0.164,0.747,0.497,1.314,0.998,1.702c0.502,0.388,1.203,0.581,2.105,0.581
		c0.994,0,1.741-0.183,2.242-0.547c0.338-0.255,0.506-0.597,0.506-1.025c0-0.292-0.091-0.533-0.273-0.725
		c-0.191-0.183-0.619-0.351-1.285-0.506c-3.099-0.684-5.062-1.308-5.893-1.873c-1.148-0.784-1.723-1.873-1.723-3.268
		c0-1.258,0.497-2.315,1.49-3.172c0.994-0.856,2.534-1.285,4.621-1.285c1.987,0,3.464,0.323,4.43,0.971
		c0.967,0.647,1.632,1.604,1.996,2.871l-3.623,0.67c-0.154-0.565-0.449-0.998-0.881-1.299c-0.434-0.301-1.051-0.451-1.854-0.451
		c-1.012,0-1.736,0.142-2.174,0.424c-0.291,0.2-0.438,0.46-0.438,0.779c0,0.273,0.128,0.506,0.383,0.697
		c0.347,0.255,1.543,0.615,3.59,1.08c2.045,0.465,3.475,1.034,4.285,1.709c0.803,0.684,1.203,1.636,1.203,2.857
		c0,1.331-0.556,2.475-1.668,3.432c-1.111,0.957-2.757,1.436-4.936,1.436c-1.978,0-3.543-0.401-4.695-1.203
		C383.326,293.036,382.573,291.946,382.217,290.57z"/>
	<path fill="#58755F" d="M405.801,280.193v3.062h-2.625v5.852c0,1.185,0.025,1.875,0.076,2.071c0.049,0.196,0.164,0.357,0.342,0.485
		s0.394,0.191,0.648,0.191c0.355,0,0.871-0.123,1.545-0.369l0.328,2.98c-0.893,0.383-1.904,0.574-3.035,0.574
		c-0.692,0-1.316-0.116-1.873-0.349c-0.556-0.232-0.963-0.533-1.223-0.902s-0.44-0.868-0.541-1.497
		c-0.082-0.446-0.123-1.349-0.123-2.707v-6.33h-1.764v-3.062h1.764v-2.885l3.855-2.242v5.127H405.801z"/>
	<path fill="#58755F" d="M416.875,290.092l3.828,0.643c-0.492,1.403-1.27,2.473-2.33,3.206c-1.062,0.733-2.391,1.101-3.986,1.101
		c-2.524,0-4.393-0.825-5.605-2.475c-0.957-1.321-1.436-2.989-1.436-5.004c0-2.406,0.629-4.291,1.887-5.653s2.849-2.044,4.771-2.044
		c2.16,0,3.865,0.713,5.113,2.14c1.249,1.427,1.846,3.611,1.791,6.556h-9.625c0.027,1.14,0.338,2.025,0.93,2.659
		c0.593,0.634,1.331,0.95,2.215,0.95c0.602,0,1.107-0.164,1.518-0.492S416.666,290.821,416.875,290.092z M417.094,286.209
		c-0.027-1.112-0.314-1.957-0.861-2.536s-1.212-0.868-1.996-0.868c-0.838,0-1.531,0.306-2.078,0.916s-0.815,1.44-0.807,2.488
		H417.094z"/>
	<path fill="#58755F" d="M437.246,294.713h-3.842v-7.41c0-1.567-0.082-2.582-0.246-3.042s-0.43-0.818-0.799-1.073
		s-0.814-0.383-1.334-0.383c-0.665,0-1.262,0.183-1.791,0.547c-0.528,0.364-0.891,0.848-1.086,1.449
		c-0.197,0.602-0.295,1.714-0.295,3.336v6.576h-3.842v-14.52h3.568v2.133c1.268-1.641,2.862-2.461,4.785-2.461
		c0.848,0,1.623,0.152,2.324,0.458c0.702,0.306,1.232,0.695,1.594,1.169c0.359,0.474,0.609,1.012,0.752,1.613
		c0.141,0.602,0.211,1.463,0.211,2.584V294.713z"/>
	<path fill="#58755F" d="M455.58,280.193v3.062h-2.625v5.852c0,1.185,0.025,1.875,0.076,2.071c0.049,0.196,0.164,0.357,0.342,0.485
		s0.394,0.191,0.648,0.191c0.355,0,0.871-0.123,1.545-0.369l0.328,2.98c-0.893,0.383-1.904,0.574-3.035,0.574
		c-0.692,0-1.316-0.116-1.873-0.349c-0.556-0.232-0.963-0.533-1.223-0.902s-0.44-0.868-0.541-1.497
		c-0.082-0.446-0.123-1.349-0.123-2.707v-6.33h-1.764v-3.062h1.764v-2.885l3.855-2.242v5.127H455.58z"/>
	<path fill="#58755F" d="M457.358,287.248c0-1.276,0.314-2.511,0.943-3.705s1.52-2.105,2.674-2.734
		c1.152-0.629,2.439-0.943,3.861-0.943c2.197,0,3.997,0.713,5.4,2.14c1.404,1.427,2.105,3.229,2.105,5.407
		c0,2.196-0.709,4.018-2.125,5.462c-1.418,1.444-3.202,2.167-5.354,2.167c-1.33,0-2.6-0.301-3.807-0.902
		c-1.209-0.602-2.127-1.483-2.756-2.646S457.358,288.916,457.358,287.248z M461.295,287.453c0,1.44,0.342,2.543,1.025,3.309
		s1.527,1.148,2.529,1.148c1.003,0,1.844-0.383,2.523-1.148c0.678-0.766,1.018-1.878,1.018-3.336c0-1.422-0.34-2.516-1.018-3.281
		c-0.68-0.766-1.521-1.148-2.523-1.148c-1.002,0-1.846,0.383-2.529,1.148S461.295,286.012,461.295,287.453z"/>
	<path fill="#58755F" d="M489.787,280.193v3.062h-2.625v5.852c0,1.185,0.025,1.875,0.076,2.071c0.049,0.196,0.164,0.357,0.342,0.485
		s0.394,0.191,0.648,0.191c0.355,0,0.871-0.123,1.545-0.369l0.328,2.98c-0.893,0.383-1.904,0.574-3.035,0.574
		c-0.692,0-1.316-0.116-1.873-0.349c-0.556-0.232-0.963-0.533-1.223-0.902s-0.44-0.868-0.541-1.497
		c-0.082-0.446-0.123-1.349-0.123-2.707v-6.33h-1.764v-3.062h1.764v-2.885l3.855-2.242v5.127H489.787z"/>
	<path fill="#58755F" d="M496.281,274.67v7.369c1.24-1.449,2.721-2.174,4.443-2.174c0.885,0,1.682,0.164,2.393,0.492
		s1.246,0.747,1.607,1.258c0.359,0.511,0.605,1.075,0.738,1.695c0.131,0.62,0.197,1.581,0.197,2.885v8.518h-3.842v-7.67
		c0-1.522-0.072-2.488-0.219-2.898c-0.146-0.41-0.402-0.736-0.771-0.978s-0.832-0.362-1.389-0.362c-0.638,0-1.207,0.155-1.709,0.465
		c-0.501,0.31-0.867,0.777-1.1,1.401s-0.35,1.547-0.35,2.769v7.273h-3.842V274.67H496.281z"/>
	<path fill="#58755F" d="M517.965,290.092l3.828,0.643c-0.492,1.403-1.27,2.473-2.33,3.206c-1.062,0.733-2.391,1.101-3.986,1.101
		c-2.524,0-4.393-0.825-5.605-2.475c-0.957-1.321-1.436-2.989-1.436-5.004c0-2.406,0.629-4.291,1.887-5.653s2.849-2.044,4.771-2.044
		c2.16,0,3.865,0.713,5.113,2.14c1.249,1.427,1.846,3.611,1.791,6.556h-9.625c0.027,1.14,0.338,2.025,0.93,2.659
		c0.593,0.634,1.331,0.95,2.215,0.95c0.602,0,1.107-0.164,1.518-0.492S517.756,290.821,517.965,290.092z M518.184,286.209
		c-0.027-1.112-0.314-1.957-0.861-2.536s-1.212-0.868-1.996-0.868c-0.838,0-1.531,0.306-2.078,0.916s-0.815,1.44-0.807,2.488
		H518.184z"/>
</g>
<g enable-background="new    ">
	<path fill="#58755F" d="M367.903,316.193h3.582v2.133c0.465-0.729,1.094-1.321,1.887-1.777s1.673-0.684,2.639-0.684
		c1.687,0,3.117,0.661,4.293,1.982s1.764,3.163,1.764,5.523c0,2.425-0.592,4.309-1.777,5.653c-1.185,1.345-2.62,2.017-4.307,2.017
		c-0.802,0-1.529-0.159-2.18-0.479c-0.652-0.319-1.338-0.866-2.059-1.641v7.314h-3.842V316.193z M371.703,323.207
		c0,1.632,0.324,2.837,0.971,3.616c0.647,0.779,1.436,1.169,2.365,1.169c0.894,0,1.637-0.357,2.229-1.073
		c0.593-0.716,0.889-1.889,0.889-3.521c0-1.522-0.305-2.652-0.916-3.391c-0.61-0.738-1.367-1.107-2.27-1.107
		c-0.938,0-1.718,0.362-2.338,1.087C372.014,320.712,371.703,321.785,371.703,323.207z"/>
	<path fill="#58755F" d="M384.227,323.248c0-1.276,0.314-2.511,0.943-3.705s1.52-2.105,2.674-2.734
		c1.152-0.629,2.439-0.943,3.861-0.943c2.197,0,3.997,0.713,5.4,2.14c1.404,1.427,2.105,3.229,2.105,5.407
		c0,2.196-0.709,4.018-2.125,5.462c-1.418,1.444-3.202,2.167-5.354,2.167c-1.33,0-2.6-0.301-3.807-0.902
		c-1.209-0.602-2.127-1.483-2.756-2.646S384.227,324.916,384.227,323.248z M388.164,323.453c0,1.44,0.342,2.543,1.025,3.309
		s1.527,1.148,2.529,1.148c1.003,0,1.844-0.383,2.523-1.148c0.678-0.766,1.018-1.878,1.018-3.336c0-1.422-0.34-2.516-1.018-3.281
		c-0.68-0.766-1.521-1.148-2.523-1.148c-1.002,0-1.846,0.383-2.529,1.148S388.164,322.012,388.164,323.453z"/>
	<path fill="#58755F" d="M415.535,330.713h-3.568v-2.133c-0.592,0.829-1.291,1.447-2.098,1.853s-1.621,0.608-2.441,0.608
		c-1.668,0-3.096-0.672-4.285-2.017s-1.785-3.22-1.785-5.626c0-2.461,0.579-4.332,1.736-5.612c1.158-1.28,2.621-1.921,4.389-1.921
		c1.623,0,3.026,0.675,4.211,2.023v-7.219h3.842V330.713z M405.281,323.138c0,1.55,0.215,2.671,0.643,3.363
		c0.62,1.003,1.486,1.504,2.598,1.504c0.885,0,1.637-0.376,2.256-1.128c0.62-0.752,0.93-1.875,0.93-3.37
		c0-1.668-0.301-2.869-0.902-3.603s-1.371-1.101-2.311-1.101c-0.911,0-1.674,0.362-2.289,1.087S405.281,321.698,405.281,323.138z"/>
	<path fill="#58755F" d="M431.983,320.486l-3.787,0.684c-0.127-0.757-0.416-1.326-0.867-1.709s-1.037-0.574-1.758-0.574
		c-0.957,0-1.721,0.33-2.289,0.991c-0.57,0.661-0.855,1.766-0.855,3.315c0,1.723,0.289,2.939,0.869,3.65
		c0.578,0.711,1.355,1.066,2.33,1.066c0.729,0,1.326-0.207,1.791-0.622s0.793-1.128,0.984-2.14l3.773,0.643
		c-0.392,1.731-1.144,3.04-2.256,3.924c-1.111,0.884-2.602,1.326-4.471,1.326c-2.123,0-3.816-0.67-5.078-2.01
		c-1.264-1.34-1.895-3.194-1.895-5.564c0-2.397,0.634-4.264,1.9-5.599c1.268-1.335,2.98-2.003,5.141-2.003
		c1.769,0,3.174,0.381,4.219,1.142C430.778,317.767,431.528,318.927,431.983,320.486z"/>
	<path fill="#58755F" d="M437.766,320.623l-3.486-0.629c0.393-1.403,1.066-2.442,2.023-3.117s2.379-1.012,4.266-1.012
		c1.714,0,2.99,0.203,3.828,0.608c0.839,0.405,1.43,0.921,1.771,1.545s0.512,1.771,0.512,3.438l-0.041,4.484
		c0,1.276,0.062,2.217,0.186,2.823s0.353,1.256,0.689,1.948h-3.801c-0.1-0.255-0.223-0.634-0.369-1.135
		c-0.063-0.228-0.109-0.378-0.137-0.451c-0.656,0.638-1.357,1.116-2.105,1.436c-0.747,0.319-1.545,0.479-2.393,0.479
		c-1.494,0-2.672-0.405-3.533-1.217s-1.293-1.837-1.293-3.076c0-0.82,0.196-1.552,0.588-2.194c0.393-0.643,0.941-1.135,1.648-1.477
		c0.705-0.342,1.725-0.641,3.055-0.896c1.796-0.337,3.04-0.651,3.732-0.943v-0.383c0-0.738-0.182-1.265-0.547-1.579
		c-0.364-0.314-1.053-0.472-2.064-0.472c-0.684,0-1.217,0.135-1.6,0.403S438.003,319.948,437.766,320.623z M442.906,323.74
		c-0.492,0.164-1.271,0.36-2.338,0.588s-1.764,0.451-2.092,0.67c-0.501,0.355-0.752,0.807-0.752,1.354
		c0,0.538,0.201,1.003,0.602,1.395c0.401,0.392,0.912,0.588,1.531,0.588c0.693,0,1.354-0.228,1.982-0.684
		c0.465-0.347,0.771-0.771,0.916-1.271c0.101-0.328,0.15-0.952,0.15-1.873V323.74z"/>
	<path fill="#58755F" d="M449.114,326.57l3.855-0.588c0.164,0.747,0.497,1.314,0.998,1.702c0.502,0.388,1.203,0.581,2.105,0.581
		c0.994,0,1.741-0.183,2.242-0.547c0.338-0.255,0.506-0.597,0.506-1.025c0-0.292-0.091-0.533-0.273-0.725
		c-0.191-0.183-0.619-0.351-1.285-0.506c-3.099-0.684-5.062-1.308-5.893-1.873c-1.148-0.784-1.723-1.873-1.723-3.268
		c0-1.258,0.497-2.315,1.49-3.172c0.994-0.856,2.534-1.285,4.621-1.285c1.987,0,3.464,0.323,4.43,0.971
		c0.967,0.647,1.632,1.604,1.996,2.871l-3.623,0.67c-0.154-0.565-0.449-0.998-0.881-1.299c-0.434-0.301-1.051-0.451-1.854-0.451
		c-1.012,0-1.736,0.142-2.174,0.424c-0.291,0.2-0.438,0.46-0.438,0.779c0,0.273,0.128,0.506,0.383,0.697
		c0.347,0.255,1.543,0.615,3.59,1.08c2.045,0.465,3.475,1.034,4.285,1.709c0.803,0.684,1.203,1.636,1.203,2.857
		c0,1.331-0.556,2.475-1.668,3.432c-1.111,0.957-2.757,1.436-4.936,1.436c-1.978,0-3.543-0.401-4.695-1.203
		C450.223,329.036,449.469,327.946,449.114,326.57z"/>
	<path fill="#58755F" d="M472.698,316.193v3.062h-2.625v5.852c0,1.185,0.025,1.875,0.076,2.071c0.049,0.196,0.164,0.357,0.342,0.485
		s0.394,0.191,0.648,0.191c0.355,0,0.871-0.123,1.545-0.369l0.328,2.98c-0.893,0.383-1.904,0.574-3.035,0.574
		c-0.692,0-1.316-0.116-1.873-0.349c-0.556-0.232-0.963-0.533-1.223-0.902s-0.44-0.868-0.541-1.497
		c-0.082-0.446-0.123-1.349-0.123-2.707v-6.33h-1.764v-3.062h1.764v-2.885l3.855-2.242v5.127H472.698z"/>
	<path fill="#58755F" d="M482.254,323.248c0-1.276,0.314-2.511,0.943-3.705s1.52-2.105,2.674-2.734
		c1.152-0.629,2.439-0.943,3.861-0.943c2.197,0,3.997,0.713,5.4,2.14c1.404,1.427,2.105,3.229,2.105,5.407
		c0,2.196-0.709,4.018-2.125,5.462c-1.418,1.444-3.202,2.167-5.354,2.167c-1.33,0-2.6-0.301-3.807-0.902
		c-1.209-0.602-2.127-1.483-2.756-2.646S482.254,324.916,482.254,323.248z M486.192,323.453c0,1.44,0.342,2.543,1.025,3.309
		s1.527,1.148,2.529,1.148c1.003,0,1.844-0.383,2.523-1.148c0.678-0.766,1.018-1.878,1.018-3.336c0-1.422-0.34-2.516-1.018-3.281
		c-0.68-0.766-1.521-1.148-2.523-1.148c-1.002,0-1.846,0.383-2.529,1.148S486.192,322.012,486.192,323.453z"/>
	<path fill="#58755F" d="M513.453,330.713h-3.842v-7.41c0-1.567-0.082-2.582-0.246-3.042s-0.43-0.818-0.799-1.073
		s-0.814-0.383-1.334-0.383c-0.665,0-1.262,0.183-1.791,0.547c-0.528,0.364-0.891,0.848-1.086,1.449
		c-0.197,0.602-0.295,1.714-0.295,3.336v6.576h-3.842v-14.52h3.568v2.133c1.268-1.641,2.862-2.461,4.785-2.461
		c0.848,0,1.623,0.152,2.324,0.458c0.702,0.306,1.232,0.695,1.594,1.169c0.359,0.474,0.609,1.012,0.752,1.613
		c0.141,0.602,0.211,1.463,0.211,2.584V330.713z"/>
</g>
<g enable-background="new    ">
	<path fill="#F7931E" d="M375.935,352.175c-1.552,0-3.538,1.95-3.538,6.474c0,5.617,3.072,7.801,4.779,9.283
		c6.518,5.46,7.853,13.338,7.853,20.748c0,9.049-2.576,20.203-9.125,20.203c-4.407,0-8.876-5.928-8.876-18.33
		c0-6.631,1.583-10.531,1.893-10.531c0.528,0,0,15.835,6.673,15.835c2.359,0,4.407-2.574,4.407-7.41
		c0-5.694-2.793-8.034-4.593-9.438c-6.797-5.305-7.542-13.026-7.542-19.656c0-6.553,1.769-17.707,8.069-17.707
		c4.5,0,7.697,6.006,7.697,8.268c0,2.185-1.614,9.283-2.483,9.283C380.373,359.195,379.162,352.175,375.935,352.175z"/>
	<path fill="#F7931E" d="M395.545,408.883c-6.27,0-8.721-11.311-8.721-24.805c0-20.047,4.469-42.434,10.272-42.434
		s10.273,22.387,10.273,42.434c0,13.494-2.452,24.805-8.722,24.805H395.545z M402.342,382.361c0-17.238-3.166-28.08-5.245-28.08
		s-5.245,10.842-5.245,28.08c0,9.127,1.955,12.637,5.245,12.637S402.342,391.488,402.342,382.361z"/>
	<path fill="#F7931E" d="M426.174,342.814c0.621,0,1.831,1.248,1.831,29.329c0,22.933-2.793,36.739-9.435,36.739
		c-5.835,0-9.404-11.311-9.404-34.633c0-24.961,1.179-31.436,1.583-31.436h4.313c0.311,0,0.683,0,0.683,1.014
		c0,1.795-1.552,10.062-1.552,28.004c0,17.706,2.545,23.166,4.377,23.166c1.552,0,4.903-1.014,4.903-22.387
		c0-20.28-1.521-27.379-1.521-28.783c0-1.248,0.899-1.014,1.179-1.014H426.174z"/>
	<path fill="#F7931E" d="M444.512,407.713c-2.142,0-0.218-4.836-5.059-29.485c-0.404-2.106-3.135-15.21-4.128-15.21
		c-0.776,0-0.559,8.502-0.559,10.062c0,21.996,1.272,29.952,1.272,33.931c0,1.014-0.59,0.702-0.869,0.702h-2.887
		c-0.775,0-1.707,1.482-1.707-27.77c0-38.533,1.614-37.129,2.142-37.129h2.452c1.179,0,3.538,6.24,9.342,33.229
		c0.093,0.39,0.248,1.403,0.527,1.403c0.311,0,0.248-3.354,0.248-4.445c0-14.587-1.582-27.535-1.582-29.33
		c0-1.092,0.683-0.857,1.272-0.857h2.358c0.683,0,2.142-1.404,2.142,37.129c0,29.252-0.932,27.77-1.707,27.77H444.512z"/>
	<path fill="#F7931E" d="M454.283,407.713c-0.775,0-1.707,1.482-1.707-27.77c0-38.533,1.614-37.129,2.142-37.129h5.276
		c3.941,0,11.049,10.842,11.049,40.094c0,13.494-2.452,24.805-8.722,24.805H454.283z M457.418,378.15
		c0,17.55,2.049,19.578,3.786,19.578c1.676,0,4.811-3.979,4.811-18.019c0-19.267-3.973-27.691-5.989-27.691
		c-2.173,0-2.607,10.062-2.607,14.977V378.15z"/>
	<path fill="#F7931E" d="M472.591,377.057c0-16.927,3.786-35.413,11.328-35.413c2.7,0,6.858,2.886,6.858,11.311
		c0,4.523-1.241,7.098-3.196,7.098c-1.272,0,0.435-7.332-3.507-7.332c-4.531,0-6.456,11.623-6.456,21.373
		c0,14.898,4.035,20.904,6.735,20.904c5.059,0,5.493-11.389,5.772-11.389c0.435,0,0.683,6.24,0.683,7.021
		c0,11.544-3.538,18.252-7.883,18.252C475.88,408.883,472.591,392.814,472.591,377.057z"/>
	<path fill="#F7931E" d="M494.684,407.713c-1.646,0.156-1.148-2.574-1.304-18.408c0-10.453,1.707-46.49,2.607-46.49h4.935
		c0.217,0,0.59,0.156,0.59,1.561c0,1.716-3.601,18.486-3.601,40.016c0,10.764,1.862,13.338,3.569,13.338
		c2.855,0,4.594-6.631,5.369-6.631c0.59,0,1.8,15.056,1.8,15.445c0,1.56-0.962,1.17-1.334,1.17H494.684z"/>
	<path fill="#F7931E" d="M518.423,408.883c-6.27,0-8.721-11.311-8.721-24.805c0-20.047,4.469-42.434,10.272-42.434
		s10.273,22.387,10.273,42.434c0,13.494-2.452,24.805-8.722,24.805H518.423z M525.22,382.361c0-17.238-3.166-28.08-5.245-28.08
		s-5.245,10.842-5.245,28.08c0,9.127,1.955,12.637,5.245,12.637S525.22,391.488,525.22,382.361z"/>
	<path fill="#F7931E" d="M549.051,342.814c0.621,0,1.831,1.248,1.831,29.329c0,22.933-2.793,36.739-9.435,36.739
		c-5.835,0-9.404-11.311-9.404-34.633c0-24.961,1.179-31.436,1.583-31.436h4.313c0.311,0,0.683,0,0.683,1.014
		c0,1.795-1.552,10.062-1.552,28.004c0,17.706,2.545,23.166,4.377,23.166c1.552,0,4.903-1.014,4.903-22.387
		c0-20.28-1.521-27.379-1.521-28.783c0-1.248,0.899-1.014,1.179-1.014H549.051z"/>
	<path fill="#F7931E" d="M555.16,407.713c-0.775,0-1.707,1.482-1.707-27.77c0-38.533,1.614-37.129,2.142-37.129h5.276
		c3.941,0,11.049,10.842,11.049,40.094c0,13.494-2.452,24.805-8.722,24.805H555.16z M558.295,378.15
		c0,17.55,2.049,19.578,3.786,19.578c1.676,0,4.811-3.979,4.811-18.019c0-19.267-3.973-27.691-5.989-27.691
		c-2.173,0-2.607,10.062-2.607,14.977V378.15z"/>
</g>
<g>
	<g>
		<path fill="#F7931E" d="M351.594,346.407c-5.425-5.926-10.873-22.217-21.584-18.35c-5.937,2.143-14.013,3.407-20.149,1.755
			c-7.269-1.959-10.59-8.078-15.166-13.409c-8.208-9.561-20.001,2.974-29.362,3.722c-6.77,0.541-13.663-4.51-19.657-7.048
			c-6.215-2.632-12.414-2.79-18.937-1.249c-2.823,0.668-1.627,5.007,1.195,4.34c7.32-1.729,13.193-0.421,19.83,2.789
			c5.189,2.511,10.434,5.132,16.254,5.664c5.506,0.504,10.976-2.505,15.73-4.848c2.641-1.301,5.312-2.577,8.309-2.565
			c2.606,0.01,4.989,4.197,6.391,5.979c3.357,4.266,6.269,7.792,11.405,9.905c5.547,2.279,10.674,2.129,16.486,1.133
			c2.978-0.511,5.985-0.892,8.865-1.828c2.007-0.652,2.167-0.688,4.035,0.566c6.208,4.172,8.277,11.279,13.172,16.625
			C350.375,351.733,353.549,348.543,351.594,346.407L351.594,346.407z"/>
	</g>
</g>
<g>
	<g>
		<path fill="#F7931E" d="M348.613,366.862c-4.914-11.083-13.787-17.979-25.821-19.558c-6.328-0.831-12.328,0.879-18.264,2.888
			c-6.558,2.219-14.672,6.094-21.39,2.529c-8.574-4.551-9.482-15.94-19.988-18.083c-4.925-1.005-9.494,0.407-14.09,1.998
			c-5.57,1.926-13.191,5.095-16.447-1.774c-1.241-2.621-5.12-0.336-3.887,2.271c4.912,10.364,16.42,5.498,24.676,2.775
			c5.244-1.729,10.938-1.632,14.986,2.508c3.309,3.382,5.152,7.922,8.557,11.287c9.464,9.355,22.347,2.768,32.938-0.526
			c14.836-4.611,28.608,1.891,34.844,15.956C345.9,371.782,349.777,369.49,348.613,366.862L348.613,366.862z"/>
	</g>
</g>
<g>
	<g>
		<path fill="#F7931E" d="M342.613,394.862c-4.477-10.499-14.75-14.166-25.516-14.133c-6.902,0.021-12.671,2.442-19.021,4.847
			c-3.523,1.333-7.272,2-10.979,1.04c-1.789-0.463-2.221-3.418-2.886-4.83c-1.557-3.304-3.554-7.63-6.125-10.292
			c-3.389-3.506-10.619-4.22-15.155-4.571c-11.949-0.928-36.709,3.611-38.677-14.259c-0.313-2.852-4.817-2.883-4.5,0
			c1.331,12.09,12.183,17.172,23.156,18.536c8.04,0.999,16.191-0.719,24.181,0.753c2.346,0.433,6.805,1.256,8.331,3.287
			c1.55,2.062,2.579,4.723,3.946,6.925c1.86,2.996,2.092,7.015,5.774,8.487c5.634,2.254,11.813,0.218,17.125-1.901
			c12.41-4.953,30.188-6.325,36.459,8.384C339.861,399.797,343.737,397.5,342.613,394.862L342.613,394.862z"/>
	</g>
</g>
</svg>
