<?xml version="1.0" encoding="utf-8"?>
<!-- Generator: Adobe Illustrator 16.0.0, SVG Export Plug-In . SVG Version: 6.00 Build 0)  -->
<!DOCTYPE svg PUBLIC "-//W3C//DTD SVG 1.1//EN" "http://www.w3.org/Graphics/SVG/1.1/DTD/svg11.dtd">
<svg version="1.1" id="Layer_1" xmlns="http://www.w3.org/2000/svg" xmlns:xlink="http://www.w3.org/1999/xlink" x="0px" y="0px"
	 width="638px" height="512px" viewBox="0 0 638 512" enable-background="new 0 0 638 512" xml:space="preserve">
<g>
	
		<image overflow="visible" enable-background="new    " width="630" height="475" xlink:href="C562D5B271AA98B6.png"  transform="matrix(1 0 0 1 7.0002 22.9998)">
	</image>
</g>
<rect x="50" y="52" fill="#FFFFFF" stroke="#000000" stroke-width="2" stroke-miterlimit="10" width="558" height="403"/>
<rect x="73" y="86.814" fill="none" width="506" height="339.113"/>
<g enable-background="new    ">
	<path d="M84.502,100.236l-1.752,5.84c1.845-2.167,3.491-3.682,4.938-4.545s2.924-1.295,4.431-1.295c1.506,0,2.793,0.597,3.859,1.79
		s1.6,2.746,1.6,4.659c0,3.724-1.515,7.512-4.545,11.362c-3.03,3.851-6.56,5.776-10.588,5.776c-0.847,0-1.596-0.093-2.247-0.279
		c-0.652-0.187-1.384-0.517-2.196-0.99l-1.854,6.551c-0.373,1.286-0.559,2.124-0.559,2.514c0,0.372,0.097,0.689,0.292,0.952
		c0.194,0.263,0.512,0.466,0.952,0.609c0.44,0.144,1.312,0.216,2.615,0.216l-0.229,0.939H67.261l0.254-0.939
		c1.574-0.067,2.637-0.339,3.187-0.812c0.55-0.474,1.13-1.786,1.739-3.936l6.424-22.242c0.389-1.405,0.584-2.276,0.584-2.615
		c0-0.457-0.131-0.812-0.394-1.066c-0.263-0.254-0.665-0.381-1.206-0.381c-0.491,0-1.177,0.06-2.057,0.178v-0.99L84.502,100.236z
		 M78.586,120.549c1.049,1.253,2.463,1.879,4.24,1.879c0.88,0,1.777-0.245,2.691-0.736s1.807-1.219,2.679-2.184
		c0.872-0.965,1.654-2.078,2.349-3.339c0.694-1.261,1.316-2.746,1.866-4.456c0.55-1.71,0.825-3.402,0.825-5.078
		c0-1.354-0.309-2.391-0.927-3.11c-0.618-0.72-1.342-1.079-2.171-1.079c-1.828,0-3.635,1.05-5.421,3.148
		c-1.786,2.099-3.094,4.554-3.923,7.363L78.586,120.549z"/>
	<path d="M114.463,87.109l-8.684,30.215c-0.423,1.507-0.635,2.429-0.635,2.768c0,0.254,0.08,0.466,0.241,0.635
		c0.161,0.169,0.359,0.254,0.597,0.254c0.321,0,0.668-0.144,1.041-0.432c0.88-0.694,1.803-1.769,2.768-3.225l0.762,0.787
		c-1.608,2.269-3.089,3.851-4.443,4.748c-0.999,0.644-1.947,0.965-2.844,0.965c-0.644,0-1.181-0.22-1.612-0.66
		s-0.647-0.948-0.647-1.523c0-0.609,0.271-1.862,0.812-3.758l6.881-23.816c0.559-1.946,0.838-3.063,0.838-3.352
		c0-0.406-0.161-0.74-0.482-1.003c-0.322-0.263-0.821-0.394-1.498-0.394c-0.39,0-0.982,0.06-1.777,0.178v-0.939L114.463,87.109z"/>
	<path d="M119.642,113.642c-0.119,0.847-0.178,1.549-0.178,2.107c0,1.507,0.533,2.789,1.6,3.847s2.361,1.587,3.885,1.587
		c1.219,0,2.391-0.25,3.517-0.749c1.125-0.499,2.797-1.604,5.015-3.313l0.533,0.736c-4.012,3.978-7.837,5.967-11.477,5.967
		c-2.472,0-4.333-0.778-5.586-2.336c-1.253-1.558-1.879-3.275-1.879-5.154c0-2.522,0.778-5.104,2.336-7.744
		c1.557-2.641,3.512-4.693,5.865-6.157c2.353-1.464,4.773-2.196,7.262-2.196c1.794,0,3.123,0.364,3.986,1.092
		s1.295,1.591,1.295,2.59c0,1.405-0.559,2.751-1.676,4.037c-1.473,1.676-3.64,3.03-6.5,4.062
		C125.744,112.712,123.078,113.253,119.642,113.642z M119.82,112.398c2.505-0.288,4.545-0.778,6.119-1.473
		c2.082-0.931,3.644-2.044,4.685-3.339s1.562-2.526,1.562-3.694c0-0.711-0.225-1.286-0.673-1.727c-0.449-0.44-1.088-0.66-1.917-0.66
		c-1.727,0-3.559,0.918-5.497,2.755C122.16,106.097,120.734,108.809,119.82,112.398z"/>
	<path d="M160.927,100.236l-4.951,17.215l-0.559,2.311c-0.051,0.22-0.076,0.406-0.076,0.559c0,0.271,0.084,0.508,0.254,0.711
		c0.135,0.152,0.305,0.229,0.508,0.229c0.22,0,0.508-0.136,0.863-0.406c0.66-0.491,1.54-1.507,2.641-3.047l0.863,0.609
		c-1.168,1.761-2.37,3.102-3.605,4.024c-1.236,0.923-2.378,1.384-3.428,1.384c-0.728,0-1.274-0.182-1.638-0.546
		c-0.364-0.364-0.546-0.893-0.546-1.587c0-0.829,0.186-1.921,0.559-3.275l0.533-1.904c-2.218,2.895-4.257,4.917-6.119,6.068
		c-1.337,0.829-2.649,1.244-3.936,1.244c-1.236,0-2.302-0.512-3.199-1.536c-0.897-1.024-1.346-2.434-1.346-4.228
		c0-2.691,0.808-5.531,2.425-8.519c1.616-2.987,3.669-5.379,6.157-7.173c1.946-1.422,3.783-2.133,5.51-2.133
		c1.032,0,1.892,0.271,2.577,0.812s1.206,1.438,1.562,2.691l0.914-2.895L160.927,100.236z M151.888,101.556
		c-1.083,0-2.234,0.508-3.453,1.523c-1.727,1.438-3.263,3.571-4.608,6.398s-2.019,5.383-2.019,7.668
		c0,1.151,0.288,2.061,0.863,2.729c0.575,0.669,1.235,1.003,1.98,1.003c1.845,0,3.851-1.362,6.018-4.088
		c2.895-3.622,4.342-7.338,4.342-11.146c0-1.438-0.279-2.479-0.838-3.123S152.853,101.556,151.888,101.556z"/>
	<path d="M181.392,100.236l-1.549,7.795h-0.939c-0.085-2.269-0.567-3.919-1.447-4.951c-0.88-1.032-1.972-1.549-3.275-1.549
		c-1.05,0-1.883,0.288-2.501,0.863c-0.618,0.575-0.927,1.27-0.927,2.082c0,0.559,0.123,1.092,0.368,1.6
		c0.245,0.508,0.783,1.219,1.612,2.133c2.2,2.403,3.622,4.215,4.266,5.434c0.643,1.219,0.965,2.37,0.965,3.453
		c0,1.761-0.732,3.322-2.196,4.685c-1.464,1.362-3.313,2.044-5.548,2.044c-1.219,0-2.624-0.288-4.215-0.863
		c-0.559-0.203-0.99-0.305-1.295-0.305c-0.762,0-1.337,0.39-1.727,1.168h-0.939l1.549-8.227h0.939
		c0.102,2.573,0.635,4.393,1.6,5.459s2.285,1.6,3.961,1.6c1.286,0,2.306-0.359,3.06-1.079c0.753-0.72,1.13-1.604,1.13-2.653
		c0-0.677-0.136-1.304-0.406-1.879c-0.474-1.016-1.469-2.421-2.983-4.215c-1.515-1.794-2.488-3.14-2.92-4.037
		s-0.647-1.794-0.647-2.691c0-1.642,0.597-3.03,1.79-4.164s2.729-1.701,4.608-1.701c0.542,0,1.032,0.042,1.473,0.127
		c0.237,0.051,0.791,0.241,1.663,0.571c0.872,0.33,1.451,0.495,1.739,0.495c0.728,0,1.337-0.397,1.828-1.193H181.392z"/>
	<path d="M188.959,113.642c-0.119,0.847-0.178,1.549-0.178,2.107c0,1.507,0.533,2.789,1.6,3.847s2.361,1.587,3.885,1.587
		c1.219,0,2.391-0.25,3.517-0.749c1.125-0.499,2.797-1.604,5.015-3.313l0.533,0.736c-4.012,3.978-7.837,5.967-11.477,5.967
		c-2.472,0-4.333-0.778-5.586-2.336c-1.253-1.558-1.879-3.275-1.879-5.154c0-2.522,0.778-5.104,2.336-7.744
		c1.557-2.641,3.512-4.693,5.865-6.157c2.353-1.464,4.773-2.196,7.262-2.196c1.794,0,3.123,0.364,3.986,1.092
		s1.295,1.591,1.295,2.59c0,1.405-0.559,2.751-1.676,4.037c-1.473,1.676-3.64,3.03-6.5,4.062
		C195.061,112.712,192.395,113.253,188.959,113.642z M189.136,112.398c2.505-0.288,4.545-0.778,6.119-1.473
		c2.082-0.931,3.644-2.044,4.685-3.339s1.562-2.526,1.562-3.694c0-0.711-0.225-1.286-0.673-1.727c-0.449-0.44-1.088-0.66-1.917-0.66
		c-1.727,0-3.559,0.918-5.497,2.755C191.476,106.097,190.051,108.809,189.136,112.398z"/>
	<path d="M219.961,101.81l7.338-1.574c0.524,1.253,0.948,2.53,1.27,3.834c0.457,1.913,0.829,4.181,1.117,6.805
		c0.135,1.32,0.321,4.113,0.559,8.379c2.116-2.336,3.377-3.783,3.783-4.342c2.234-3.03,3.521-4.808,3.859-5.332
		c0.559-0.897,0.948-1.685,1.168-2.361c0.186-0.508,0.279-0.99,0.279-1.447c0-0.44-0.394-0.948-1.181-1.523s-1.181-1.219-1.181-1.93
		c0-0.542,0.216-1.024,0.647-1.447s0.943-0.635,1.536-0.635c0.711,0,1.337,0.292,1.879,0.876c0.542,0.584,0.812,1.308,0.812,2.171
		s-0.136,1.692-0.406,2.488c-0.44,1.286-1.261,2.856-2.463,4.71c-1.202,1.854-3.14,4.338-5.814,7.452
		c-0.339,0.39-2.218,2.353-5.637,5.891h-0.939c-0.406-10.715-1.253-17.401-2.539-20.059c-0.423-0.863-1.126-1.295-2.107-1.295
		c-0.423,0-1.024,0.076-1.803,0.229L219.961,101.81z"/>
	<path d="M253.883,100.236l-5.027,17.799c-0.339,1.202-0.508,1.921-0.508,2.158c0,0.271,0.08,0.491,0.241,0.66
		c0.161,0.169,0.351,0.254,0.571,0.254c0.254,0,0.559-0.136,0.914-0.406c0.965-0.762,1.938-1.845,2.92-3.25l0.889,0.584
		c-1.151,1.761-2.505,3.241-4.062,4.443c-1.151,0.897-2.251,1.346-3.301,1.346c-0.694,0-1.261-0.207-1.701-0.622
		c-0.44-0.415-0.66-0.936-0.66-1.562s0.211-1.667,0.635-3.123l3.301-11.375c0.542-1.862,0.812-3.03,0.812-3.504
		c0-0.372-0.131-0.677-0.394-0.914c-0.263-0.237-0.622-0.355-1.079-0.355c-0.373,0-1.143,0.093-2.311,0.279v-0.99L253.883,100.236z
		 M253.552,90.156c0.711,0,1.312,0.245,1.803,0.736c0.491,0.491,0.736,1.092,0.736,1.803c0,0.694-0.25,1.291-0.749,1.79
		c-0.5,0.499-1.096,0.749-1.79,0.749c-0.694,0-1.291-0.25-1.79-0.749c-0.5-0.499-0.749-1.096-0.749-1.79
		c0-0.711,0.245-1.312,0.736-1.803C252.24,90.401,252.842,90.156,253.552,90.156z"/>
	<path d="M275.236,100.236l-1.549,7.795h-0.939c-0.085-2.269-0.567-3.919-1.447-4.951c-0.88-1.032-1.972-1.549-3.275-1.549
		c-1.05,0-1.883,0.288-2.501,0.863c-0.618,0.575-0.927,1.27-0.927,2.082c0,0.559,0.123,1.092,0.368,1.6
		c0.245,0.508,0.783,1.219,1.612,2.133c2.2,2.403,3.622,4.215,4.266,5.434c0.643,1.219,0.965,2.37,0.965,3.453
		c0,1.761-0.732,3.322-2.196,4.685c-1.464,1.362-3.313,2.044-5.548,2.044c-1.219,0-2.624-0.288-4.215-0.863
		c-0.559-0.203-0.99-0.305-1.295-0.305c-0.762,0-1.337,0.39-1.727,1.168h-0.939l1.549-8.227h0.939
		c0.102,2.573,0.635,4.393,1.6,5.459s2.285,1.6,3.961,1.6c1.286,0,2.306-0.359,3.06-1.079c0.753-0.72,1.13-1.604,1.13-2.653
		c0-0.677-0.136-1.304-0.406-1.879c-0.474-1.016-1.469-2.421-2.983-4.215c-1.515-1.794-2.488-3.14-2.92-4.037
		s-0.647-1.794-0.647-2.691c0-1.642,0.597-3.03,1.79-4.164s2.729-1.701,4.608-1.701c0.542,0,1.032,0.042,1.473,0.127
		c0.237,0.051,0.791,0.241,1.663,0.571c0.872,0.33,1.451,0.495,1.739,0.495c0.728,0,1.337-0.397,1.828-1.193H275.236z"/>
	<path d="M288.566,100.236l-5.027,17.799c-0.339,1.202-0.508,1.921-0.508,2.158c0,0.271,0.08,0.491,0.241,0.66
		c0.161,0.169,0.351,0.254,0.571,0.254c0.254,0,0.559-0.136,0.914-0.406c0.965-0.762,1.938-1.845,2.92-3.25l0.889,0.584
		c-1.151,1.761-2.505,3.241-4.062,4.443c-1.151,0.897-2.251,1.346-3.301,1.346c-0.694,0-1.261-0.207-1.701-0.622
		c-0.44-0.415-0.66-0.936-0.66-1.562s0.211-1.667,0.635-3.123l3.301-11.375c0.542-1.862,0.812-3.03,0.812-3.504
		c0-0.372-0.131-0.677-0.394-0.914c-0.263-0.237-0.622-0.355-1.079-0.355c-0.373,0-1.143,0.093-2.311,0.279v-0.99L288.566,100.236z
		 M288.236,90.156c0.711,0,1.312,0.245,1.803,0.736c0.491,0.491,0.736,1.092,0.736,1.803c0,0.694-0.25,1.291-0.749,1.79
		c-0.5,0.499-1.096,0.749-1.79,0.749c-0.694,0-1.291-0.25-1.79-0.749c-0.5-0.499-0.749-1.096-0.749-1.79
		c0-0.711,0.245-1.312,0.736-1.803C286.924,90.401,287.525,90.156,288.236,90.156z"/>
	<path d="M304.562,93.939l-1.98,6.906h3.986l-0.432,1.6h-3.961l-4.367,14.98c-0.474,1.608-0.711,2.649-0.711,3.123
		c0,0.288,0.067,0.508,0.203,0.66c0.135,0.152,0.296,0.229,0.482,0.229c0.423,0,0.981-0.296,1.676-0.889
		c0.406-0.339,1.312-1.38,2.717-3.123l0.838,0.635c-1.558,2.269-3.03,3.868-4.418,4.799c-0.948,0.644-1.904,0.965-2.869,0.965
		c-0.745,0-1.354-0.232-1.828-0.698c-0.474-0.466-0.711-1.062-0.711-1.79c0-0.914,0.271-2.311,0.812-4.189l4.24-14.701h-3.834
		l0.254-0.99c1.862-0.508,3.411-1.266,4.646-2.272c1.235-1.007,2.615-2.755,4.139-5.243H304.562z"/>
	<path d="M342.979,100.845l-4.418,15.133c-0.66,2.251-0.99,3.673-0.99,4.266c0,0.305,0.055,0.529,0.164,0.673
		c0.11,0.144,0.258,0.216,0.445,0.216c0.287,0,0.604-0.131,0.951-0.394c0.348-0.263,1.223-1.308,2.629-3.136l0.762,0.584
		c-1.338,2.116-2.709,3.673-4.113,4.672c-0.932,0.644-1.828,0.965-2.691,0.965c-0.66,0-1.178-0.187-1.549-0.559
		c-0.373-0.372-0.559-0.854-0.559-1.447c0-0.575,0.109-1.337,0.33-2.285c0.27-1.253,1.041-3.978,2.311-8.176
		c-2.879,4.723-5.286,7.981-7.225,9.775c-1.938,1.794-3.736,2.691-5.395,2.691c-0.779,0-1.439-0.271-1.98-0.812
		c-0.543-0.542-0.812-1.228-0.812-2.057c0-1.27,0.371-3.216,1.117-5.84l2.209-7.846c0.541-1.879,0.812-3.047,0.812-3.504
		c0-0.203-0.072-0.377-0.217-0.521c-0.144-0.144-0.301-0.216-0.469-0.216c-0.355,0-0.711,0.127-1.066,0.381s-1.16,1.193-2.412,2.818
		l-0.787-0.559c1.27-1.964,2.615-3.411,4.037-4.342c1.082-0.728,2.082-1.092,2.996-1.092c0.625,0,1.138,0.199,1.535,0.597
		c0.398,0.397,0.598,0.91,0.598,1.536c0,0.914-0.34,2.548-1.016,4.9l-2.387,8.201c-0.66,2.234-0.99,3.647-0.99,4.24
		c0,0.321,0.105,0.58,0.316,0.774c0.212,0.194,0.496,0.292,0.852,0.292c0.559,0,1.285-0.279,2.184-0.838
		c0.896-0.559,2.094-1.799,3.592-3.72s2.734-3.724,3.707-5.408c0.974-1.685,2.01-4.363,3.111-8.036l0.559-1.93H342.979z"/>
	<path d="M363.367,100.236l-1.549,7.795h-0.939c-0.086-2.269-0.568-3.919-1.447-4.951c-0.881-1.032-1.973-1.549-3.275-1.549
		c-1.051,0-1.884,0.288-2.502,0.863c-0.617,0.575-0.926,1.27-0.926,2.082c0,0.559,0.122,1.092,0.367,1.6
		c0.246,0.508,0.783,1.219,1.613,2.133c2.199,2.403,3.621,4.215,4.266,5.434c0.643,1.219,0.965,2.37,0.965,3.453
		c0,1.761-0.732,3.322-2.197,4.685c-1.464,1.362-3.312,2.044-5.547,2.044c-1.219,0-2.625-0.288-4.215-0.863
		c-0.559-0.203-0.99-0.305-1.295-0.305c-0.762,0-1.338,0.39-1.727,1.168h-0.939l1.549-8.227h0.939
		c0.102,2.573,0.635,4.393,1.6,5.459s2.285,1.6,3.961,1.6c1.285,0,2.306-0.359,3.059-1.079c0.754-0.72,1.131-1.604,1.131-2.653
		c0-0.677-0.137-1.304-0.406-1.879c-0.475-1.016-1.469-2.421-2.984-4.215c-1.515-1.794-2.488-3.14-2.92-4.037
		s-0.646-1.794-0.646-2.691c0-1.642,0.596-3.03,1.789-4.164s2.73-1.701,4.609-1.701c0.541,0,1.031,0.042,1.473,0.127
		c0.236,0.051,0.791,0.241,1.662,0.571c0.872,0.33,1.451,0.495,1.74,0.495c0.727,0,1.336-0.397,1.828-1.193H363.367z"/>
	<path d="M391.246,93.939l-1.98,6.906h3.986l-0.432,1.6h-3.961l-4.367,14.98c-0.475,1.608-0.711,2.649-0.711,3.123
		c0,0.288,0.066,0.508,0.203,0.66c0.135,0.152,0.295,0.229,0.482,0.229c0.422,0,0.98-0.296,1.676-0.889
		c0.406-0.339,1.311-1.38,2.717-3.123l0.838,0.635c-1.559,2.269-3.031,3.868-4.418,4.799c-0.949,0.644-1.904,0.965-2.869,0.965
		c-0.746,0-1.355-0.232-1.828-0.698c-0.475-0.466-0.711-1.062-0.711-1.79c0-0.914,0.27-2.311,0.812-4.189l4.24-14.701h-3.834
		l0.254-0.99c1.861-0.508,3.41-1.266,4.646-2.272c1.234-1.007,2.615-2.755,4.139-5.243H391.246z"/>
	<path d="M416.231,108.183c0,2.539-0.674,5.053-2.02,7.541s-3.221,4.46-5.623,5.916c-2.404,1.456-4.74,2.184-7.008,2.184
		c-2.32,0-4.211-0.74-5.676-2.222c-1.464-1.481-2.195-3.398-2.195-5.751c0-2.488,0.715-4.985,2.145-7.49
		c1.431-2.505,3.344-4.485,5.738-5.941c2.396-1.456,4.711-2.184,6.945-2.184s4.074,0.736,5.521,2.209
		S416.231,105.831,416.231,108.183z M412.016,106.431c0-1.574-0.386-2.78-1.156-3.618c-0.77-0.838-1.764-1.257-2.982-1.257
		c-2.488,0-4.778,1.781-6.869,5.345c-2.09,3.563-3.135,7.105-3.135,10.626c0,1.608,0.406,2.848,1.219,3.72s1.836,1.308,3.072,1.308
		c2.387,0,4.625-1.773,6.715-5.319C410.97,113.689,412.016,110.088,412.016,106.431z"/>
	<path d="M446.065,87.109l-7.211,24.959l2.895-2.463c3.164-2.675,5.221-4.655,6.17-5.941c0.305-0.423,0.457-0.745,0.457-0.965
		c0-0.152-0.051-0.296-0.152-0.432s-0.301-0.245-0.598-0.33c-0.296-0.085-0.816-0.127-1.561-0.127h-0.889l0.279-0.965h11.096
		l-0.254,0.965c-1.27,0.067-2.366,0.267-3.289,0.597c-0.922,0.33-1.814,0.816-2.678,1.46c-1.711,1.27-2.836,2.149-3.377,2.641
		l-2.184,1.93c0.371,1.219,0.828,2.92,1.371,5.104c0.914,3.622,1.531,5.772,1.854,6.449c0.32,0.677,0.65,1.016,0.99,1.016
		c0.287,0,0.625-0.144,1.016-0.432c0.879-0.644,1.818-1.667,2.818-3.072l0.889,0.635c-1.846,2.319-3.26,3.847-4.24,4.583
		c-0.982,0.736-1.879,1.104-2.691,1.104c-0.711,0-1.262-0.279-1.65-0.838c-0.678-0.999-1.803-4.935-3.377-11.807l-3.479,3.021
		l-2.615,9.014h-3.961l8.43-28.971l0.711-2.463c0.084-0.423,0.127-0.796,0.127-1.117c0-0.406-0.157-0.745-0.471-1.016
		c-0.312-0.271-0.766-0.406-1.357-0.406c-0.391,0-1.008,0.085-1.854,0.254v-0.889L446.065,87.109z"/>
	<path d="M460.461,113.642c-0.119,0.847-0.178,1.549-0.178,2.107c0,1.507,0.533,2.789,1.6,3.847s2.361,1.587,3.885,1.587
		c1.219,0,2.391-0.25,3.516-0.749c1.126-0.499,2.797-1.604,5.016-3.313l0.533,0.736c-4.012,3.978-7.838,5.967-11.477,5.967
		c-2.473,0-4.334-0.778-5.586-2.336c-1.254-1.558-1.879-3.275-1.879-5.154c0-2.522,0.777-5.104,2.336-7.744
		c1.557-2.641,3.512-4.693,5.865-6.157c2.352-1.464,4.773-2.196,7.262-2.196c1.793,0,3.123,0.364,3.986,1.092
		s1.295,1.591,1.295,2.59c0,1.405-0.559,2.751-1.676,4.037c-1.473,1.676-3.641,3.03-6.5,4.062
		C466.563,112.712,463.897,113.253,460.461,113.642z M460.639,112.398c2.504-0.288,4.545-0.778,6.119-1.473
		c2.082-0.931,3.643-2.044,4.684-3.339s1.562-2.526,1.562-3.694c0-0.711-0.225-1.286-0.674-1.727c-0.448-0.44-1.088-0.66-1.916-0.66
		c-1.727,0-3.56,0.918-5.498,2.755C462.979,106.097,461.553,108.809,460.639,112.398z"/>
	<path d="M483.541,113.642c-0.119,0.847-0.178,1.549-0.178,2.107c0,1.507,0.533,2.789,1.6,3.847s2.361,1.587,3.885,1.587
		c1.219,0,2.391-0.25,3.516-0.749c1.126-0.499,2.797-1.604,5.016-3.313l0.533,0.736c-4.012,3.978-7.838,5.967-11.477,5.967
		c-2.473,0-4.334-0.778-5.586-2.336c-1.254-1.558-1.879-3.275-1.879-5.154c0-2.522,0.777-5.104,2.336-7.744
		c1.557-2.641,3.512-4.693,5.865-6.157c2.352-1.464,4.773-2.196,7.262-2.196c1.793,0,3.123,0.364,3.986,1.092
		s1.295,1.591,1.295,2.59c0,1.405-0.559,2.751-1.676,4.037c-1.473,1.676-3.641,3.03-6.5,4.062
		C489.643,112.712,486.977,113.253,483.541,113.642z M483.719,112.398c2.504-0.288,4.545-0.778,6.119-1.473
		c2.082-0.931,3.643-2.044,4.684-3.339s1.562-2.526,1.562-3.694c0-0.711-0.225-1.286-0.674-1.727c-0.447-0.44-1.088-0.66-1.916-0.66
		c-1.727,0-3.56,0.918-5.498,2.755C486.059,106.097,484.633,108.809,483.719,112.398z"/>
	<path d="M511.928,100.236l-1.752,5.84c1.844-2.167,3.49-3.682,4.938-4.545s2.924-1.295,4.432-1.295c1.506,0,2.793,0.597,3.859,1.79
		s1.6,2.746,1.6,4.659c0,3.724-1.516,7.512-4.545,11.362c-3.031,3.851-6.561,5.776-10.588,5.776c-0.848,0-1.596-0.093-2.248-0.279
		c-0.65-0.187-1.383-0.517-2.195-0.99l-1.854,6.551c-0.373,1.286-0.559,2.124-0.559,2.514c0,0.372,0.098,0.689,0.291,0.952
		c0.195,0.263,0.512,0.466,0.953,0.609c0.439,0.144,1.311,0.216,2.615,0.216l-0.229,0.939h-11.959l0.254-0.939
		c1.574-0.067,2.637-0.339,3.186-0.812c0.551-0.474,1.131-1.786,1.74-3.936l6.424-22.242c0.389-1.405,0.584-2.276,0.584-2.615
		c0-0.457-0.131-0.812-0.395-1.066c-0.262-0.254-0.664-0.381-1.205-0.381c-0.492,0-1.178,0.06-2.057,0.178v-0.99L511.928,100.236z
		 M506.012,120.549c1.049,1.253,2.463,1.879,4.24,1.879c0.879,0,1.777-0.245,2.691-0.736s1.807-1.219,2.678-2.184
		c0.873-0.965,1.654-2.078,2.35-3.339c0.693-1.261,1.316-2.746,1.865-4.456c0.551-1.71,0.826-3.402,0.826-5.078
		c0-1.354-0.309-2.391-0.928-3.11c-0.617-0.72-1.342-1.079-2.17-1.079c-1.828,0-3.635,1.05-5.422,3.148
		c-1.785,2.099-3.094,4.554-3.922,7.363L506.012,120.549z"/>
</g>
<g enable-background="new    ">
	<path d="M97.476,163.246l-4.418,15.133c-0.66,2.251-0.99,3.673-0.99,4.266c0,0.305,0.055,0.529,0.165,0.673
		c0.11,0.144,0.258,0.216,0.444,0.216c0.288,0,0.605-0.131,0.952-0.394c0.347-0.263,1.223-1.308,2.628-3.136l0.762,0.584
		c-1.337,2.116-2.708,3.673-4.113,4.672c-0.931,0.644-1.828,0.965-2.691,0.965c-0.66,0-1.177-0.187-1.549-0.559
		c-0.373-0.372-0.559-0.854-0.559-1.447c0-0.575,0.11-1.337,0.33-2.285c0.271-1.253,1.041-3.978,2.311-8.176
		c-2.878,4.723-5.286,7.981-7.224,9.775c-1.938,1.794-3.737,2.691-5.396,2.691c-0.779,0-1.439-0.271-1.98-0.812
		c-0.542-0.542-0.812-1.228-0.812-2.057c0-1.27,0.372-3.216,1.117-5.84l2.209-7.846c0.542-1.879,0.812-3.047,0.812-3.504
		c0-0.203-0.072-0.377-0.216-0.521c-0.144-0.144-0.301-0.216-0.47-0.216c-0.355,0-0.711,0.127-1.066,0.381s-1.16,1.193-2.412,2.818
		l-0.787-0.559c1.27-1.964,2.615-3.411,4.037-4.342c1.083-0.728,2.082-1.092,2.996-1.092c0.626,0,1.138,0.199,1.536,0.597
		c0.397,0.397,0.597,0.91,0.597,1.536c0,0.914-0.339,2.548-1.016,4.9l-2.387,8.201c-0.66,2.234-0.99,3.647-0.99,4.24
		c0,0.321,0.105,0.58,0.317,0.774c0.211,0.194,0.495,0.292,0.851,0.292c0.559,0,1.286-0.279,2.184-0.838
		c0.897-0.559,2.095-1.799,3.593-3.72s2.733-3.724,3.707-5.408c0.973-1.685,2.01-4.363,3.11-8.036l0.559-1.93H97.476z"/>
	<path d="M110.502,162.636l-1.752,5.84c1.845-2.167,3.491-3.682,4.938-4.545s2.924-1.295,4.431-1.295
		c1.506,0,2.793,0.597,3.859,1.79s1.6,2.746,1.6,4.659c0,3.724-1.515,7.512-4.545,11.362c-3.03,3.851-6.56,5.776-10.588,5.776
		c-0.847,0-1.596-0.093-2.247-0.279c-0.652-0.187-1.384-0.517-2.196-0.99l-1.854,6.551c-0.373,1.286-0.559,2.124-0.559,2.514
		c0,0.372,0.097,0.689,0.292,0.952c0.194,0.263,0.512,0.466,0.952,0.609c0.44,0.144,1.312,0.216,2.615,0.216l-0.229,0.939H93.261
		l0.254-0.939c1.574-0.067,2.637-0.339,3.187-0.812c0.55-0.474,1.13-1.786,1.739-3.936l6.424-22.242
		c0.389-1.405,0.584-2.276,0.584-2.615c0-0.457-0.131-0.812-0.394-1.066c-0.263-0.254-0.665-0.381-1.206-0.381
		c-0.491,0-1.177,0.06-2.057,0.178v-0.99L110.502,162.636z M104.586,182.949c1.049,1.253,2.463,1.879,4.24,1.879
		c0.88,0,1.777-0.245,2.691-0.736s1.807-1.219,2.679-2.184c0.872-0.965,1.654-2.078,2.349-3.339
		c0.694-1.261,1.316-2.746,1.866-4.456c0.55-1.71,0.825-3.402,0.825-5.078c0-1.354-0.309-2.391-0.927-3.11
		c-0.618-0.72-1.342-1.079-2.171-1.079c-1.828,0-3.635,1.05-5.421,3.148c-1.786,2.099-3.094,4.554-3.923,7.363L104.586,182.949z"/>
	<path d="M151.508,156.34l-1.98,6.906h3.986l-0.432,1.6h-3.961l-4.367,14.98c-0.474,1.608-0.711,2.649-0.711,3.123
		c0,0.288,0.067,0.508,0.203,0.66c0.135,0.152,0.296,0.229,0.482,0.229c0.423,0,0.981-0.296,1.676-0.889
		c0.406-0.339,1.312-1.38,2.717-3.123l0.838,0.635c-1.558,2.269-3.03,3.868-4.418,4.799c-0.948,0.644-1.904,0.965-2.869,0.965
		c-0.745,0-1.354-0.232-1.828-0.698c-0.474-0.466-0.711-1.062-0.711-1.79c0-0.914,0.271-2.311,0.812-4.189l4.24-14.701h-3.834
		l0.254-0.99c1.862-0.508,3.411-1.266,4.646-2.272c1.235-1.007,2.615-2.755,4.139-5.243H151.508z"/>
	<path d="M176.492,170.584c0,2.539-0.673,5.053-2.019,7.541s-3.221,4.46-5.624,5.916c-2.404,1.456-4.74,2.184-7.008,2.184
		c-2.319,0-4.211-0.74-5.675-2.222c-1.464-1.481-2.196-3.398-2.196-5.751c0-2.488,0.715-4.985,2.146-7.49
		c1.43-2.505,3.343-4.485,5.738-5.941c2.395-1.456,4.71-2.184,6.944-2.184s4.075,0.736,5.522,2.209S176.492,168.231,176.492,170.584
		z M172.277,168.832c0-1.574-0.385-2.78-1.155-3.618c-0.771-0.838-1.765-1.257-2.983-1.257c-2.488,0-4.778,1.781-6.868,5.345
		c-2.091,3.563-3.136,7.105-3.136,10.626c0,1.608,0.406,2.848,1.219,3.72s1.836,1.308,3.072,1.308c2.387,0,4.625-1.773,6.716-5.319
		C171.232,176.09,172.277,172.488,172.277,168.832z"/>
	<path d="M219.58,149.51l-8.734,29.961c-0.474,1.625-0.711,2.691-0.711,3.199c0,0.169,0.072,0.33,0.216,0.482
		c0.144,0.152,0.292,0.229,0.444,0.229c0.22,0,0.482-0.11,0.787-0.33c0.575-0.406,1.54-1.422,2.895-3.047l0.863,0.533
		c-1.219,1.692-2.45,3.063-3.694,4.113s-2.408,1.574-3.491,1.574c-0.576,0-1.05-0.203-1.422-0.609
		c-0.373-0.406-0.559-0.981-0.559-1.727c0-0.965,0.254-2.26,0.762-3.885l0.99-3.148c-2.455,3.792-4.689,6.415-6.703,7.871
		c-1.388,0.999-2.717,1.498-3.986,1.498c-1.287,0-2.408-0.571-3.364-1.714c-0.957-1.143-1.435-2.695-1.435-4.659
		c0-2.522,0.804-5.214,2.412-8.074c1.608-2.86,3.732-5.188,6.373-6.982c2.082-1.438,3.995-2.158,5.738-2.158
		c0.914,0,1.701,0.187,2.361,0.559s1.312,0.99,1.955,1.854l2.488-8.836c0.186-0.626,0.338-1.126,0.457-1.498
		c0.203-0.677,0.305-1.235,0.305-1.676c0-0.355-0.127-0.651-0.381-0.889c-0.355-0.288-0.812-0.432-1.371-0.432
		c-0.39,0-1.033,0.06-1.93,0.178v-0.939L219.58,149.51z M210.16,167.537c0-1.083-0.313-1.955-0.939-2.615
		c-0.626-0.66-1.422-0.99-2.387-0.99c-2.133,0-4.354,1.761-6.665,5.281s-3.466,6.89-3.466,10.105c0,1.27,0.279,2.238,0.838,2.907
		s1.227,1.003,2.006,1.003c1.76,0,3.969-1.904,6.627-5.713C208.831,173.707,210.16,170.381,210.16,167.537z"/>
	<path d="M241.847,162.636l-4.951,17.215l-0.559,2.311c-0.051,0.22-0.076,0.406-0.076,0.559c0,0.271,0.084,0.508,0.254,0.711
		c0.135,0.152,0.305,0.229,0.508,0.229c0.22,0,0.508-0.136,0.863-0.406c0.66-0.491,1.54-1.507,2.641-3.047l0.863,0.609
		c-1.168,1.761-2.37,3.102-3.605,4.024c-1.236,0.923-2.378,1.384-3.428,1.384c-0.728,0-1.274-0.182-1.638-0.546
		c-0.364-0.364-0.546-0.893-0.546-1.587c0-0.829,0.186-1.921,0.559-3.275l0.533-1.904c-2.218,2.895-4.257,4.917-6.119,6.068
		c-1.337,0.829-2.649,1.244-3.936,1.244c-1.236,0-2.302-0.512-3.199-1.536c-0.897-1.024-1.346-2.434-1.346-4.228
		c0-2.691,0.808-5.531,2.425-8.519c1.616-2.987,3.669-5.379,6.157-7.173c1.946-1.422,3.783-2.133,5.51-2.133
		c1.032,0,1.892,0.271,2.577,0.812s1.206,1.438,1.562,2.691l0.914-2.895L241.847,162.636z M232.808,163.957
		c-1.083,0-2.234,0.508-3.453,1.523c-1.727,1.438-3.263,3.571-4.608,6.398s-2.019,5.383-2.019,7.668
		c0,1.151,0.288,2.061,0.863,2.729c0.575,0.669,1.235,1.003,1.98,1.003c1.845,0,3.851-1.362,6.018-4.088
		c2.895-3.622,4.342-7.338,4.342-11.146c0-1.438-0.279-2.479-0.838-3.123S233.773,163.957,232.808,163.957z"/>
	<path d="M256.955,156.34l-1.98,6.906h3.986l-0.432,1.6h-3.961l-4.367,14.98c-0.474,1.608-0.711,2.649-0.711,3.123
		c0,0.288,0.067,0.508,0.203,0.66c0.135,0.152,0.296,0.229,0.482,0.229c0.423,0,0.981-0.296,1.676-0.889
		c0.406-0.339,1.312-1.38,2.717-3.123l0.838,0.635c-1.558,2.269-3.03,3.868-4.418,4.799c-0.948,0.644-1.904,0.965-2.869,0.965
		c-0.745,0-1.354-0.232-1.828-0.698c-0.474-0.466-0.711-1.062-0.711-1.79c0-0.914,0.271-2.311,0.812-4.189l4.24-14.701h-3.834
		l0.254-0.99c1.862-0.508,3.411-1.266,4.646-2.272c1.235-1.007,2.615-2.755,4.139-5.243H256.955z"/>
	<path d="M264.09,176.043c-0.119,0.847-0.178,1.549-0.178,2.107c0,1.507,0.533,2.789,1.6,3.847s2.361,1.587,3.885,1.587
		c1.219,0,2.391-0.25,3.517-0.749c1.125-0.499,2.797-1.604,5.015-3.313l0.533,0.736c-4.012,3.978-7.837,5.967-11.477,5.967
		c-2.472,0-4.333-0.778-5.586-2.336c-1.253-1.558-1.879-3.275-1.879-5.154c0-2.522,0.778-5.104,2.336-7.744
		c1.557-2.641,3.512-4.693,5.865-6.157c2.353-1.464,4.773-2.196,7.262-2.196c1.794,0,3.123,0.364,3.986,1.092
		s1.295,1.591,1.295,2.59c0,1.405-0.559,2.751-1.676,4.037c-1.473,1.676-3.64,3.03-6.5,4.062
		C270.192,175.112,267.526,175.653,264.09,176.043z M264.267,174.799c2.505-0.288,4.545-0.778,6.119-1.473
		c2.082-0.931,3.644-2.044,4.685-3.339s1.562-2.526,1.562-3.694c0-0.711-0.225-1.286-0.673-1.727c-0.449-0.44-1.088-0.66-1.917-0.66
		c-1.727,0-3.559,0.918-5.497,2.755C266.607,168.498,265.181,171.21,264.267,174.799z"/>
	<path d="M286.636,180.994c0.711,0,1.312,0.25,1.803,0.749c0.491,0.499,0.736,1.104,0.736,1.815c0,0.694-0.25,1.291-0.749,1.79
		c-0.5,0.499-1.096,0.749-1.79,0.749c-0.711,0-1.316-0.25-1.815-0.749c-0.5-0.499-0.749-1.096-0.749-1.79
		c0-0.711,0.25-1.316,0.749-1.815C285.32,181.244,285.926,180.994,286.636,180.994z M292.019,162.611c0.711,0,1.32,0.25,1.828,0.749
		s0.762,1.104,0.762,1.815s-0.254,1.32-0.762,1.828s-1.117,0.762-1.828,0.762s-1.32-0.254-1.828-0.762s-0.762-1.117-0.762-1.828
		s0.254-1.316,0.762-1.815S291.308,162.611,292.019,162.611z"/>
</g>
<g>
	<path fill="#0000FF" d="M319.746,149.51v17.012c1.879-2.065,3.367-3.39,4.469-3.974c1.1-0.584,2.199-0.876,3.301-0.876
		c1.32,0,2.453,0.364,3.402,1.092c0.947,0.728,1.65,1.87,2.107,3.428c0.32,1.083,0.482,3.063,0.482,5.941v8.227
		c0,1.473,0.117,2.479,0.355,3.021c0.168,0.406,0.457,0.728,0.863,0.965s1.15,0.355,2.234,0.355v0.914h-11.426v-0.914h0.533
		c1.082,0,1.836-0.165,2.26-0.495c0.422-0.33,0.719-0.816,0.889-1.46c0.051-0.271,0.076-1.066,0.076-2.387v-8.227
		c0-2.539-0.132-4.206-0.395-5.002c-0.262-0.796-0.682-1.393-1.256-1.79c-0.576-0.397-1.27-0.597-2.082-0.597
		c-0.83,0-1.693,0.22-2.59,0.66c-0.898,0.44-1.973,1.329-3.225,2.666v12.289c0,1.591,0.088,2.581,0.266,2.971
		s0.508,0.715,0.99,0.978s1.316,0.394,2.502,0.394v0.914h-11.528v-0.914c1.032,0,1.845-0.161,2.438-0.482
		c0.338-0.169,0.609-0.491,0.812-0.965s0.305-1.438,0.305-2.895V159.31c0-2.657-0.063-4.291-0.19-4.9s-0.322-1.024-0.584-1.244
		c-0.263-0.22-0.614-0.33-1.054-0.33c-0.355,0-0.931,0.136-1.727,0.406l-0.355-0.889l6.957-2.844H319.746z"/>
	<path fill="#0000FF" d="M345.67,154.715v7.643h5.434v1.777h-5.434v15.082c0,1.507,0.215,2.522,0.646,3.047s0.986,0.787,1.664,0.787
		c0.559,0,1.1-0.174,1.625-0.521c0.523-0.347,0.93-0.859,1.219-1.536h0.99c-0.594,1.659-1.432,2.907-2.514,3.745
		c-1.084,0.838-2.201,1.257-3.352,1.257c-0.779,0-1.541-0.216-2.285-0.647c-0.746-0.432-1.295-1.05-1.65-1.854
		s-0.533-2.044-0.533-3.72v-15.641h-3.682v-0.838c0.93-0.372,1.883-1.003,2.855-1.892c0.974-0.889,1.842-1.942,2.604-3.161
		c0.389-0.644,0.93-1.819,1.625-3.529H345.67z"/>
	<path fill="#0000FF" d="M360.117,154.715v7.643h5.434v1.777h-5.434v15.082c0,1.507,0.215,2.522,0.646,3.047
		s0.986,0.787,1.664,0.787c0.559,0,1.1-0.174,1.625-0.521c0.523-0.347,0.93-0.859,1.219-1.536h0.99
		c-0.594,1.659-1.432,2.907-2.514,3.745c-1.084,0.838-2.201,1.257-3.352,1.257c-0.779,0-1.541-0.216-2.285-0.647
		c-0.746-0.432-1.295-1.05-1.65-1.854s-0.533-2.044-0.533-3.72v-15.641h-3.682v-0.838c0.93-0.372,1.883-1.003,2.855-1.892
		c0.974-0.889,1.842-1.942,2.604-3.161c0.389-0.644,0.93-1.819,1.625-3.529H360.117z"/>
	<path fill="#0000FF" d="M366.135,164.668l7.16-2.895h0.965v5.434c1.201-2.048,2.407-3.482,3.617-4.304
		c1.211-0.821,2.484-1.231,3.822-1.231c2.336,0,4.281,0.914,5.84,2.742c1.912,2.234,2.869,5.146,2.869,8.734
		c0,4.012-1.152,7.329-3.453,9.953c-1.896,2.149-4.283,3.225-7.16,3.225c-1.254,0-2.336-0.178-3.25-0.533
		c-0.678-0.254-1.439-0.762-2.285-1.523v7.084c0,1.591,0.097,2.603,0.291,3.034c0.195,0.432,0.533,0.774,1.016,1.028
		s1.359,0.381,2.629,0.381v0.939h-12.188v-0.939h0.635c0.93,0.017,1.727-0.161,2.387-0.533c0.32-0.187,0.57-0.486,0.748-0.901
		s0.268-1.469,0.268-3.161v-21.988c0-1.507-0.068-2.463-0.203-2.869c-0.137-0.406-0.352-0.711-0.648-0.914
		c-0.296-0.203-0.697-0.305-1.205-0.305c-0.406,0-0.924,0.118-1.549,0.355L366.135,164.668z M374.26,168.705v8.684
		c0,1.879,0.076,3.114,0.229,3.707c0.236,0.981,0.816,1.845,1.738,2.59c0.923,0.745,2.086,1.117,3.492,1.117
		c1.691,0,3.062-0.66,4.113-1.98c1.371-1.727,2.057-4.155,2.057-7.287c0-3.555-0.779-6.288-2.336-8.201
		c-1.084-1.32-2.371-1.98-3.859-1.98c-0.812,0-1.617,0.203-2.412,0.609C376.672,166.267,375.664,167.181,374.26,168.705z"/>
	<path fill="#0000FF" d="M408.842,161.672v7.922h-0.838c-0.645-2.488-1.469-4.181-2.477-5.078c-1.007-0.897-2.289-1.346-3.846-1.346
		c-1.186,0-2.143,0.313-2.869,0.939c-0.729,0.626-1.092,1.32-1.092,2.082c0,0.948,0.27,1.761,0.812,2.438
		c0.523,0.694,1.59,1.431,3.199,2.209l3.707,1.803c3.436,1.676,5.154,3.885,5.154,6.627c0,2.116-0.801,3.821-2.4,5.116
		s-3.389,1.942-5.369,1.942c-1.422,0-3.047-0.254-4.875-0.762c-0.559-0.169-1.016-0.254-1.371-0.254c-0.391,0-0.695,0.22-0.914,0.66
		h-0.838v-8.303h0.838c0.473,2.37,1.379,4.155,2.717,5.357c1.336,1.202,2.834,1.803,4.494,1.803c1.168,0,2.119-0.343,2.855-1.028
		s1.105-1.511,1.105-2.476c0-1.168-0.411-2.149-1.232-2.945c-0.82-0.796-2.459-1.803-4.912-3.021
		c-2.455-1.219-4.062-2.319-4.824-3.301c-0.762-0.965-1.143-2.184-1.143-3.656c0-1.913,0.655-3.513,1.967-4.799
		c1.312-1.286,3.01-1.93,5.092-1.93c0.914,0,2.021,0.194,3.326,0.584c0.863,0.254,1.438,0.381,1.727,0.381
		c0.27,0,0.482-0.06,0.635-0.178s0.33-0.381,0.533-0.787H408.842z"/>
	<path fill="#0000FF" d="M419.709,180.664c0.795,0,1.468,0.279,2.018,0.838c0.551,0.559,0.826,1.228,0.826,2.006
		s-0.279,1.443-0.838,1.993s-1.229,0.825-2.006,0.825c-0.779,0-1.443-0.275-1.994-0.825c-0.55-0.55-0.824-1.215-0.824-1.993
		s0.274-1.447,0.824-2.006C418.266,180.943,418.93,180.664,419.709,180.664z M419.76,161.646c0.777,0,1.442,0.275,1.992,0.825
		c0.551,0.55,0.826,1.215,0.826,1.993s-0.275,1.443-0.826,1.993c-0.55,0.55-1.215,0.825-1.992,0.825
		c-0.779,0-1.443-0.275-1.994-0.825c-0.55-0.55-0.824-1.215-0.824-1.993s0.274-1.443,0.824-1.993
		C418.317,161.922,418.981,161.646,419.76,161.646z"/>
	<path fill="#0000FF" d="M441.444,149.51l-12.467,36.816h-2.031l12.467-36.816H441.444z"/>
	<path fill="#0000FF" d="M455.891,149.51l-12.467,36.816h-2.031l12.467-36.816H455.891z"/>
	<path fill="#0000FF" d="M464.143,154.715v7.643h5.434v1.777h-5.434v15.082c0,1.507,0.215,2.522,0.646,3.047
		s0.986,0.787,1.664,0.787c0.559,0,1.1-0.174,1.625-0.521c0.523-0.347,0.93-0.859,1.219-1.536h0.99
		c-0.594,1.659-1.432,2.907-2.514,3.745c-1.084,0.838-2.201,1.257-3.352,1.257c-0.779,0-1.541-0.216-2.285-0.647
		c-0.746-0.432-1.295-1.05-1.65-1.854s-0.533-2.044-0.533-3.72v-15.641h-3.682v-0.838c0.93-0.372,1.883-1.003,2.855-1.892
		c0.974-0.889,1.842-1.942,2.604-3.161c0.389-0.644,0.93-1.819,1.625-3.529H464.143z"/>
	<path fill="#0000FF" d="M478.666,149.51v17.012c1.879-2.065,3.367-3.39,4.469-3.974c1.1-0.584,2.199-0.876,3.301-0.876
		c1.32,0,2.453,0.364,3.402,1.092c0.947,0.728,1.65,1.87,2.107,3.428c0.32,1.083,0.482,3.063,0.482,5.941v8.227
		c0,1.473,0.117,2.479,0.355,3.021c0.168,0.406,0.457,0.728,0.863,0.965s1.15,0.355,2.234,0.355v0.914h-11.426v-0.914h0.533
		c1.082,0,1.836-0.165,2.26-0.495c0.422-0.33,0.719-0.816,0.889-1.46c0.051-0.271,0.076-1.066,0.076-2.387v-8.227
		c0-2.539-0.132-4.206-0.395-5.002c-0.262-0.796-0.682-1.393-1.256-1.79c-0.576-0.397-1.27-0.597-2.082-0.597
		c-0.83,0-1.693,0.22-2.59,0.66c-0.898,0.44-1.973,1.329-3.225,2.666v12.289c0,1.591,0.088,2.581,0.266,2.971
		s0.508,0.715,0.99,0.978s1.316,0.394,2.502,0.394v0.914h-11.527v-0.914c1.031,0,1.844-0.161,2.438-0.482
		c0.338-0.169,0.609-0.491,0.812-0.965s0.305-1.438,0.305-2.895V159.31c0-2.657-0.064-4.291-0.191-4.9s-0.321-1.024-0.584-1.244
		c-0.262-0.22-0.613-0.33-1.053-0.33c-0.355,0-0.932,0.136-1.727,0.406l-0.355-0.889l6.957-2.844H478.666z"/>
	<path fill="#0000FF" d="M501.746,171.117c-0.018,3.453,0.82,6.161,2.514,8.125c1.691,1.964,3.682,2.945,5.967,2.945
		c1.523,0,2.848-0.419,3.973-1.257c1.126-0.838,2.07-2.272,2.832-4.304l0.787,0.508c-0.355,2.319-1.389,4.431-3.098,6.335
		c-1.711,1.904-3.852,2.856-6.424,2.856c-2.793,0-5.185-1.088-7.174-3.263c-1.988-2.175-2.982-5.1-2.982-8.772
		c0-3.978,1.02-7.08,3.059-9.306c2.04-2.226,4.6-3.339,7.682-3.339c2.605,0,4.748,0.859,6.424,2.577s2.514,4.016,2.514,6.894
		H501.746z M501.746,169.644h10.766c-0.086-1.489-0.264-2.539-0.533-3.148c-0.424-0.948-1.055-1.692-1.893-2.234
		s-1.713-0.812-2.627-0.812c-1.406,0-2.662,0.546-3.771,1.638C502.579,166.178,501.932,167.698,501.746,169.644z"/>
	<path fill="#0000FF" d="M311.291,192.547v-2.539h208v2.539H311.291z"/>
</g>
<g>
	<path fill="#0000FF" d="M521.399,172.031h13.127v3.834h-13.127V172.031z"/>
	<path fill="#0000FF" d="M519.291,192.547v-2.539h17.316v2.539H519.291z"/>
</g>
<g>
	<path fill="#0000FF" d="M80.998,228.768c2.251-3.132,4.68-4.697,7.287-4.697c2.387,0,4.469,1.02,6.246,3.06
		s2.666,4.828,2.666,8.366c0,4.13-1.371,7.456-4.113,9.979c-2.353,2.167-4.977,3.25-7.871,3.25c-1.354,0-2.729-0.245-4.126-0.736
		s-2.823-1.228-4.278-2.209v-24.096c0-2.641-0.063-4.266-0.19-4.875s-0.326-1.024-0.597-1.244c-0.271-0.22-0.609-0.33-1.016-0.33
		c-0.474,0-1.066,0.136-1.777,0.406l-0.355-0.889l6.982-2.844h1.143V228.768z M80.998,230.393v13.914
		c0.863,0.847,1.756,1.485,2.679,1.917c0.922,0.432,1.866,0.647,2.831,0.647c1.54,0,2.975-0.847,4.304-2.539
		c1.329-1.692,1.993-4.155,1.993-7.389c0-2.979-0.665-5.269-1.993-6.868c-1.329-1.6-2.84-2.399-4.532-2.399
		c-0.897,0-1.794,0.229-2.691,0.686C82.91,228.701,82.047,229.378,80.998,230.393z"/>
	<path fill="#0000FF" d="M113.802,244.663c-2.387,1.845-3.885,2.911-4.494,3.199c-0.914,0.423-1.888,0.635-2.92,0.635
		c-1.608,0-2.933-0.55-3.974-1.65s-1.562-2.548-1.562-4.342c0-1.134,0.254-2.116,0.762-2.945c0.694-1.151,1.9-2.234,3.618-3.25
		c1.718-1.016,4.574-2.251,8.569-3.707v-0.914c0-2.319-0.368-3.91-1.104-4.773s-1.807-1.295-3.212-1.295
		c-1.066,0-1.913,0.288-2.539,0.863c-0.644,0.575-0.965,1.235-0.965,1.98l0.051,1.473c0,0.778-0.199,1.38-0.597,1.803
		c-0.398,0.423-0.918,0.635-1.562,0.635c-0.626,0-1.139-0.22-1.536-0.66c-0.398-0.44-0.597-1.041-0.597-1.803
		c0-1.456,0.745-2.793,2.234-4.012c1.489-1.219,3.58-1.828,6.271-1.828c2.065,0,3.758,0.347,5.078,1.041
		c0.999,0.524,1.735,1.346,2.209,2.463c0.305,0.728,0.457,2.218,0.457,4.469v7.896c0,2.218,0.042,3.576,0.127,4.075
		c0.084,0.499,0.224,0.834,0.419,1.003c0.194,0.169,0.419,0.254,0.673,0.254c0.271,0,0.508-0.06,0.711-0.178
		c0.355-0.22,1.041-0.838,2.057-1.854v1.422c-1.896,2.539-3.707,3.809-5.434,3.809c-0.83,0-1.49-0.288-1.98-0.863
		C114.073,247.033,113.819,246.051,113.802,244.663z M113.802,243.012v-8.861c-2.556,1.016-4.207,1.735-4.951,2.158
		c-1.337,0.745-2.294,1.523-2.869,2.336c-0.576,0.812-0.863,1.701-0.863,2.666c0,1.219,0.364,2.23,1.092,3.034
		c0.728,0.804,1.565,1.206,2.514,1.206C110.01,245.552,111.703,244.705,113.802,243.012z"/>
	<path fill="#0000FF" d="M131.728,224.071v18.688c0,1.456,0.105,2.425,0.317,2.907c0.211,0.482,0.524,0.842,0.939,1.079
		c0.415,0.237,1.172,0.355,2.272,0.355v0.914h-11.299V247.1c1.134,0,1.896-0.11,2.285-0.33c0.389-0.22,0.698-0.584,0.927-1.092
		s0.343-1.481,0.343-2.92v-8.963c0-2.522-0.076-4.155-0.229-4.9c-0.119-0.542-0.305-0.918-0.559-1.13s-0.601-0.317-1.041-0.317
		c-0.474,0-1.05,0.127-1.727,0.381l-0.355-0.914l7.008-2.844H131.728z M129.621,211.909c0.711,0,1.316,0.25,1.815,0.749
		c0.499,0.499,0.749,1.104,0.749,1.815s-0.25,1.32-0.749,1.828c-0.5,0.508-1.104,0.762-1.815,0.762s-1.32-0.254-1.828-0.762
		s-0.762-1.117-0.762-1.828s0.25-1.316,0.749-1.815C128.279,212.159,128.893,211.909,129.621,211.909z"/>
	<path fill="#0000FF" d="M144.906,217.114v7.643h5.434v1.777h-5.434v15.082c0,1.507,0.216,2.522,0.647,3.047
		s0.986,0.787,1.663,0.787c0.559,0,1.1-0.174,1.625-0.521c0.524-0.347,0.931-0.859,1.219-1.536h0.99
		c-0.593,1.659-1.431,2.907-2.514,3.745c-1.083,0.838-2.201,1.257-3.352,1.257c-0.779,0-1.541-0.216-2.285-0.647
		c-0.745-0.432-1.295-1.05-1.65-1.854s-0.533-2.044-0.533-3.72v-15.641h-3.682v-0.838c0.931-0.372,1.883-1.003,2.856-1.892
		c0.973-0.889,1.841-1.942,2.603-3.161c0.389-0.644,0.931-1.819,1.625-3.529H144.906z"/>
	<path fill="#0000FF" d="M161.689,226.585v15.285c0,2.167,0.237,3.538,0.711,4.113c0.626,0.745,1.464,1.117,2.514,1.117h2.107v0.914
		h-13.889V247.1h1.041c0.677,0,1.295-0.169,1.854-0.508s0.943-0.796,1.155-1.371c0.211-0.575,0.317-1.692,0.317-3.352v-15.285h-4.52
		v-1.828h4.52v-1.523c0-2.319,0.372-4.282,1.117-5.891c0.745-1.608,1.883-2.907,3.415-3.897c1.532-0.99,3.254-1.485,5.167-1.485
		c1.777,0,3.411,0.575,4.9,1.727c0.981,0.762,1.473,1.616,1.473,2.564c0,0.508-0.22,0.986-0.66,1.435
		c-0.44,0.448-0.914,0.673-1.422,0.673c-0.39,0-0.8-0.14-1.231-0.419s-0.961-0.88-1.587-1.803c-0.626-0.923-1.202-1.545-1.727-1.866
		c-0.525-0.321-1.109-0.482-1.752-0.482c-0.779,0-1.439,0.207-1.98,0.622c-0.542,0.415-0.931,1.058-1.168,1.93
		c-0.237,0.872-0.355,3.119-0.355,6.741v1.676h5.992v1.828H161.689z"/>
	<path fill="#0000FF" d="M176.72,224.071v5.23c1.946-3.487,3.944-5.23,5.992-5.23c0.931,0,1.701,0.283,2.311,0.851
		s0.914,1.223,0.914,1.968c0,0.66-0.22,1.219-0.66,1.676c-0.44,0.457-0.965,0.686-1.574,0.686c-0.593,0-1.257-0.292-1.993-0.876
		s-1.282-0.876-1.638-0.876c-0.305,0-0.635,0.169-0.99,0.508c-0.762,0.694-1.549,1.837-2.361,3.428v11.146
		c0,1.286,0.161,2.26,0.482,2.92c0.22,0.457,0.609,0.838,1.168,1.143s1.362,0.457,2.412,0.457v0.914h-11.908V247.1
		c1.185,0,2.065-0.187,2.641-0.559c0.423-0.271,0.719-0.702,0.889-1.295c0.084-0.288,0.127-1.108,0.127-2.463v-9.014
		c0-2.708-0.055-4.32-0.165-4.837c-0.11-0.517-0.313-0.893-0.609-1.13c-0.296-0.237-0.665-0.355-1.104-0.355
		c-0.525,0-1.117,0.127-1.777,0.381l-0.254-0.914l7.033-2.844H176.72z"/>
	<path fill="#0000FF" d="M195.256,224.071v18.688c0,1.456,0.105,2.425,0.317,2.907c0.211,0.482,0.524,0.842,0.939,1.079
		c0.415,0.237,1.172,0.355,2.272,0.355v0.914h-11.299V247.1c1.134,0,1.896-0.11,2.285-0.33c0.389-0.22,0.698-0.584,0.927-1.092
		s0.343-1.481,0.343-2.92v-8.963c0-2.522-0.076-4.155-0.229-4.9c-0.119-0.542-0.305-0.918-0.559-1.13s-0.601-0.317-1.041-0.317
		c-0.474,0-1.05,0.127-1.727,0.381l-0.355-0.914l7.008-2.844H195.256z M193.148,211.909c0.711,0,1.316,0.25,1.815,0.749
		c0.499,0.499,0.749,1.104,0.749,1.815s-0.25,1.32-0.749,1.828c-0.5,0.508-1.104,0.762-1.815,0.762s-1.32-0.254-1.828-0.762
		s-0.762-1.117-0.762-1.828s0.25-1.316,0.749-1.815C191.806,212.159,192.42,211.909,193.148,211.909z"/>
	<path fill="#0000FF" d="M218.107,245.399c-1.134,1.185-2.243,2.035-3.326,2.552c-1.083,0.517-2.251,0.774-3.504,0.774
		c-2.539,0-4.757-1.062-6.652-3.187c-1.896-2.124-2.844-4.854-2.844-8.188s1.049-6.386,3.148-9.153
		c2.099-2.768,4.799-4.151,8.1-4.151c2.048,0,3.741,0.651,5.078,1.955v-4.291c0-2.657-0.063-4.291-0.19-4.9
		s-0.326-1.024-0.597-1.244c-0.271-0.22-0.609-0.33-1.016-0.33c-0.44,0-1.024,0.136-1.752,0.406l-0.33-0.889l6.932-2.844h1.143
		v26.889c0,2.726,0.063,4.389,0.19,4.989s0.33,1.02,0.609,1.257s0.605,0.355,0.978,0.355c0.457,0,1.066-0.144,1.828-0.432
		l0.279,0.889l-6.906,2.869h-1.168V245.399z M218.107,243.622v-11.984c-0.102-1.151-0.406-2.2-0.914-3.148s-1.181-1.663-2.019-2.146
		s-1.655-0.724-2.45-0.724c-1.49,0-2.818,0.669-3.986,2.006c-1.541,1.761-2.311,4.333-2.311,7.719c0,3.419,0.745,6.039,2.234,7.858
		c1.489,1.819,3.148,2.729,4.977,2.729C215.178,245.932,216.668,245.162,218.107,243.622z"/>
	<path fill="#0000FF" d="M233.9,239.534c-1.422-0.694-2.514-1.663-3.275-2.907s-1.143-2.619-1.143-4.126
		c0-2.302,0.867-4.282,2.603-5.941c1.735-1.659,3.957-2.488,6.665-2.488c2.217,0,4.139,0.542,5.764,1.625h4.926
		c0.728,0,1.151,0.021,1.27,0.063c0.118,0.042,0.203,0.114,0.254,0.216c0.102,0.152,0.152,0.423,0.152,0.812
		c0,0.44-0.042,0.745-0.127,0.914c-0.051,0.085-0.14,0.152-0.267,0.203s-0.555,0.076-1.282,0.076h-3.021
		c0.948,1.219,1.422,2.776,1.422,4.672c0,2.167-0.83,4.021-2.488,5.561c-1.659,1.54-3.885,2.311-6.678,2.311
		c-1.151,0-2.328-0.169-3.529-0.508c-0.745,0.644-1.249,1.206-1.511,1.688c-0.263,0.482-0.394,0.893-0.394,1.231
		c0,0.288,0.14,0.567,0.419,0.838s0.825,0.466,1.638,0.584c0.474,0.067,1.659,0.127,3.555,0.178
		c3.487,0.085,5.747,0.203,6.779,0.355c1.574,0.22,2.831,0.804,3.771,1.752s1.409,2.116,1.409,3.504
		c0,1.913-0.897,3.707-2.691,5.383c-2.641,2.472-6.085,3.707-10.334,3.707c-3.267,0-6.026-0.736-8.277-2.209
		c-1.27-0.847-1.904-1.727-1.904-2.641c0-0.406,0.093-0.812,0.279-1.219c0.288-0.626,0.88-1.498,1.777-2.615
		c0.118-0.152,0.981-1.066,2.59-2.742c-0.88-0.524-1.502-0.994-1.866-1.409c-0.364-0.415-0.546-0.885-0.546-1.409
		c0-0.593,0.241-1.286,0.724-2.082S232.156,240.99,233.9,239.534z M233.646,248.014c-0.796,0.863-1.396,1.667-1.803,2.412
		s-0.609,1.431-0.609,2.057c0,0.812,0.491,1.523,1.473,2.133c1.692,1.05,4.139,1.574,7.338,1.574c3.047,0,5.294-0.537,6.741-1.612
		s2.171-2.222,2.171-3.44c0-0.88-0.432-1.507-1.295-1.879c-0.88-0.372-2.624-0.593-5.23-0.66
		C238.623,248.497,235.694,248.302,233.646,248.014z M238.318,225.29c-1.253,0-2.302,0.499-3.148,1.498
		c-0.847,0.999-1.27,2.53-1.27,4.596c0,2.675,0.575,4.748,1.727,6.221c0.88,1.117,1.997,1.676,3.352,1.676
		c1.286,0,2.344-0.482,3.174-1.447c0.829-0.965,1.244-2.479,1.244-4.545c0-2.691-0.584-4.799-1.752-6.322
		C240.781,225.848,239.672,225.29,238.318,225.29z"/>
	<path fill="#0000FF" d="M257.59,233.516c-0.017,3.453,0.821,6.161,2.514,8.125c1.692,1.964,3.682,2.945,5.967,2.945
		c1.523,0,2.848-0.419,3.974-1.257c1.125-0.838,2.069-2.272,2.831-4.304l0.787,0.508c-0.355,2.319-1.388,4.431-3.098,6.335
		c-1.71,1.904-3.851,2.856-6.424,2.856c-2.793,0-5.184-1.088-7.173-3.263c-1.989-2.175-2.983-5.1-2.983-8.772
		c0-3.978,1.02-7.08,3.06-9.306c2.04-2.226,4.6-3.339,7.681-3.339c2.606,0,4.748,0.859,6.424,2.577s2.514,4.016,2.514,6.894H257.59z
		 M257.59,232.044h10.766c-0.085-1.489-0.263-2.539-0.533-3.148c-0.423-0.948-1.054-1.692-1.892-2.234s-1.714-0.812-2.628-0.812
		c-1.405,0-2.662,0.546-3.771,1.638C258.423,228.578,257.776,230.097,257.59,232.044z"/>
	<path fill="#0000FF" d="M281.635,243.089c0.795,0,1.464,0.275,2.006,0.825c0.542,0.55,0.812,1.215,0.812,1.993
		s-0.275,1.443-0.825,1.993c-0.55,0.55-1.215,0.825-1.993,0.825c-0.779,0-1.443-0.275-1.993-0.825
		c-0.55-0.55-0.825-1.215-0.825-1.993c0-0.796,0.275-1.464,0.825-2.006C280.191,243.359,280.856,243.089,281.635,243.089z"/>
	<path fill="#0000FF" d="M309.513,239.178c-0.626,3.063-1.854,5.421-3.682,7.071s-3.851,2.476-6.068,2.476
		c-2.641,0-4.943-1.108-6.906-3.326c-1.964-2.218-2.945-5.214-2.945-8.988c0-3.656,1.087-6.627,3.263-8.912
		c2.175-2.285,4.786-3.428,7.833-3.428c2.285,0,4.164,0.605,5.637,1.815s2.209,2.467,2.209,3.771c0,0.644-0.208,1.164-0.622,1.562
		c-0.415,0.397-0.995,0.597-1.739,0.597c-0.999,0-1.752-0.321-2.26-0.965c-0.288-0.355-0.479-1.032-0.571-2.031
		c-0.093-0.999-0.436-1.761-1.028-2.285c-0.593-0.508-1.414-0.762-2.463-0.762c-1.693,0-3.056,0.626-4.088,1.879
		c-1.371,1.659-2.057,3.851-2.057,6.576c0,2.776,0.681,5.227,2.044,7.351c1.362,2.124,3.203,3.187,5.522,3.187
		c1.659,0,3.148-0.567,4.469-1.701c0.931-0.778,1.836-2.192,2.717-4.24L309.513,239.178z"/>
	<path fill="#0000FF" d="M324.215,224.071c3.52,0,6.348,1.337,8.48,4.012c1.811,2.285,2.717,4.909,2.717,7.871
		c0,2.082-0.5,4.189-1.498,6.322c-1,2.133-2.375,3.741-4.127,4.824s-3.703,1.625-5.852,1.625c-3.504,0-6.289-1.396-8.354-4.189
		c-1.744-2.353-2.615-4.993-2.615-7.922c0-2.133,0.529-4.253,1.587-6.36c1.058-2.107,2.45-3.665,4.177-4.672
		C320.457,224.575,322.285,224.071,324.215,224.071z M323.428,225.721c-0.898,0-1.799,0.267-2.705,0.8
		c-0.905,0.533-1.637,1.469-2.196,2.806s-0.838,3.056-0.838,5.154c0,3.386,0.673,6.306,2.018,8.76
		c1.346,2.454,3.119,3.682,5.32,3.682c1.641,0,2.996-0.677,4.062-2.031s1.6-3.682,1.6-6.982c0-4.13-0.889-7.38-2.666-9.75
		C326.821,226.534,325.289,225.721,323.428,225.721z"/>
	<path fill="#0000FF" d="M345.746,229.022c1.691-1.692,2.691-2.666,2.996-2.92c0.762-0.644,1.582-1.143,2.463-1.498
		c0.879-0.355,1.752-0.533,2.615-0.533c1.455,0,2.707,0.423,3.758,1.27c1.049,0.847,1.752,2.073,2.107,3.682
		c1.742-2.031,3.215-3.364,4.418-3.999c1.201-0.635,2.438-0.952,3.707-0.952c1.234,0,2.331,0.317,3.287,0.952
		c0.957,0.635,1.715,1.672,2.273,3.11c0.371,0.981,0.559,2.522,0.559,4.621v10.004c0,1.456,0.109,2.454,0.33,2.996
		c0.168,0.372,0.482,0.689,0.939,0.952s1.201,0.394,2.234,0.394v0.914h-11.477V247.1h0.482c0.998,0,1.777-0.194,2.336-0.584
		c0.389-0.271,0.668-0.702,0.838-1.295c0.066-0.288,0.102-1.108,0.102-2.463v-10.004c0-1.896-0.229-3.233-0.686-4.012
		c-0.66-1.083-1.719-1.625-3.174-1.625c-0.898,0-1.799,0.225-2.705,0.673c-0.905,0.448-2.002,1.282-3.287,2.501l-0.051,0.279
		l0.051,1.092v11.096c0,1.591,0.088,2.581,0.266,2.971s0.512,0.715,1.004,0.978c0.49,0.263,1.328,0.394,2.514,0.394v0.914h-11.756
		V247.1c1.285,0,2.17-0.152,2.652-0.457s0.816-0.762,1.004-1.371c0.084-0.288,0.127-1.126,0.127-2.514v-10.004
		c0-1.896-0.279-3.259-0.838-4.088c-0.746-1.083-1.787-1.625-3.123-1.625c-0.914,0-1.82,0.245-2.717,0.736
		c-1.406,0.745-2.488,1.583-3.25,2.514v12.467c0,1.523,0.105,2.514,0.316,2.971c0.212,0.457,0.525,0.8,0.939,1.028
		c0.415,0.229,1.258,0.343,2.527,0.343v0.914h-11.502V247.1c1.066,0,1.811-0.114,2.234-0.343c0.422-0.229,0.744-0.593,0.965-1.092
		c0.219-0.499,0.33-1.469,0.33-2.907v-8.887c0-2.556-0.076-4.206-0.229-4.951c-0.119-0.559-0.305-0.943-0.559-1.155
		s-0.602-0.317-1.041-0.317c-0.475,0-1.041,0.127-1.701,0.381l-0.381-0.914l7.008-2.844h1.092V229.022z"/>
	<path fill="#0000FF" d="M392.237,211.909l-12.467,36.816h-2.031l12.467-36.816H392.237z"/>
	<path fill="#0000FF" d="M73,254.946v-2.539h319.11v2.539H73z"/>
</g>
<rect x="460" y="289" width="8" height="8"/>
<rect x="486" y="289" width="8" height="8"/>
<rect x="453" y="309" width="8" height="8"/>
<rect x="493" y="309" width="8" height="8"/>
<rect x="457" y="317" width="8" height="8"/>
<rect x="465" y="321" width="8" height="8"/>
<rect x="473" y="321" width="8" height="8"/>
<rect x="481" y="321" width="8" height="8"/>
<rect x="489" y="317" width="8" height="8"/>
<path fill="#707070" stroke="#CCCCCC" stroke-width="3" stroke-miterlimit="10" d="M212,361.5h-69.5v-8h-10v-11h-8v-8h-33v9h-8v10
	h-8v27h9v7h8v10h32v-9h9v-5h7.666l3.834-4h8l5,4h21l3-4h21.833l8.5,3.958L229,371.75L212,361.5z M90.5,372.167l-7,0.166v-7l7-0.166
	V372.167z"/>
<line fill="none" stroke="#CCCCCC" stroke-width="3" stroke-miterlimit="10" x1="212" y1="370.5" x2="142" y2="370.5"/>
<polygon fill="#707070" stroke="#CCCCCC" stroke-width="3" stroke-miterlimit="10" points="266.5,356 266.5,333.5 275,333.5 
	275.333,324.5 311.5,324.5 311.5,333.5 319.5,333.5 319.5,358.5 307.5,358.5 307.5,342.5 300.5,342.5 300.5,334.5 285.5,334.5 
	285.5,342.5 277.5,342.5 277.5,359.5 266,359.5 "/>
<rect x="261.5" y="357.5" fill="#707070" stroke="#CCCCCC" stroke-width="3" stroke-miterlimit="10" width="64" height="37"/>
<path fill="none" stroke="#000000" stroke-width="1.0328" stroke-miterlimit="10" d="M441.954,272.361
	c0,0-4.954,18.409-4.954,32.726c0,14.315,4.954,32.384,4.954,32.384s38.159,13.821,70.146,6.91c0,0,10.432-40.317,0-65.544
	C512.102,278.837,469.159,267.248,441.954,272.361z"/>
<path fill="none" stroke="#000000" stroke-width="2" stroke-miterlimit="10" d="M428.863,256.2c0,0-6.862,26.009-6.862,46.234
	c0,20.225,6.862,45.749,6.862,45.749s52.854,19.526,97.161,9.764c0,0,14.448-56.961,0-92.598
	C526.024,265.35,466.545,248.977,428.863,256.2z"/>
<path fill="none" stroke="#000000" stroke-width="2" stroke-miterlimit="10" d="M526.024,357.947L542.5,336
	c0,0,9.899-42.946-2.467-81.641c0,0-31.201-15.027-95.283-12.36L428.863,256.2"/>
<path fill="none" stroke="#000000" stroke-width="2" stroke-miterlimit="10" d="M546.724,311.521l6.389-14.854
	c3.444-24.333-9.632-62.334-9.632-62.334c-10.188-4-51.48-7-51.48-7l-35.854,13.479"/>
<path fill="none" stroke="#000000" stroke-width="2" stroke-miterlimit="10" d="M536.575,343.891c0,0,7.982,11.106-4.13,24.44
	c-12.111,13.334-22.677-5.022-33.228,11.655"/>
<path fill="none" stroke="#000000" stroke-width="2" stroke-miterlimit="10" d="M540.033,339.284c0,0,11.68,2.714,13.656,12.048
	s-14.854,28.21-7.438,41.438"/>
<path fill="none" stroke="#000000" stroke-miterlimit="10" d="M543,406c0,0-2-16.332,7-14s9.666,25,2.334,24
	C545,415,545,414.002,543,406z"/>
<path fill="none" stroke="#000000" stroke-miterlimit="10" d="M546.252,399.25c0,0,4.721-1.082,9.9,0"/>
<path fill="none" stroke="#000000" stroke-miterlimit="10" d="M550,392c0,0,0.404-0.332,1.202,6"/>
<path fill="none" stroke="#000000" stroke-width="2" stroke-miterlimit="10" d="M512.918,382.619L515,388.77L507,410h-2.082
	L512.918,382.619c-9.334-3.629-96.417-17.12-96.417-17.12c-3.335,6.998-8.833,27.001-8.833,27.001
	c44.833,11,97.25,17.584,97.25,17.584"/>
<polygon fill="none" stroke="#000000" stroke-width="0.9827" stroke-miterlimit="10" points="474,399.946 412.666,388.501 
	418.972,368.734 479.728,378.834 "/>
<polygon fill="none" stroke="#000000" stroke-miterlimit="10" points="500.863,405.827 479.728,402 486.166,379.987 507.5,384.34 
	"/>
</svg>
